<mxfile host="app.diagrams.net" agent="Mozilla/5.0 (Windows NT 10.0; Win64; x64) AppleWebKit/537.36 (KHTML, like Gecko) Chrome/131.0.0.0 Safari/537.36" version="26.0.8">
  <diagram name="Pagina-1" id="Q8ebSe6SH-asBx5pW5yb">
    <mxGraphModel dx="1432" dy="737" grid="1" gridSize="10" guides="1" tooltips="1" connect="1" arrows="1" fold="1" page="1" pageScale="1" pageWidth="827" pageHeight="1169" math="0" shadow="0">
      <root>
        <mxCell id="0" />
        <mxCell id="1" parent="0" />
        <mxCell id="X0UQXJLC1dQcE8E02zXS-6" style="edgeStyle=orthogonalEdgeStyle;rounded=0;sketch=1;hachureGap=4;jiggle=2;curveFitting=1;orthogonalLoop=1;jettySize=auto;html=1;entryX=0.5;entryY=0;entryDx=0;entryDy=0;fontFamily=Architects Daughter;fontSource=https%3A%2F%2Ffonts.googleapis.com%2Fcss%3Ffamily%3DArchitects%2BDaughter;fillColor=#e1d5e7;strokeColor=#9673a6;" parent="1" source="X0UQXJLC1dQcE8E02zXS-4" target="X0UQXJLC1dQcE8E02zXS-5" edge="1">
          <mxGeometry relative="1" as="geometry" />
        </mxCell>
        <mxCell id="X0UQXJLC1dQcE8E02zXS-7" value="&lt;font face=&quot;Comic Sans MS&quot;&gt;1. Click sul pulsante Ottieni Pass,&lt;/font&gt;&lt;div&gt;&lt;font face=&quot;Comic Sans MS&quot;&gt;Apre una nuova pagina su NeverlandKiz oppure Flip della pagina corrente&lt;/font&gt;&lt;/div&gt;" style="edgeLabel;html=1;align=center;verticalAlign=middle;resizable=0;points=[];sketch=1;hachureGap=4;jiggle=2;curveFitting=1;fontFamily=Architects Daughter;fontSource=https%3A%2F%2Ffonts.googleapis.com%2Fcss%3Ffamily%3DArchitects%2BDaughter;" parent="X0UQXJLC1dQcE8E02zXS-6" vertex="1" connectable="0">
          <mxGeometry x="-0.02" y="2" relative="1" as="geometry">
            <mxPoint as="offset" />
          </mxGeometry>
        </mxCell>
        <mxCell id="X0UQXJLC1dQcE8E02zXS-4" value="&lt;h1 style=&quot;margin-top: 0px;&quot;&gt;&lt;br&gt;&lt;/h1&gt;&lt;p&gt;Come da accordo, Stripe si occuperà di Gestire il tasto SUBSCRIBE e quindi la relativa Sottoscrizione dell&#39;utente.&lt;/p&gt;&lt;p&gt;Accanto al bottone ACCEDI, verrà Aggiunto un&#39;altro bottone per permettere all&#39;utente di generare il QRCode.&lt;/p&gt;" style="text;html=1;whiteSpace=wrap;overflow=hidden;rounded=1;fontFamily=Comic Sans MS;align=center;fillColor=#e1d5e7;strokeColor=none;sketch=1;curveFitting=1;jiggle=2;" parent="1" vertex="1">
          <mxGeometry x="185.03" y="30" width="459" height="124.24" as="geometry" />
        </mxCell>
        <mxCell id="aLCnGwpAxpOMU-bBEDsF-4" style="edgeStyle=orthogonalEdgeStyle;rounded=0;sketch=1;hachureGap=4;jiggle=2;curveFitting=1;orthogonalLoop=1;jettySize=auto;html=1;entryX=0;entryY=0.5;entryDx=0;entryDy=0;fontFamily=Architects Daughter;fontSource=https%3A%2F%2Ffonts.googleapis.com%2Fcss%3Ffamily%3DArchitects%2BDaughter;fillColor=#dae8fc;strokeColor=#6c8ebf;" parent="1" source="X0UQXJLC1dQcE8E02zXS-5" target="aLCnGwpAxpOMU-bBEDsF-3" edge="1">
          <mxGeometry relative="1" as="geometry">
            <Array as="points">
              <mxPoint x="40" y="284" />
              <mxPoint x="40" y="600" />
            </Array>
          </mxGeometry>
        </mxCell>
        <mxCell id="X0UQXJLC1dQcE8E02zXS-5" value="&lt;font face=&quot;Comic Sans MS&quot;&gt;2. Schermata di Inserimento Email&lt;/font&gt;" style="rounded=1;whiteSpace=wrap;html=1;sketch=1;hachureGap=4;jiggle=2;curveFitting=1;fontFamily=Architects Daughter;fontSource=https%3A%2F%2Ffonts.googleapis.com%2Fcss%3Ffamily%3DArchitects%2BDaughter;fillColor=#dae8fc;strokeColor=#6c8ebf;" parent="1" vertex="1">
          <mxGeometry x="354.53" y="254.24" width="120" height="60" as="geometry" />
        </mxCell>
        <mxCell id="X0UQXJLC1dQcE8E02zXS-11" value="" style="edgeStyle=orthogonalEdgeStyle;rounded=0;sketch=1;hachureGap=4;jiggle=2;curveFitting=1;orthogonalLoop=1;jettySize=auto;html=1;fontFamily=Architects Daughter;fontSource=https%3A%2F%2Ffonts.googleapis.com%2Fcss%3Ffamily%3DArchitects%2BDaughter;fillColor=#dae8fc;strokeColor=#6c8ebf;" parent="1" source="X0UQXJLC1dQcE8E02zXS-8" target="X0UQXJLC1dQcE8E02zXS-10" edge="1">
          <mxGeometry relative="1" as="geometry" />
        </mxCell>
        <mxCell id="X0UQXJLC1dQcE8E02zXS-8" value="In questa Schermata l&#39;utente inserisce la sua email e clicca su Invia.&lt;div&gt;Lato nostro controlleremo che l&#39;email sia presente su Stripe e nel caso esista manderemo una email all&#39;utente per poter mostrare la Schermata di selezione dei prodotti&lt;/div&gt;" style="text;html=1;align=center;verticalAlign=middle;whiteSpace=wrap;rounded=1;fontFamily=Comic Sans MS;sketch=1;curveFitting=1;jiggle=2;fillColor=#dae8fc;strokeColor=none;glass=0;" parent="1" vertex="1">
          <mxGeometry x="246" y="314.24" width="336" height="90" as="geometry" />
        </mxCell>
        <mxCell id="X0UQXJLC1dQcE8E02zXS-13" style="edgeStyle=orthogonalEdgeStyle;rounded=0;sketch=1;hachureGap=4;jiggle=2;curveFitting=1;orthogonalLoop=1;jettySize=auto;html=1;fontFamily=Architects Daughter;fontSource=https%3A%2F%2Ffonts.googleapis.com%2Fcss%3Ffamily%3DArchitects%2BDaughter;fillColor=#ffe6cc;strokeColor=#d79b00;" parent="1" source="X0UQXJLC1dQcE8E02zXS-10" target="X0UQXJLC1dQcE8E02zXS-12" edge="1">
          <mxGeometry relative="1" as="geometry" />
        </mxCell>
        <mxCell id="X0UQXJLC1dQcE8E02zXS-14" value="&lt;font face=&quot;Comic Sans MS&quot;&gt;Email non Esistente&lt;/font&gt;" style="edgeLabel;html=1;align=center;verticalAlign=middle;resizable=0;points=[];sketch=1;hachureGap=4;jiggle=2;curveFitting=1;fontFamily=Architects Daughter;fontSource=https%3A%2F%2Ffonts.googleapis.com%2Fcss%3Ffamily%3DArchitects%2BDaughter;" parent="X0UQXJLC1dQcE8E02zXS-13" vertex="1" connectable="0">
          <mxGeometry x="-0.0018" y="-1" relative="1" as="geometry">
            <mxPoint as="offset" />
          </mxGeometry>
        </mxCell>
        <mxCell id="X0UQXJLC1dQcE8E02zXS-16" style="edgeStyle=orthogonalEdgeStyle;rounded=0;sketch=1;hachureGap=4;jiggle=2;curveFitting=1;orthogonalLoop=1;jettySize=auto;html=1;fontFamily=Architects Daughter;fontSource=https%3A%2F%2Ffonts.googleapis.com%2Fcss%3Ffamily%3DArchitects%2BDaughter;fillColor=#ffe6cc;strokeColor=#d79b00;" parent="1" source="X0UQXJLC1dQcE8E02zXS-10" target="X0UQXJLC1dQcE8E02zXS-15" edge="1">
          <mxGeometry relative="1" as="geometry" />
        </mxCell>
        <mxCell id="X0UQXJLC1dQcE8E02zXS-17" value="&lt;font face=&quot;Comic Sans MS&quot;&gt;Email Esistete&lt;/font&gt;" style="edgeLabel;html=1;align=center;verticalAlign=middle;resizable=0;points=[];sketch=1;hachureGap=4;jiggle=2;curveFitting=1;fontFamily=Architects Daughter;fontSource=https%3A%2F%2Ffonts.googleapis.com%2Fcss%3Ffamily%3DArchitects%2BDaughter;" parent="X0UQXJLC1dQcE8E02zXS-16" vertex="1" connectable="0">
          <mxGeometry x="-0.0869" y="-1" relative="1" as="geometry">
            <mxPoint as="offset" />
          </mxGeometry>
        </mxCell>
        <mxCell id="X0UQXJLC1dQcE8E02zXS-10" value="" style="rhombus;whiteSpace=wrap;html=1;sketch=1;hachureGap=4;jiggle=2;curveFitting=1;fontFamily=Architects Daughter;fontSource=https%3A%2F%2Ffonts.googleapis.com%2Fcss%3Ffamily%3DArchitects%2BDaughter;fillColor=#ffe6cc;strokeColor=#d79b00;" parent="1" vertex="1">
          <mxGeometry x="391.79999999999995" y="444.24" width="45.47" height="50" as="geometry" />
        </mxCell>
        <mxCell id="X0UQXJLC1dQcE8E02zXS-12" value="&lt;font face=&quot;Comic Sans MS&quot;&gt;ERRORE&lt;/font&gt;" style="rounded=1;whiteSpace=wrap;html=1;sketch=1;hachureGap=4;jiggle=2;curveFitting=1;fontFamily=Architects Daughter;fontSource=https%3A%2F%2Ffonts.googleapis.com%2Fcss%3Ffamily%3DArchitects%2BDaughter;fillColor=#f8cecc;strokeColor=#b85450;" parent="1" vertex="1">
          <mxGeometry x="90" y="439.24" width="120" height="60" as="geometry" />
        </mxCell>
        <mxCell id="X0UQXJLC1dQcE8E02zXS-15" value="&lt;font face=&quot;Comic Sans MS&quot;&gt;3. Invio del Template HTML via email&lt;/font&gt;" style="rounded=1;whiteSpace=wrap;html=1;sketch=1;hachureGap=4;jiggle=2;curveFitting=1;fontFamily=Architects Daughter;fontSource=https%3A%2F%2Ffonts.googleapis.com%2Fcss%3Ffamily%3DArchitects%2BDaughter;fillColor=#d5e8d4;strokeColor=#82b366;" parent="1" vertex="1">
          <mxGeometry x="600" y="439.24" width="120" height="60" as="geometry" />
        </mxCell>
        <mxCell id="X0UQXJLC1dQcE8E02zXS-18" value="&lt;font face=&quot;Comic Sans MS&quot;&gt;Qui creaiamo un template HTML per inviare una email con il relativo bottone di accesso al portale &lt;/font&gt;&lt;font face=&quot;Comic Sans MS&quot;&gt;(Potrebbe servire una sessione lato nostro per gestire la sessione corrente).&lt;/font&gt;&lt;div&gt;&lt;font face=&quot;Comic Sans MS&quot;&gt;Nel link di redirect a NeverlnKiz c saranno i dati necessari per visualizzare le sottoscrizioni dell&#39;utente con la relativa sessione.&lt;/font&gt;&lt;/div&gt;&lt;div&gt;&lt;font face=&quot;Comic Sans MS&quot;&gt;(La sessione serve per evitare possibili vulnerabilità)&lt;/font&gt;&lt;/div&gt;" style="text;html=1;align=center;verticalAlign=middle;whiteSpace=wrap;rounded=1;fontFamily=Architects Daughter;fontSource=https%3A%2F%2Ffonts.googleapis.com%2Fcss%3Ffamily%3DArchitects%2BDaughter;sketch=1;curveFitting=1;jiggle=2;fillColor=#d5e8d4;strokeColor=none;" parent="1" vertex="1">
          <mxGeometry x="510" y="499.24" width="300" height="150" as="geometry" />
        </mxCell>
        <mxCell id="LOxiiAEz1P8uojWszNT4-5" style="edgeStyle=orthogonalEdgeStyle;rounded=0;sketch=1;hachureGap=4;jiggle=2;curveFitting=1;orthogonalLoop=1;jettySize=auto;html=1;entryX=1;entryY=0.5;entryDx=0;entryDy=0;fontFamily=Architects Daughter;fontSource=https%3A%2F%2Ffonts.googleapis.com%2Fcss%3Ffamily%3DArchitects%2BDaughter;fillColor=#d5e8d4;strokeColor=#82b366;" parent="1" source="LOxiiAEz1P8uojWszNT4-1" target="LOxiiAEz1P8uojWszNT4-4" edge="1">
          <mxGeometry relative="1" as="geometry" />
        </mxCell>
        <mxCell id="LOxiiAEz1P8uojWszNT4-1" value="" style="verticalLabelPosition=bottom;shadow=0;dashed=0;align=center;html=1;verticalAlign=top;strokeWidth=1;shape=mxgraph.mockup.misc.mail2;strokeColor=#82b366;sketch=1;hachureGap=4;jiggle=2;curveFitting=1;fontFamily=Architects Daughter;fontSource=https%3A%2F%2Ffonts.googleapis.com%2Fcss%3Ffamily%3DArchitects%2BDaughter;fillColor=#d5e8d4;" parent="1" vertex="1">
          <mxGeometry x="610" y="704.24" width="100" height="60" as="geometry" />
        </mxCell>
        <mxCell id="LOxiiAEz1P8uojWszNT4-2" style="edgeStyle=orthogonalEdgeStyle;rounded=0;sketch=1;hachureGap=4;jiggle=2;curveFitting=1;orthogonalLoop=1;jettySize=auto;html=1;entryX=0.5;entryY=-0.05;entryDx=0;entryDy=0;entryPerimeter=0;fontFamily=Architects Daughter;fontSource=https%3A%2F%2Ffonts.googleapis.com%2Fcss%3Ffamily%3DArchitects%2BDaughter;fillColor=#d5e8d4;strokeColor=#82b366;" parent="1" source="X0UQXJLC1dQcE8E02zXS-18" target="LOxiiAEz1P8uojWszNT4-1" edge="1">
          <mxGeometry relative="1" as="geometry" />
        </mxCell>
        <mxCell id="LOxiiAEz1P8uojWszNT4-3" value="&lt;font face=&quot;Comic Sans MS&quot;&gt;Email con HTML Template e bottone che accede a NeverlandKiz/pass&lt;/font&gt;" style="text;html=1;align=center;verticalAlign=middle;whiteSpace=wrap;rounded=1;fontFamily=Architects Daughter;fontSource=https%3A%2F%2Ffonts.googleapis.com%2Fcss%3Ffamily%3DArchitects%2BDaughter;fillColor=#d5e8d4;strokeColor=none;sketch=1;curveFitting=1;jiggle=2;" parent="1" vertex="1">
          <mxGeometry x="575" y="774.24" width="175" height="55.76" as="geometry" />
        </mxCell>
        <mxCell id="aLCnGwpAxpOMU-bBEDsF-5" style="edgeStyle=orthogonalEdgeStyle;rounded=0;sketch=1;hachureGap=4;jiggle=2;curveFitting=1;orthogonalLoop=1;jettySize=auto;html=1;entryX=1;entryY=0.5;entryDx=0;entryDy=0;fontFamily=Architects Daughter;fontSource=https%3A%2F%2Ffonts.googleapis.com%2Fcss%3Ffamily%3DArchitects%2BDaughter;fillColor=#e1d5e7;strokeColor=#9673a6;" parent="1" source="LOxiiAEz1P8uojWszNT4-4" target="aLCnGwpAxpOMU-bBEDsF-3" edge="1">
          <mxGeometry relative="1" as="geometry">
            <Array as="points">
              <mxPoint x="415" y="600" />
            </Array>
          </mxGeometry>
        </mxCell>
        <mxCell id="aLCnGwpAxpOMU-bBEDsF-10" style="edgeStyle=orthogonalEdgeStyle;rounded=0;sketch=1;hachureGap=4;jiggle=2;curveFitting=1;orthogonalLoop=1;jettySize=auto;html=1;entryX=0.5;entryY=0;entryDx=0;entryDy=0;fontFamily=Architects Daughter;fontSource=https%3A%2F%2Ffonts.googleapis.com%2Fcss%3Ffamily%3DArchitects%2BDaughter;fillColor=#e1d5e7;strokeColor=#9673a6;" parent="1" source="LOxiiAEz1P8uojWszNT4-4" target="aLCnGwpAxpOMU-bBEDsF-2" edge="1">
          <mxGeometry relative="1" as="geometry">
            <Array as="points">
              <mxPoint x="280" y="734" />
              <mxPoint x="280" y="890" />
              <mxPoint x="663" y="890" />
            </Array>
          </mxGeometry>
        </mxCell>
        <mxCell id="aLCnGwpAxpOMU-bBEDsF-12" style="edgeStyle=orthogonalEdgeStyle;rounded=0;sketch=1;hachureGap=4;jiggle=2;curveFitting=1;orthogonalLoop=1;jettySize=auto;html=1;entryX=0.5;entryY=0;entryDx=0;entryDy=0;fontFamily=Architects Daughter;fontSource=https%3A%2F%2Ffonts.googleapis.com%2Fcss%3Ffamily%3DArchitects%2BDaughter;fillColor=#e1d5e7;strokeColor=#9673a6;" parent="1" source="LOxiiAEz1P8uojWszNT4-4" target="aLCnGwpAxpOMU-bBEDsF-1" edge="1">
          <mxGeometry relative="1" as="geometry">
            <Array as="points">
              <mxPoint x="280" y="734" />
              <mxPoint x="280" y="890" />
              <mxPoint x="150" y="890" />
            </Array>
          </mxGeometry>
        </mxCell>
        <mxCell id="LOxiiAEz1P8uojWszNT4-4" value="&lt;font face=&quot;Comic Sans MS&quot;&gt;4. Schermata Pass&lt;/font&gt;" style="rounded=1;whiteSpace=wrap;html=1;sketch=1;hachureGap=4;jiggle=2;curveFitting=1;fontFamily=Architects Daughter;fontSource=https%3A%2F%2Ffonts.googleapis.com%2Fcss%3Ffamily%3DArchitects%2BDaughter;fillColor=#e1d5e7;strokeColor=#9673a6;" parent="1" vertex="1">
          <mxGeometry x="354.53" y="704.24" width="120" height="60" as="geometry" />
        </mxCell>
        <mxCell id="LOxiiAEz1P8uojWszNT4-6" value="&lt;font face=&quot;Comic Sans MS&quot;&gt;Qui è dove l&#39;utente avrà a disposizione le sottoscrizioni che ha acquistato, selezionando una di esse tramite il bottone Visualizza Pass o Scarica Pass vedrà iil suo QRCode&amp;nbsp;&lt;/font&gt;" style="text;html=1;align=center;verticalAlign=middle;whiteSpace=wrap;rounded=1;fontFamily=Architects Daughter;fontSource=https%3A%2F%2Ffonts.googleapis.com%2Fcss%3Ffamily%3DArchitects%2BDaughter;fillColor=#e1d5e7;strokeColor=none;sketch=1;curveFitting=1;jiggle=2;" parent="1" vertex="1">
          <mxGeometry x="302.53" y="774.24" width="224" height="90" as="geometry" />
        </mxCell>
        <mxCell id="aLCnGwpAxpOMU-bBEDsF-15" style="edgeStyle=orthogonalEdgeStyle;rounded=0;sketch=1;hachureGap=4;jiggle=2;curveFitting=1;orthogonalLoop=1;jettySize=auto;html=1;entryX=0;entryY=0.5;entryDx=0;entryDy=0;fontFamily=Architects Daughter;fontSource=https%3A%2F%2Ffonts.googleapis.com%2Fcss%3Ffamily%3DArchitects%2BDaughter;" parent="1" source="aLCnGwpAxpOMU-bBEDsF-1" target="aLCnGwpAxpOMU-bBEDsF-14" edge="1">
          <mxGeometry relative="1" as="geometry" />
        </mxCell>
        <mxCell id="aLCnGwpAxpOMU-bBEDsF-16" value="&lt;font face=&quot;Comic Sans MS&quot;&gt;Durata minima non rispettata&lt;/font&gt;" style="edgeLabel;html=1;align=center;verticalAlign=middle;resizable=0;points=[];sketch=1;hachureGap=4;jiggle=2;curveFitting=1;fontFamily=Architects Daughter;fontSource=https%3A%2F%2Ffonts.googleapis.com%2Fcss%3Ffamily%3DArchitects%2BDaughter;" parent="aLCnGwpAxpOMU-bBEDsF-15" vertex="1" connectable="0">
          <mxGeometry x="-0.1" y="1" relative="1" as="geometry">
            <mxPoint as="offset" />
          </mxGeometry>
        </mxCell>
        <mxCell id="aLCnGwpAxpOMU-bBEDsF-1" value="&lt;font face=&quot;Comic Sans MS&quot;&gt;5. Cancellazione Sottoscrizione&lt;/font&gt;" style="rounded=1;whiteSpace=wrap;html=1;sketch=1;hachureGap=4;jiggle=2;curveFitting=1;fontFamily=Architects Daughter;fontSource=https%3A%2F%2Ffonts.googleapis.com%2Fcss%3Ffamily%3DArchitects%2BDaughter;fillColor=#ffcccc;strokeColor=#36393d;" parent="1" vertex="1">
          <mxGeometry x="90" y="940" width="120" height="60" as="geometry" />
        </mxCell>
        <mxCell id="aLCnGwpAxpOMU-bBEDsF-2" value="&lt;font face=&quot;Comic Sans MS&quot;&gt;6. Nuova Sottoscrizione&lt;/font&gt;" style="rounded=1;whiteSpace=wrap;html=1;sketch=1;hachureGap=4;jiggle=2;curveFitting=1;fontFamily=Architects Daughter;fontSource=https%3A%2F%2Ffonts.googleapis.com%2Fcss%3Ffamily%3DArchitects%2BDaughter;fillColor=#b0e3e6;strokeColor=#0e8088;labelBorderColor=none;" parent="1" vertex="1">
          <mxGeometry x="602.5" y="930" width="120" height="60" as="geometry" />
        </mxCell>
        <mxCell id="aLCnGwpAxpOMU-bBEDsF-3" value="&lt;font face=&quot;Comic Sans MS&quot;&gt;5. Contattami&lt;/font&gt;" style="rounded=1;whiteSpace=wrap;html=1;sketch=1;hachureGap=4;jiggle=2;curveFitting=1;fontFamily=Architects Daughter;fontSource=https%3A%2F%2Ffonts.googleapis.com%2Fcss%3Ffamily%3DArchitects%2BDaughter;fillColor=#fad7ac;strokeColor=#b46504;" parent="1" vertex="1">
          <mxGeometry x="89.99999999999997" y="570" width="120" height="60" as="geometry" />
        </mxCell>
        <mxCell id="aLCnGwpAxpOMU-bBEDsF-8" style="edgeStyle=orthogonalEdgeStyle;rounded=0;sketch=1;hachureGap=4;jiggle=2;curveFitting=1;orthogonalLoop=1;jettySize=auto;html=1;exitX=0.5;exitY=1;exitDx=0;exitDy=0;fontFamily=Architects Daughter;fontSource=https%3A%2F%2Ffonts.googleapis.com%2Fcss%3Ffamily%3DArchitects%2BDaughter;fillColor=#ffe6cc;strokeColor=#d79b00;" parent="1" source="aLCnGwpAxpOMU-bBEDsF-6" target="aLCnGwpAxpOMU-bBEDsF-7" edge="1">
          <mxGeometry relative="1" as="geometry" />
        </mxCell>
        <mxCell id="aLCnGwpAxpOMU-bBEDsF-6" value="&lt;font face=&quot;Comic Sans MS&quot;&gt;Qui è dove l&#39;utente potrà contattare NeverlandKiz direttamente.&lt;/font&gt;&lt;div&gt;&lt;font face=&quot;Comic Sans MS&quot;&gt;Si invieranno 2 Email, una all&#39;utente ed una a info@neverlandkiz.it&amp;nbsp;&lt;/font&gt;&lt;/div&gt;" style="text;html=1;align=center;verticalAlign=middle;whiteSpace=wrap;rounded=1;fontFamily=Architects Daughter;fontSource=https%3A%2F%2Ffonts.googleapis.com%2Fcss%3Ffamily%3DArchitects%2BDaughter;fillColor=#ffe6cc;strokeColor=none;sketch=1;curveFitting=1;jiggle=2;" parent="1" vertex="1">
          <mxGeometry x="38" y="640" width="224" height="80" as="geometry" />
        </mxCell>
        <mxCell id="aLCnGwpAxpOMU-bBEDsF-7" value="" style="verticalLabelPosition=bottom;shadow=0;dashed=0;align=center;html=1;verticalAlign=top;strokeWidth=1;shape=mxgraph.mockup.misc.mail2;strokeColor=#d79b00;sketch=1;hachureGap=4;jiggle=2;curveFitting=1;fontFamily=Architects Daughter;fontSource=https%3A%2F%2Ffonts.googleapis.com%2Fcss%3Ffamily%3DArchitects%2BDaughter;fillColor=#ffe6cc;" parent="1" vertex="1">
          <mxGeometry x="100" y="760" width="100" height="60" as="geometry" />
        </mxCell>
        <mxCell id="aLCnGwpAxpOMU-bBEDsF-9" value="&lt;font face=&quot;Comic Sans MS&quot;&gt;Invio 2 email con 2 template differenti&lt;/font&gt;" style="text;html=1;align=center;verticalAlign=middle;whiteSpace=wrap;rounded=1;fontFamily=Architects Daughter;fontSource=https%3A%2F%2Ffonts.googleapis.com%2Fcss%3Ffamily%3DArchitects%2BDaughter;fillColor=#ffe6cc;strokeColor=none;sketch=1;curveFitting=1;jiggle=2;" parent="1" vertex="1">
          <mxGeometry x="38" y="830" width="224" height="30" as="geometry" />
        </mxCell>
        <mxCell id="aLCnGwpAxpOMU-bBEDsF-11" value="&lt;font face=&quot;Comic Sans MS&quot;&gt;Qui è dove l&#39;utente potrà sottoscrivere ai nuovi prodotti presenti su Stripe.&lt;/font&gt;&lt;div&gt;&lt;font face=&quot;Comic Sans MS&quot;&gt;Si avvierà un flusso di checkout gestito da stripe&lt;/font&gt;&lt;/div&gt;" style="text;html=1;align=center;verticalAlign=middle;whiteSpace=wrap;rounded=1;fontFamily=Architects Daughter;fontSource=https%3A%2F%2Ffonts.googleapis.com%2Fcss%3Ffamily%3DArchitects%2BDaughter;fillColor=#b0e3e6;strokeColor=none;sketch=1;curveFitting=1;jiggle=2;" parent="1" vertex="1">
          <mxGeometry x="539.23" y="1000" width="246.53" height="80" as="geometry" />
        </mxCell>
        <mxCell id="aLCnGwpAxpOMU-bBEDsF-13" value="&lt;font face=&quot;Comic Sans MS&quot;&gt;Qui è dove l&#39;utente potrà cancellare la sottoscrizione ad un servizio se ha rispettato la durata minima prevista&lt;/font&gt;" style="text;html=1;align=center;verticalAlign=middle;whiteSpace=wrap;rounded=1;fontFamily=Architects Daughter;fontSource=https%3A%2F%2Ffonts.googleapis.com%2Fcss%3Ffamily%3DArchitects%2BDaughter;fillColor=#ffcccc;strokeColor=none;sketch=1;curveFitting=1;jiggle=2;" parent="1" vertex="1">
          <mxGeometry x="26.73" y="1010" width="246.53" height="60" as="geometry" />
        </mxCell>
        <mxCell id="aLCnGwpAxpOMU-bBEDsF-14" value="&lt;font face=&quot;Comic Sans MS&quot;&gt;ERRORE&lt;/font&gt;" style="rounded=1;whiteSpace=wrap;html=1;sketch=1;hachureGap=4;jiggle=2;curveFitting=1;fontFamily=Architects Daughter;fontSource=https%3A%2F%2Ffonts.googleapis.com%2Fcss%3Ffamily%3DArchitects%2BDaughter;fillColor=#f8cecc;strokeColor=#b85450;" parent="1" vertex="1">
          <mxGeometry x="390" y="940" width="120" height="60" as="geometry" />
        </mxCell>
        <mxCell id="dQJ4lJLzAlYak7dt3gc1-1" value="" style="shape=image;verticalLabelPosition=bottom;labelBackgroundColor=default;verticalAlign=top;aspect=fixed;imageAspect=0;image=data:image/png,iVBORw0KGgoAAAANSUhEUgAAB2IAAAIcCAYAAAAkKW4VAAAAAXNSR0IB2cksfwAAAAlwSFlzAAALEwAACxMBAJqcGAABKWlJREFUeJzs3Qe8VNW5xuF35hyKIIJ0RAQLYouKsWLDFjWW2DX2Eo1do7HdWGLUWKLYYok1ptjA3gtYsAJqrFgAqUqT3oQzM3d9s84BRMope/baM/N/fve7dGYF19l77f2ukhIAAAAAAAAAAAAAIFKp0A0AAAAAAAAAAAAAgFJDEAsAAAAAAAAAAAAAESOIBQAAAAAAAAAAAICIEcQCAAAAAAAAAAAAQMQIYgEAAAAAAAAAAAAgYgSxAAAAAAAAAAAAABAxglgAAAAAAAAAAAAAiBhBLAAAAAAAAAAAAABEjCAWAAAAAAAAAAAAACJGEAsAAAAAAAAAAAAAESOIBQAAAAAAAAAAAICIEcQCAAAAAAAAAAAAQMQIYgEAAAAAAAAAAAAgYgSxAAAAAAAAAAAAABAxglgAAAAAAAAAAAAAiBhBLAAAAAAAAAAAAABEjCAWAAAAAAAAAAAAACJGEAsAAAAAAAAAAAAAESOIBQAAAAAAAAAAAICIEcQCAAAAAAAAAAAAQMQIYgEAAAAAAAAAAAAgYgSxAAAAAAAAAAAAABAxglgAAAAAAAAAAAAAiBhBLAAAAAAAAAAAAABEjCAWAAAAAAAAAAAAACJGEAsAAAAAAAAAAAAAESOIBQAAAAAAAAAAAICIEcQCAAAAAAAAAAAAQMQIYgEAAAAAAAAAAAAgYgSxAAAAAAAAAAAAABAxglgAAAAAAAAAAAAAiBhBLAAAAAAAAAAAAABEjCAWAAAAAAAAAAAAACJGEAsAAAAAAAAAAAAAESOIBQAAAAAAAAAAAICIEcQCAAAAAAAAAAAAQMQIYgEAAAAAAAAAAAAgYgSxAAAAAAAAAAAAABAxglgAAAAAAAAAAAAAiBhBLAAAAAAAAAAAAABEjCAWAAAAAAAAAAAAACJGEAsAAAAAAAAAAAAAESOIBQAAAAAAAAAAAICIEcQCAAAAAAAAAAAAQMQIYgEAAAAAAAAAAAAgYgSxAAAAAAAAAAAAABAxglgAAAAAAAAAAAAAiBhBLAAAAAAAAAAAAABEjCAWAAAAAAAAAAAAACJGEAsAAAAAAAAAAAAAESOIBQAAAAAAAAAAAICIEcQCAAAAAAAAAAAAQMQIYgEAAAAAAAAAAAAgYgSxAAAAAAAAAAAAABAxglgAAAAAAAAAAAAAiBhBLAAAAAAAAAAAAABEjCAWAAAAAAAAAAAAACJGEAsAAAAAAAAAAAAAESOIBQAAAAAAAAAAAICIEcQCAAAAAAAAAAAAQMQIYgEAAAAAAAAAAAAgYgSxAAAAAAAAAAAAABAxglgAAAAAAAAAAAAAiBhBLAAAAAAAAAAAAABEjCAWAAAAAAAAAAAAACJGEAsAAAAAAAAAAAAAESOIBQAAAAAAAAAAAICIEcQCAAAAAAAAAAAAQMQIYgEAAAAAAAAAAAAgYgSxAAAAAAAAAAAAABAxglgAAAAAAAAAAAAAiBhBLAAAAAAAAAAAAABEjCAWAAAAAAAAAAAAACJGEAsAAAAAAAAAAAAAESOIBQAAAAAAAAAAAICIEcQCAAAAAAAAAAAAQMQIYgEAAAAAAAAAAAAgYgSxAAAAAAAAAAAAABAxglgAAAAAAAAAAAAAiBhBLAAAAAAAAAAAAABEjCAWAAAAAAAAAAAAACJGEAsAAAAAAAAAKCWVrnq6uszVXgX+rCmuXnZ1i6shrhYU+PMAAEWEIBYAAAAAAAAAUCoauTrK1YGufh3j577i6lJXg11lYvxcAECCEcQCAAAAAAAAAErF/q7udNU+wGe/7upcVx8G+GwAQAIRxAIAAAAAAAAASsEGrp501T1gG2x74uNcfRawDQCAhCCIBQAAAAAAAAAUuw1dPehq49ANcb5ytV7oRgAAwiOIBQAAAAAAAAAUu9tcnSh/RmxoWVf3ujopdEMAAGERxAIAAAAAAAAAitlRrq5XmHNhl+V7Vwe4ei90QwAA4RDEAgAAAACSptJVC1eNq3/cpvrnit0cV7PkV8nMdDU3bHMAACgJNmZ41NUeoRuyFBbC/j50IxJouqt58mOjmYHbAgAFRRALAAAAAEiKdq5Wkz/bbTNXHap//teuWoZqVIS+dvWRqwWuPnT1hauJrka6mhquWQAAFLVjXF3lqnPohqDW3nI1xtVQ+bHRePlx0oyQjQKAQiCIBQAAAACEtomr7Vxt4Kqnq23CNic2tjrWXkC+6eoV+ZeSs4O2CACA4tLR1c2uDgndENRbztXHrp501b/6+6ySBVAyCGIBAAAAAKFs6GofV7u52knl/Yz6lfzLx9tdfR64LQAAFIvfurrBVafQDUGD2VbFn7p61dX9rr4J2xwAiEY5P+QCAAAAAMJoJR++2laCvV01D9qa5LAVIW+7et7V1YHbAgBA0tlOGn1c7R66IYiU7Rjygatr5UPZBWGbAwANQxALAAAAAIiTnd92vqsDXbV31ShscxJpmqs3XP3R1bDAbQEAIIlsEtfv5c+GbRq4LSiMUfL/jV8K3RAAaAiCWAAAAABAXGzbwIdcbe2qSeC2JF3G1WuuTnY1PHBbAABImnVdPejql6EbgoKa7mov+R1DAKAoEcQCAAAAAOLQzNXrrrYI3I5i85yrM119K791MQAA5a6xqxNd/T10QxCb7V29FboRAFAfBLEAAAAAgEJbzdXjrrYK3ZAiZOFrX1cXyoexAACUOzvmwLar3TB0QxCbZ10dKb9CFgCKCkEsAAAAAKCQ1nd1h6sdQzekiFkYe6mrm1zNCtwWAABC+4OrPqEbgVjNdnW1/JnAAFBUCGIBAAAAAIWyqqv7XO3tqjJwW4rd966OddVf/vxYAADKUUf5LWrXDt0QxO4jVwe4Ghm4HQBQJwSxAAAAAIBCOd3VZa7ahm5IibBtGI9w9UPohgAAEIjtEHF56EYgCNuW+HpXV4ZuCADUBUEsAAAAAKAQNnL1D1e9QjekxJzk6u7QjQAAIABbBfuaqy6hG4Jg3nR1iqsvQjcEAGqLIBYAAAAAUAj/V13NQzekxIwVL6ABAOXpGld/dFURuiEIxsZBF7n6T+iGAEBtEcQCAAAAAKK2qas+rnYK3ZAStY2r90I3AgCAGK3v6mlX64RuCILKuLpK/ugLACgKBLEAAAAAgKjZ2bC3hm5ECbOz8f4cuhEAAMTIzga1LWmbhW4Igvurqz+FbgQA1BZBLAAAAAAgSrZi5WZXu4VuSAnLuUqHbgQAADGxnTb+6WqTwO1AMgx0dY6rIaEbAgC1QRALAAAAAIjSjvLndq0euiElzIJYOyd2XOiGAABQYE1dXezqTFctArcFyUAQC6CoEMQCAAAAAKJS6epwVw+EbkgZ+IOrm0I3AgCAAttSfqeNrUM3BIlBEAugqBDEAgAAAACi0trVpa7OCt2QMkAQCwAodc3lA7fzxGpYLEIQC6CoEMQCAAAAAKLS0dWNrg4L3ZAyQBALACh1m8uvhu0VuiFIFIJYAEWFIBYAAAAAEJX1XQ2QD2RRWASxAIBStrKrU1xd7mqlwG1BshDEAigqBLEAAAAAgKhs4up/oRtRJghiAQClbENX97vaInRDkDgEsQCKCkEsAAAAACAqBLHxIYgFAJSqpq5Okr/P8f4aSyKIBVBUuJEBAAAAAKJCEBsfglgAQKnq6upZVxuFbggSiSAWQFEhiAUAAAAARIUgNj4EsQCAUmTvq89ydWPohiCxCGIBFBWCWAAAAABAVAhi40MQCwAoRR3kg7buoRuCxCKIBVBUCGIBAAAAAFEhiI0PQSwAoBT9ydWVoRuBRCOIBVBUCGIBAAAAAFEhiI0PQSwAoNSsKR+ydQ7dECQaQSyAokIQCwAAAACICkFsfAhiAQCl5mpXF4ZuBBKPIBZAUSGIBQAAAABEhSA2PgSxAIBSsp6r5+VXxQLLQxALoKgQxAIAAAAAokIQGx+CWABAKbnB1amumoZuCBKPIBZAUSGIBQAAAABEJWgQe9m+aZ2/ZzqWzxoxKacL+mX1/Ce5WD5vKQhiAQClYmNXD7naIHRDGldKF+2V1pXPZJXJhm5N7R3TK63bj4pnDGT2uDGjgV8HGwMRxAIoKgSxAAAAAICoEMTGhyAWAFAKGrv6i6vTXK0cuC26eJ+0LnBjicP+UaXnPg7dmtojiAWA5CKIBQAAAABEhSA2PgSxAIBSsKWrW6u/Darzqim9+scKrdFaGvhNRofckdOMuaFbVTsEsQCQXASxAAAAAICoEMTGhyAWAFDsmrs6Tz5UaxG4LbrsNxU6feeUmjWWZs6Tzn6oSg8PCt2q2iGIBYDkIogFAAAAAESFIDY+BLEAgGJnq2BvdNUrdEPW75TSvceltUkX/7rczocd8GVWJz2Q1cQZgRtXCwSxAJBcBLEAAAAAgKgQxMaHIBYAUMzsPNgzXF3sqlngtujSfdI6fZe0mjdZ9HMTZ+R02dMZ/evtcO2qLYJYAEguglgAAAAAQFQIYuNDEAsAKGY7uHrEVcfQDdl0jZSuPyStbdb+6atyWxX74mdZnf1QVt9NC9S4WiKIBYDkIogFAAAAAESFIDY+BLEAgGLVxtU1rn4XuiHm3N3TumSftBpV/PzXvp+e0+VPZfTvd+NvV10QxAJAchHEAgAAAACiQhAbH4JYAECx2lh+vBD83fQmXdK69uC0tu++7N/z2AdZXfRYVuOmxteuuiKIBYDkCn6zAwAAAACUDILY+BDEAgCKkZ3Cep+rw0M3xFbAHr99Wn0OXf7YYfyMrP7vsaz6DfHbFScRQSwAJBdBLAAAAAAgKgSx8SGIBQAUo1+4+iR0I8x6nVK67ci0tl5rxa/IHxmc1aVPZjV2SgwNqweCWABILoJYAAAAAEBUCGLjQxALAChGz7n6dehGNK6Ujtw6rVuPqN24YdLMnM56KKPnPpGqMgVuXD0QxAJAchHEAgAAAACiQhAbH4JYAECx2U4+RAuuU8uUnji9Qr9YvfZ/pu+QjM7vm9PEGYVrV30RxAJAchHEAgAAAACiQhAbH4JYAECxecPVDqEbkUpJJ2yf1s2/rduYYdqcnE74Z0YvfyZlg93+l44gFgCSiyAWAAAAABAVgtj4EMQCAIrJvq4edNU8dEMq3FDhy6sqtVqruv/ZbybktN01Gc2aF327GoIgFgCSiyAWAAAAABAVgtj4EMQCAIqJrYbdXgl4H33mrmldfWD9xwuXPZXV9S9mI2xRwxHEAkByBb/xAQAAAABKBkFsfAhiAQDF4lBXN7rqFLohZtYdlQ16KW53/pVPqYqqOZEgiAWA5CKIBQAAAABEhSA2PgSxAIBisJKrvq72Ct0Qc9Felbp474b/PX97UfrzU8kJYwliASC5CGIBAAAAAFEhiI0PQSwAoBgc7upqV2uEbkiHVaR3/1SZ/7ahZs6TNv1zlcZPb/jfFQWCWABILoJYAAAAAEBUCGLjQxALAEi6dvL3qsNDN8Rcvl9ap++cVtNGDf+7FmSkf7yR1QV9k3FWLEEsACQXQSwAAAAAICoEsfEhiAUAJN3Brm5w1SV0Q9btmNJ/T6zQBqtF93d+O8n9D7wjo6HfBxsLLEQQCwDJRRALAAAAAIgKQWx8CGIBAEnWydUVrk4I3ZC2K0sX7lWho7dJqXmT6P7euQukewe68UDfTHR/aT0RxAJAchHEAgAAAACiQhAbH4JYAECS7eHq367ahm7IfptJV+5foTXbRv8q/OMxOZ35YFZDRoZdFUsQCwDJRRALAAAAAIgKQWx8CGIBAEnV3tVflYDVsO1a+LNhj9w6rYoCDBHmV0l/H5DVJU+EPSuWIBYAkosgFgAAAAAQFYLY+BDEAgCSanNX77mqCN2QX28s3XBoWmu0Ltz4YPC3fkzw/ohwq2IJYgEguQhiAQAAAABRIYiND0EsACCJVnZ1u6ujQjfEVsP+395pnbRD4ccGlz+dVZ+XsqoKtDCWIBYAkosgFgAAAAAQFYLY+BDEAgCSaGP5sUDQ985p9+m915NuPzKtLgVcDVtj8EjpnIcz+nBUmHEBQSwAJBdBLAAAAAAgKgSx8SGIBQAk0VOu9g3diNbNpUv3TenEHeLbHfmix7K6+42s5i6I7SMXIogFgOQiiAUAAAAARIUgNj4EsQCApNna1buhG5FKSb3Wkf71u7Q6rhJfOPnZuJyOvierr8bHPzYgiAWA5CKIBQAAAABEhSA2PgSxAICkedPV9qEb0aRSuvG3KR3Tq36rYUdMymqtdvUbT1zQL6e738jox6p6/fF6I4gFgOQiiAUAAAAARIUgNj4EsQCAJNnL1eOuGoduyObdpKfOqFCrZvV79X33m5l6b2k8eoq0wzVVmjSzXn+83ghiASC5CGJRSHYexGqL/XhlV71crVmgz3vH1adL/Nw3rt52Na9An4n6O3mJH68h3z9aRvw5s+X7xoglfv4+V/Mj/iwUznGumizxc1u52rQAn+Uem9R3iZ/7Ur4f0WeA0nWIq9aL/biVq23k709Re18/D6pe1s/vVUAxIoiND0FsabN70CaL/dje39jz0kYF+Kyh8luJLlji594owGehcH7paoslfs62id1kKb+3ob6Wfz76cbGfG+7qlQJ8FgpvHfnrS7Pl/J4e1b9neSFrO/n3gMHfNz/4e+k3m1bW+89f+0JWFzRgPHHpk1nd8FK23n++PghiUULsvrXNEj+3ufx9rhDGuXp2KT//D1fBOjlKS/AbI4qeBSE7VX+/m/xLzBoWmiw+ArD+ZqOg+k0pWzF7aMws8XOZ6p+3i6ZtCtLf1cfyF1j7/ncFagu8rq5+W/39PV39YrFfW2mJ32t9pZGivy7Zf3vrA0uOgOdp0c10mPysTWOBm/WNmOcuQv6h78zq79sLhJ0W+7Wm+nnfqKyuqFm/+HGJn6uqLvs16zvWRz53Nbr6+xMK0A4A0dtWi7ZKW09+0liNpY1bGi3xc1GpuaYsziZ61Ixj7Nsbqr9v45YXCtAGoFAIYuNDEFv8NnC1i6vmrnaQD81q2D1oybFuoca/Nc/Ni6ta4ufsZeR0VzNc3V6ANqB2LAyzPrOK/FjlvMV+zfpGoyV+f5x9xn5u8Ymr97uapEXvYj4qQDtQOxvK9xt75q6s/v7iAb29p1vR+5ia35N4W6wpvfrHSlU2YDiw39+r9OTp9f/SsW2JW58R797EBLEoMvb8/Yfq73eUvy51rv5xnPczY++Ml7bwYu5i37cJas9Uf98WbwwvUFtQoghisSJ2UbR+YjPe2rjaVf7CaNU2YLuiZC+K7KFgjqvr5S++9kBhI6Ylg10sUhOs14Tr9hLB+kcLVxcGbFeU7GwTm+U70tVD8v2h5oVEvFMbS0NNyGGDqS7y/cUGWyfpp6vQipU9APSvLlvtFvpasuTXaHxPZChnNomhpu+HsPi4ZWP57dG6y49bWgVqU5QelJ8A8pb8y4eqxSrEfcmuL/ZvbmOAAwJ8PpKpvavjQ304QSwSxDqiXSftvmTXSntOOl1+xZjdl7oFa1l0bBWtrZq1CYqvyk9mrbkv8SxdPzX9puYea89Mm1XXrwK2Kyo2Gd6el2xy/APVP66ZBEu/qZ+aiYP2zGf9xnYZO1X+fmzXmq7hmha/Cvcv0c/9r//Vhg3La1Y9o0pTb23Y33Hdi1ld/lR8Q3SCWCRM5WJlHdPuYbaitaf8talQoWrcrpHfjdHGQTYeWvwZndW0WIggFkuyAZw9INrDob3EPKH6x8dW/3pKpd1vbIQ0xtXz8kHKh66myr9QZsWbZ33D+oQF8bayqFd1WaBWykGP9Q0b4H3g6in5B8aJ8g+KkwO2K8lqXjjZA6ANsGw76k5atAKtVK8nNU9aNjvOBmL2gPCZ/JbHtopgVgxtsH/3bvIvbhb/GgUKye6Vtu37KFePufpe/oGkkOzYA1tFtKr8GOYU+RUithtDqV5jTM2M3XcWK7vm2PXF7k2Fnn5vu1rYNcV2u7B/c1tlUar/1igyBLEIzJ6h7Z5k9ybbQtjGYHZfsomH1jFL9VqZqy57frZw1o4H+kT+vvSD/KRnLJ31ixbVZeMam9xk/ca2ZLQV0qU8nqnpN7ba2nYdsvGMTZS3QH+6OGJqWazPWF+p6Td7uFpXfgcy6zul3GdWaBf3FfTQSZVqvuTBRnUwxT3BrHVBlab9vWE50YKMtPaFVfohjjcAIohFItgYyCaD2LWp5l2U3c/WVulfm+wZ3Z7Fa57PbSxku0LYPc2uAoyFylwpd37Unt2lLVxbXX71iM20tFUNqy3vD5URC1Lswvlg9bcWwI0J2qJ42ctW6x9ryQ/2D5LfNnaDkI1KiIflQ4Z+8jdbW6VU7qGsvXSyrUQsqLetjux6criWf9ZMubCtRW0wZi+ovpLvM4XYAntL+YfxI+VXAgIh2Bnt98hPXLGAMMpg0F6rWN+2e5NNCLL70W4qnZ066stWltiWf3ZvspeXNdeZ6RF/jgUKdl23UKFnxH830GAEsQjEtou1+5Jte7+zfCBSiLNci4ltYWzj3ufkj3+xZyWbpDUpZKMSxHYc6yA/mclWCNWsem0TslEJMEJ+Uvx78qGs9RfrP6wq8kGGTTy0PrPZYtU+ZKOSpEVT6e5jU/r1LyryK2Pr687Xszq/b1YzbmtYEJt1vfb217K6oG88q2IJYhGIPR+uKX8tsom6dtSCXZvInfx2xh9Wl93T7N2IPaPPXd4fQmniC6K82aB/DfnZKfYS017ebxq0Rcn3hfzFc4D8dgNWhV7tE4JtaWN9w2ZVWui6vvzKOgb4S2c3ULu52mwne2i0lwxDVF43Vttq2M6MthdO1mfsZdTaQVuUXBZIPSt/PbGBmK0WsD4TRX+xF3/2QvYXK/qNQExsAsJl8vfOhm41Zw9z3eTvTTbZwO5N3JeWzc6vsXuTnTFrWxmPjuDvtO2dj3F1qUpjS3mUIIJYxGgd+XuSPTfZji92X+oWskEJZ89KNmHIxsB2X/o0bHOCsPuo9Rd7XrLnJhuz7xK0Rck2Vn4s87T8jiv2AvuLoC2Kn60ss/d0dq35tfxE+d2DtijB9nX/Un0Oq1Cnlg173R1VEGvGTZX2viWjr8cXfqxAEIsY2ReZ7dpg9zS7RvWWzxZWCdimpLOFO7bYy+5j1m9tLFSIxRlIKILY8lQz47K3/GBu26CtKU4WvtqLTXuQtJv/syqdQNYeBO0lwk7yfaVH2OYUHdvK+lv5lY8W1L8of8ZsKbJtKe0aslv1t9vLbz2M2hsvv9219Rk7X8uCkx+X+yeWzYKpK+VXqJXyNuEoPq+4Ol9+4kFd2SpXu77YJAO71tjuDKtH17SyYNui2wSyQa6+dvWa/CqlurJtpo51dZ641iPByiyIfdnVf+Unu3wWqhFlxnZ5sRDNJjPbJER7XrJVIBUhG1VkbGmY3ZfsBaTdl2zl47dBW1R4dt/cTv6lte0aZP1npaAtKj7WR2y3D3vOtjGNbYFdn/FMsbDJhnvLX2fsmmPXmsZBW5RwbVaWbjg0pf16VqhRA6/INUHsZ1ektUbrho0p5i2Q7nsrq/MeLfyq2DILYm2ixm3y72PtXjI/VEPKjO2AZ8/ntvJ1R/kJaEyOrjvbQczOS7dJaS/JTzRCiSOILS/2gHiU/IvMbvIhSqkcjB2KjThsZqYFsvaC+RH5h4NiY9tQ2wOhbUltA317ULQtkbhG1J/1DZvtZIH9MFf/ln9oLAXWN37laj/5AZjN5rZHHfpL/Vl/sZcLH1WXXUuG1eHP29fsHa72Etd1JI/1b7v+bVeHP2Nhq/Xnmq2HrXhh2TA229Ymf9gM3L7ywc3QOvx5W31xg/yLQCCxyiyItZ0GbKvXkfIz7K1s7BnTaXRlxbYDPVr+3mTP1bZFfvOgLSp+NvnQ7ks25n3e1Zvy/XdByEZFzFYJ2dl4tmLaJjjbOxjGMw1j58baC2vrN3bNs+fsqI9hCMkm1dpxUJtWf9/6DM/ZtbD/ZtKVB1SoW5uG/3PVBLEWah65dcPHFJ9/J538r6w+HFXYMLbMglhjR8fZduZ2L7Ejw+y9bDG+ky0Gtqumrcq3+5lNjrYdHbg2NYx98fwgv0ueZQv/cvV6yAahsPiCKX3237i3q+Plg7auYpuAQrHZmBak2Hl4D8gPBpLOAjUL0+yst5pVRoQ40bOZeXZTtdXTtn1csW7DZSvTzpYffNkgzM7BahS0RaXJXiTYOdQ2Q876y5u1+DMXu7pA/hxnIKl+5+reFfweW2lk15lD5V882RZ+zP6Pnr20sJWytgr/Pq144odtQ/wnV6eL/x5IuDILYhdnzyJ25tQ0+Qldr4vt+qJiAexp8s/SHQK3pVTZPckmsdoqWVvh9GHY5jSYvaA+RX6XKXvmbhe2OSXL+ow9Z9v40ib9fRy2OQ1i4autLrOFE7bijOe6OmjfQrpi/7QO2zKtygj2J6gJYq90f+eZuzZ8TPFjlfQP93de9BhBbAGN06KtX1+s/hYNZ1sPHyF/fbJcwd4L8t44enaEmR0lZLs93OxqcNjmoBAIYkvb5q7+Tz6ItUEcgUnh2QjEZmjaxdPC2H/Kz1JPmqaufuPqDPkbqb34ZivTwrPZ3faS7DH5MxPHh21OnVwi/wLeJnI0DdyWcmGrXKy/2Dai1l+WteWgbVVlgW2vmNoF1JeFA6su59ftrEObUNBC/r6EwrMxi23r9R/5l5hjl/H7esuvul8vnmYB9VfGQezi5sh/fdt192/yYwlWiNSNTVI9WX7HINtyr0XY5pQNe16yHRzsTFDbhaHYtty2FdOXy+9AZn2GyUvxsF0A7KioJ+RfYH8Ztjl1YsGr9RnbccSes+kz9WBnw15zUFpd20Rz/9/6qow+HZvT1QdGE8SaD0bl8tsTvz+icGOGMg9ia9huC3PlF8e87upO+UnuqBu7Fv1FfmGX7QDSRBzDEAcLZO094HPy7wFL/eiGskIQW3rsjmuzL+1F5oFiEBeabZlzo6sH5Ve5Ff5QiGWzr3e7adoZsC8GbAcWsb5xoXzglgncliXV9Beb/W8v8JjIEZ4FJXY24yT9tL/81tX18luMA0lm98Bz5F+QGRuz2HXGjk2w60zrQO2CN9LVrfJbItnKpJoxi90Pjqz+eSDxCGKXylaI2HmyNqHiffmv76SNPZOgZvx7mKtrxdgqNHt+tvHvLfLP1Unts9ZntpQfjzMxMjzb5vGf8iurR8pPlk8a6zO29bCNf3cK3Jai166FdMk+aZ2wfXT3/o0vy2j4xGiDWHP1c1ld5SpXoF5JELtMtsvCK64u1aIxUFE0PGY14yDLFK4M3BZ4/3D1R/nJBUkdB6GWCGJLhwWutj2Andt4kfy5jUgGu7nbVrT2AGkzNKfE/PkWoNnWjlu7OtPVzmL1a5LYrO+rXd3jaoL8NsYh2aCrpfyD4e9d7SPOMUoSu57c7qqP/NY7NlvOwnwGySgG9tBrs2qvkF9db2MWexjmzNHksGuMnSFrLy9t22ILb2wlmE0cOiBgu4BaI4hdLmvo1/Lbv9qkGHsusZVkpXS+Yn3ZDlJ2HqM9S+8h3pUkhfVZG/PaOaAPya8MScoZyLZ7hx3tY0cv2EtS+kxyWL+x65w9Z38gP54JOSm+hj1X2wSPY+SPlqHPNFDa/QvuuoF0y+FpdWkdfRAb9ZhisLuCndc3674tTHckiF0he39SMzHNzuW0nUNsNX25B1y21bC9N7adNW0xxh5i++EksQuGTfayfmtHDIV+b4x64qZf/Oy/ob0g20F+8L+F+O+aVDY6uV9+y2J7ARLHtrT2otv28betJHYV54wkVc1LMQsobOu4UNtZ21ZIW7k61tXe8pM7kDzWX+yF6fny2+1YYH5w0BYBtWdb3x4rH+rt76pT0NZgWew6Y+es3S0/g9xW4xPEoigQxNZKTYM/cvW2/LEZtorMrtHTQjUqEJuAuLb8sS12FAfP0slkfdbGvbbTlIWyobeZtON97EW1BWq2bT/9Jpms37zg6hr5ba6nBmyL7VxnkxCPc7WB6DORaLuydPE+KZ24Q7Q7ptYEsb3XS+m5s6L9uy9+Iqs7X8tq7oJI/9o8gthas0bbfeRJV0NcfS6/MOKHkI0KxLYd3k7+2rS7fCCL5KmZmGaTeGzsbmP2eUFbhDrjxl/89pU/h8Sqc+C2oHbszJt/VZetOinEjF6buWQrjA6S31prnQJ8BqJn4Vo/+TMsbHZenLOcusqH9ae62izGz0X92dYkdh61befaLnBbgNqyVw42EalL6IagVuw6Y9t42Yof7g0oCgSx9WKrQSykeF3+a36Y/AueUl8h0l3+iAd7Xlo/cFtQe3Zu2iPyAdvkmD/bzrq3Z6b/k99BCMXBrmk24aTmHUycuslPdrbjObaM+bNLmq2G3X5d6d7j0urUMtr7fk0Q27GlNPyaaBcGfjI2pxP/mdVn46IfOxDE1psFW4Plx0IWzNoYqNRDWesoPbTovfEGYZuDWrIMYaD8pDQbB5XbBMqiRhBbvCx0tVWOJ4qXmcXIXmz+T/4B8mH5mVdRsa2IbYWcrTTaOcK/F/GpWZlgK5Hi2HrLzqU5WX5lfccYPg8AAKAgCGIb7Ev5CYEWXLwqv2JkbNAWRc9We2wjv5rRJjZzDEfxsVUg97p63NWAGD7PVk5biGarYI8V59oXI9va0UL8++S3LS50iN9Cfse6I+V3FWlZ4M8rO82bSNcdnNKx20a7YtWC0gNvy+i7aSpIEGsueiyru9+IflUsQWwk7J5i55LbO9sX5XdjKEX23tjGQL8O3RDUi/XR/8iPg2xFd6lPniwJBLHFqWa2im2fxJ7txc22oLWtMP7rapD8SqGGsLOBbUste0BkW9niZmd22YqEy10NLeDnnCI/ANukgJ8BAAAQC4LYSNkW5RbCWjhrAYatFJkUtEUNZ2GIbb9nE5pt16DGYZuDBrBnZ1vdaJNX7fzYKQX6HAvUjpDfOciet5sU6HNQeHY+pJ0zbO9fblPhwlg7PuwEV4fK9xkmexTAVmtJ/U6tUOvm0b7afvB9d2/vm9GU2YULYm38sOeNGY2NeLNsgthI2X8dWyVrx7TY+Odp+R0Oi537ysnv6mAhLDurFTdbDWuTJ21XxYcCtwW1QBBbXGwwd4aro+S3iIt22hdCsa3AbHvR09Ww2bznyg/0t4iiUUgMO7vrr/JbFkfJtiK20H4f+WsLAABA0SOILQhbfThKPuiy55WX5CeR/hiyUfVgWxHbJMfe4ozyUjLR1RuurnD1acR/t+0+Zs9itoMQR0GVDtty1PqMnR07OOK/256t+8iftcjk+AL65++kg3/Z8JB0wgzplS+ymjg9pQ9G5TT0+5yGu/t7VUZq7P76rddOqdVKKf2ya0odW+XUu0daq6/a8Pb/6fGcbnk1o2yEQwiC2IKYIz/+GenqA1fvyu9uWIxsJzzLFLaW35oYpcEyBdtt84LQDcHyEcQWD5tFZw+NNmOlWeC2oDDsAdK2/zqijn+um6vfVZcN+vm6Lj22cvof8teAKPRy9RdX24tVAAAAoIQQxBacvZC0ozPsqJVb5c+V/SBkg2qpg/wWbjvKH+WC0mKrY9+RD8Cel1/52FC/kt/+2J6xeWYqPdZH3nd1kqI7N9aer221rV1v6DMFtHk36eVzK9Wkjjns8ElZvf2Nu4n9KP29v793V2Vzmu1+bMGrbRWcyf78z1W4YcVK7s5RWSE1b2zf+tdup++Syv/8dt2l7h3qNvaYMU/a/+9Vem943f43LA9BbMHZxDQbB33n6k35QPbNoC2qHZtIVLMbiE0w4r1x6bFxua3etmzgy8BtwTLwhVccNpS/uG8YuiEoOBvB2FbFFpL9rxa/326gN8qfOcLXc2mzLSf+5eom+e2U6mtv+Zdm3SJoEwAAQKIQxMbK/ofPl18hayFn37DNWaZd5I/84Hmp9Fmf3E9+C8mGsEDNVkzSZ0qf9ZnD5d+5NeRi/kdX14k+E4unz3QX9vWXn8L+WCX1eSmrKbNzeuWLnIZNrP6F3E++aZDUEt9Zs62024YptVs5pTN2TWvlFWxkPvCbKu3RJ4KGVIs7iD2/b0b3DsxpXsRn3RYR60bD5MdBtnvC92Gbs1QdXV0lH8RyfSp91h/PcfVM6Ibg5/gCTDa7ZduA0L6ANgrcFsTLZmTaLBbbJmdps3ltFvc28tsv7RBjuxCeBfUXuvrG1VLmai6TraS3Fwq3y58JAQAAUHLiDGKnz83phpcyrmL5uGJgLyAtvLKdXIa6mi6/eiQUW5G2h6unArYBYRzk6jXV/dzYVvJnztpEZ7ZtLC+HyT9r12XLdUsC7Qzhm6v/PKvtY9BrHenhkytV6b5Cf1wgzc9I46dnNfCbnCZMT+mhQVlNTshJnqmUtH13aZMuabVtkXPfT6nzqmk1s1W11VeYQ+6s0sCvo/m8uIPYRwfndM7DGU2dE9tHJt0Q+S3P35M/Yzbkv4wdZ9jT1ZXyW6WjfNi0E1vgZbt6hByHYwkEscllg7mj5Veu8d+pPNk2OTZr6S35G3gNG+z/Wn4lLIFa+bEZdzZb10J4226iNmFsG1enuDrG1TqFaxoAAEBYcQax5j/vZXXmf7P5lTdYyMarNk61F0AWU9t5jHGvErFJiHaszx3y4RrKi31FvujqDPlz/WrDtm60FU2HuGpamGYhwey52rbtfFR++/UVsYUT27k6VX7CB0eIxeQ3PaWWK6VUlUlpyEhp2KRs/q6Ty0WzyrVQ7MVuKuW/s+v6KXVs6V/1zpmfVb8h0XxG3EHs8Ikp7XFjlb6bluR/+djZtcQmotn7/Ofkxz/j5bfQj4t1Ljvb3MZA68b4uUgO2z77b/L3NOt/dVnIgwIh4EsmO/bdVkNeLT+DBeVrkvzN+zYtms27v6sbXK0ZqlEIriaMtRlOX2r5zxvt5LdJOk9c8wEAQImLO4h9b0RW5z+a1QejYvvIYmJj1M/lV4g8IX+W7LgYPre7qz3lx7+rx/B5SCZb2fisq0vkV2gvi4Wu1mfOcnWoq5UL3zQklIUnf5Lfan36cn6fhbB23vTlrraOoV1ArcQdxJr9/57Ry58TxC6F/aPYopr+8jtz2Dnmo11lYvhsO+P87/L3NpQv64N2P7N3x8MCtwXipXwS2cq1k12d72qVwG1BMkyWv4HaCti95Le5WCNoi5AUj8lvU7ysG6qdBXGRqzNjaxEAAEBAcQexM+fl1OflrG4bkNPsumxoWX5sVaytDLEVsnZe66QCfY6t/LAg5UBXzQv0GSgec+XPSbPdhD5byq9boLabq7NdbSm/MxnK2wT5dy7/dDVtKb9uW573FiEsEihEEPvEhxkddU8uvyIZy2Rbxb4pv1ODjYFGF/CzWLyDJdlCngtcMW00MILYZLEQ9jT57XPaBm4LksVeXNgN22ZdMqsbi3tB/poxfImfX83Vxa5OkH9YBAAAKHlxB7Hm3eFZnfdoVh8V8rVa6bAVsY+7elB+pWyUmzp3kF8F+3uxqhGL2Bl9tjL2z/rpylg7z3NX+eOAesbfLCSYXaeu18/DWNuxbgdX17raIv5mAcsXIoidNDOn0/6T1XOfkMTWgk30GCT/Hs/uS2Mi/vvtrGqbJMJ2xFiS9Tfb+WNE6IaUM4LY5Ggtf7aErVxrF7gtAIqLbXViZ8B+s9jP2Sze08VKAAAAUEZCBLFzF+R0xdNZ3TOQVbG1ZOcv2ougAa7ud/VJBH+nbS97uPwYmOdpLMlWxj4vf2TLyOqf6yT/HLV+oDYh2ex8vZqVsTOrf24bV3e52ihQm4DlChHEmuGTctr40jh23C0ZFsi+Lb9y9Z2I/s7fym/F38NV/J0AxWBZC3kQE4LYZLAtiC1EsS1GWwVuC4DiYyNe2+bEZv9bGGsDMDtjumvIRgEAAMQtRBBrJs/O6MC/5zRkZOwfXcwsHBvv6jJX/27A32Or1GwrvttctY+gXShNNk3CtoQ8Rv7cvkddHRS0RUg625nMtjr/l6sN5Ffzc0wUEitUEGtu7V+lC/sF+ehitUB+DPRfV33UsCMb7F5mW/DbSlhCWCyL7ULzqvyiHcLYAAhiw1vJ1Uny255UBm4LgOJl+8C8Jj/T27Y47yau8QAAoMyECmLNB6MyOui2nCbOXPHvxU/McPWw/IvIr+rx5/dw9ZQ4jgMrlnU10NU8+bNheWGNFbGw5HZXx4szhJFwIYPYCTNy+s2tGX06NsjHFzNbWPG5q+NcfViPP7+Xq5tdrSXeAWLFbLt9217/mtANKUd8gYa3masPQjcCAAAAAIpdyCDW3PdWVuc8nNUCduirD3sR+X/yqxYtKKvNgXO/cvVSIRsFAEAxCBnEmq/G53TiAxn9b7SUyQZrRjGzlYoPuZpSi99rmc6G8pPYditko1BybPX1la7udDU/cFvKCkFsWHbBtJm/nC8BAAAAAA0UOog1Zz5YpWc+TmnijNrkiFjC9/LPyHfIb5u2vFe53eS3DN2+8M0CACDZQgexZsjInC56LKPB34pJafXzkatDXY1zNWcZv8fynM6uLpAPb4G6sm2xz5U/pqEqcFvKBkFsOG1cvSEfxgIAAAAAGigJQWxOGT3wdoXuHVilbyZIM+cFbU4xsgTbAlbbDnSwlr4ytkv1r+8pf0YsAABlLQlBrN2y3xqW1U0vS29+ndPsHwM3pzgNcXWvqwflj29YUiNXl8qfYU22g/p6xtWfXX0sv0U2Cowv1jDau/qjq/NCNyQJttpqK6XTdRsoTJ8+XSNHjtScOcuaHIRiZ32iW7du6tChQ53+3KRJk/J9o6qKCT3lJpVKaeutt67zn/vqq680ZUptdn4BUO46tZTWaFO34fPMeTmN+kG8hABikoQg1izISp+MyerxD3J6zNUYhhp1ZeHrW/Jh68NL/ForVxe5OkVlfmbjqs2lru6+1KSy9n/GViiN+iGnH2YVrl1IrlbNfJ9p2qj2f6Yq6/vMZM6/BhItGUGs3cBz+vJ76blPcnrty5wGfp1jq+K6m+Dqr/IT06Yt8WtHVv9al7gblTRrtLFn9LrHW5+Py2kWz+c21v6nfD71Q9imlAeC2DBOkz8UeeXQDSkkC1hbt26d/37Tpk3Vu3fvpf6+LbbYos5B7IwZMzRq1KifBbFTp07V+++/v/DHgwcP1uTJk+vWcMRizz33XPj9NddcUz169PjJr1uf6Nq1q9q3b1+nv9f+e1vfWDKIHTFihL7++uuFP37llVcIa4vIWmuttbCPNGvWTOuvv77atWv3k99jQeyWW25Z57/b+oVdOxZngf4HHyw6vvvdd9/VtGlLjn0BlJJe66S0chP//RZNpa3X/vkwuWNL97Tbum7D51nzpNFTfj4b3FbIvTfcL/Kyl+FfjmfGOBCFpASxNezr++1hOb3yeU5P/y+ryYRfdWVb89mqj/sW+7l9Xd3gap0gLYrJuh1T6tZm0Y932/Dn959Vm/kJQo3rGMSO/iGnKbN//mvWT82c+f6sv0kEb0Vl7XYprb3Y4/OuG6TcM9JPf0+rldxYpo5BbCbjxzJLu369+kVOueo16+OnS5+MZUv2YtN2ZamHu940b7Lo5+z7NjaOw9gpcvfHnL6dXJi+s36nlI7fPp7/LbYLht3r7WshhKQEsYv7bFxOb3+T0y39sxrJ69m6sjFQP1f3y69aNGu5GuhqtVCNikPXNv66ZFZqbN+X2rX4+ddxl9b2jF73r++h3/08iLUJ1F+Nl6ZWj49sApL9uMTZV+Vt8mfG8pK8wAhi49fL1c2uNnOVrLtjPVn4sdlmm6l79+5ae+2188GqWWONNfKBiamsrMz/WqHNnTtXo0ePXvjjMWPGaPZsfwV9+GE/kXrs2LF66623Ct4WLLLRRhvly1a4Wl9p3Lix1ltvvYW/boH9kqFa1GzFo4VrNSx8y2az+XDtxRdf1A8//KCPPvqI4D4BunTpom233VadOnVSz549tcoqq+T7SE0o36hRo/z3V165cHNZZs2apXHjxi38sYX7dn3J5XJ65JFH8tcV6y92PQFQXCorpE27SGu2TeUf7n6xuh8Od22rhSuK7NuudVz5Wlc/VvmHOzPHPQROnCnNdz/39YSMPhmT0kz3cy9+ystMoK6SFsTWmDBD+uK7nD4Zm9HHo1N6ZDBf33VgD3g3yb+M7OrqCvnn6sYhGxWl9TpJv+icUqtmqXx4Ztq18Ctea6zbofCvb76e4PulhbWTXJ+1l5TjpmX18Rh/r+o7hH6bFOt2kDbpYuFZSnv+wveNNiv7qtG9/c+D2Kh9MyG3cO9wm2T2ffXcVZuA8v20XH6i2ac8MiXGAZulVJG2a0tKu6zvO4eFrna9WXxCh32/W4HHwjU+HJXTBf2yemdYYa4ve2yU0mOnxbOD/YAv3f+Wvtn8/T6EJAaxNey/74hJOT3+Yc7dU3LBwuoiNNfVy/I7gQx19bz8sQwlo1Mrabt1UurQ0t/XVmmayo9/2lXvedKown9/5SaFfz6fNDOXn4xmps7xYyHzwyy/utsmJP3P9d+pS5nMVsRsZcqv5LfERgERxMZrdVd9XO0nv5970bJQdZtttllYLVq0yIciK620klq2bBm6eUs1fryfxjJv3rx8KGcr3J588km98847bHEcMVvNevrpp+f7xrrrrpvvH1bWP+zbuq6ALiRbFWvh6/z58/Mrrb/88st836gpFJ6F9DXXkk022STfT1ZddVU1adIk319sIkeS2LUkk8nkt0i3ldY1fcWuJT/+yHI2IIm6d5C2XKtCJ/fOqMKNfluslFKzxhVq3tivfk2SOfNzmjEvpUzWViJl8qvp3huR1qODcho2sfxegNtqr2fPjuezRk5O6eZXUxo0ovT2TjtymwqdslM8R/8MmyAdc28sH7VUSQ1ia9jX+Ez3NT5mSpVe+1L61zvSiEkr/nNlzi5+9pLI/WvJ1uQdqCJ/nt549bQ2XzOlX22YVZfWuXwQ0qJppRqlfxqkJYG9mJwxT/ltJcdPr8rv3vDwoAoNd/ekN74qvetlUrVtIW21VtpVTlu7areKtIrrMxaqtUtYnzH2Atv6ziz3/2x3kCmzU3riw3R+FdK7w+k3cWjdfFGfsVplJanDKhX5xRQWbLRpvuK/Iw4vf57TuY9k8yFdIRDEJodN8pkwM6uZc7N68+u0nvk4p/eHLwq+sEz2oqm/K5vWcoyrJsv/7clnzya2G9VRvTJqUmnBa4X7NufGQilVJrALW9/9YbZNnHb9d142v/X2+yMqXGU0ZGTo1kVimKvuoRtR6ghi43WC/OzdTqEbUh9t2rTRzjvvrOOPPz5/DmPjRo3VqHGj/Oq0YrRgwYJ8KGvfvvfee3r11Vd14403hm5W0bJtY61/XHDBBflQvnmz5vn+UVERz4A3KhawLZi/QPMXzM+HagMGDNATTzyRXwWJ6NiqV+svZ5xxhtZZZ52F15Okha4rYquqa/qLhfk33HCD+vfvr0GDBoVuWiwsRH/99ddj+7xLLrlEd9xxR2yfF5eLL75YZ58dT9Jkkwfs815++eVYPi+kDTv7bch698jmz3Zt5O5HzRoX39A3m/MPfvPc/7Nw9p6BFXr584zeHRa6ZfGw2c8jr4vn3vDl935Fhm2zWGrO3T2tv+wXz1sN25Zym6viCX2XJulB7OLmV+U0x31tD/42rQfekd74MrvU7WKxkHUsS3CK8gHUXjies3uFduyR0Qarpd19Ka3G7lGpoji660K2De28Kjs3NKcFVRl3zUzr0cE5vf5VTnN5mR4p6xu9e6T0m55pHfDLjBpVWp9J5wP7Qq90jZqNZyyYrcpkNWxi1vWXtP7e31bFld49N7Q//KpSnVfN6bAtq/tMOp0PXpPaZ+4dmNXZD2XzfaQQCGKTKf984+4htiL69S8rdN0L4caORcL+gaxjFddLs8XstF5ah22Vc+OgnNo0r8xfk1YqyhGdn5xmfXh+xk82+tuLFXrjq0yxb2X8b1dHh25EKUvobbjk2L+zbZ1k59hsFbgttWYBmq1Is1Dtmmuu0XHHHRe6SQVn29Ned911+RfUQ4cOzQcruRwPBktjAbxtMWxbUV999dX5cL6U2SpIC9huv/32/Ja0FuLTN2rPriXNmzfX7rvvrsMPP1x777136CYV1HfffZcPZW2Cx7Bhw/L9xULbUrPpppvmvx7icu6556pPnz6xfV5c/vrXv+qiiy6K5bO++eYbnXPOOXr22Wdj+bw42RZqdn7Mn/ZKq/d6OW24WnFNBKor2/7v0iezevC9bPVDoFSKtyWC2Gj8cfe0Lo8piP10bE5bE8TWy1fjM3rty5SufSGbf6ljX9sLeC9ZlNIpH6LZven3O6a1xy+y2nadon13Wmu3vJrVX5/LqirjQ7dCBSulylYBWWC2WTdpl/XTuqBIr2V1MWRkRgOGpnTDS9n8WMb6Dv2m9uw6Y+f9bry6u9fvYaFjcV1nfpid07XPZ3TbgMJ9BkFscbCv++c/rVKfl5TfztzGP1XZ0ny+KRd23I/t8nHQ5tLJvdPq2qY4+2Zd2MQCe0Z/b3guP2mtyPqvbRhu216zPWSBEMTGww7QtpWwx4duSG1YYNK2bVttt912OvPMM9WrV6/QTYqdnSVqKyD79eun4cOH6/vvv8+vlITyZ7l27txZu+66q0466aT82cDl5qmnnsoH9hbOWrG19bLZFsN21qttVW3nvm688cahmxQ7O5Pa+ssHH3yQv5aUUoBPEBsNgtj6sxfctq1ay2YpHd0rpbN2Lf2HuyVNmZ3Tkx9l1W+I8ttE2nlLVSU074MgNhoEscXHwgkLZf/7np1HlVsYzCLZLBRp1UzaqLO0w7ppd29Ka7VWoVsVL7sHDRia0X1vSZ+PU37FI9tOLp+9rO7Y0raqTmnfnjlts1ZaKxXhLh4NMX2uXxk58OusPhqt/Pl7pTSeiVrjfJ+Rdl4vrT/8KqV12hdnf7Gtqs9+OKu3vinc2IsgtvjY2dKPDMrq3eHSCPd8Y9eHWZwCVTRsW3S7p529W1pHbF2c16aG6j80pz4vZzXqh5wmTFexjIOqXPV1dYp8KIuIledXQ7zsbm+zCf4hH8gmlgWwtl2oBa+2Ym3HHXdU06YJOzgtAFvRZiHKhx9+mF8xW65WW201bbDBBjryyCN1zDHHhG5OInz66ae6//778yuoP//889DNSRSbzGH95YADDtCJJ56oZs2ahW5ScC+88ILuvvtuffLJJ/kJHqWAIDYaBLH102EVqfd60sFbpNR73fJ7Ybk0A7/O6b63MvpodErfTCiNMJEgNhoEscXLJlfYZIuPRmf1+biUxk3LafJMVowlka1K22Fdad+e0t4bV7jrF/elr9296P63snrjK3+NtVWyWMSC+/U6pdRrbem47dLapAt9ZuqcnF7+PKsnPszpw1HS99PtOJjQrUoO28pzfddntlzT95nNuxV3n3nps5wOuK2wYwaC2OL2mvs3fWuYrZyXJs5IaeRkBkBJ1X6VlLun5XTQ5mkdt206vztIubPdbv79bk79v7DjW0K3plamuLrSFWc3FgBfEoXXztV1ro4N3I7lat26tQ488MD8dqE77LCDWrUqs2m7K2Bn6j399NN66aWXNGTIEE2ePDl0k2JjW1Pb6uhDDj5EBxx4gFq2bBm6SYliZwy//fbbuvPOO/Pfjh1bHHfWQrHJG+utt54OOuggHXvssfnV01jEVsPateTJJ5/M9xcLxYoZQWw0CGLrxrYf3mbtlPbrKe3/y5RaN7PhLEPaGjll8+f1PflhlZ79RPnAppgRxEaDILa45fJHguX0yZiUBo/M5vvq+yPSGjs1q4kzQrcOZvNuae20XlYn7mgrYFNKcV9ayPqvrXC8582sXhua0+gpoVuUDD3XSGvb7ln9pmelG9dkXY8pretWQ1ifmTgjp/5Ds/r3uykN/MpfBcvdxl3S6uX6yn6bVWq77sXfZ+YukO4bmNX5fQubtBPEFj97vhk2UfpsXFqvfF6lsVNSGvq99N00rgxJ0Mw9n2+xpnTAL9P5Z/Q2K6cZBS0mm8vqg1E53flaTu8OT+VXySbca/I51ujA7Sg5fF0Ult39dnH1X/lANpEsfN1///2177775lexYeksQLEX2AMGDNCjjz6q1157LXSTCspWSG+22Wbaa6+9dPDBB2vd7utyxVgO28768ccf14MPPpgP68txu2Lbhvjkk0/Wbrvtlu87hPbLNnv27Py1xLY/t2B22rRpoZtULwSx0SCIrb3uHaR9N03p8K3S6tFJvOhejh+rsnrwfenlz7J6e5j0w6zQLaofgthoEMSWjppQ9r3haQ2bWLONZyrYS99yZ9sO77K+dOx2ldpqreIPRgppwgx7AZlz19isXvlcGjs1dIvCsO1kd1rP9ZltK/NBLH1m2XyIn9KbX2V15+tZjSnTEL+97QLTQzq6V6V6r1c6fWbSTLlxV0aPDCrs/YsgtnTYv+qPC2y711T+HFnbLeSbidLr7t99NlsXx66ywp9PbV9j+22W0garMRFteabNyeV3COk7xI2DvvDHjiSUbQf6F1e3hG5IqeGro7BWcnWfq8NCN2Rp7GzPww47TEcccYR69OgRujlFw1ZADh06VHfddVc+dJs6tfSeIG1V4wknnKDjjjsu3zdsVSxWzMJXCzmuuuqqfLj244/lMxK0QO6KK67Ir55mRX3tjRs3Lr9l8U033VSU21sTxEaDILZ29t4kpTN2SWvDztKqzRjC1oadrTb6h5xe+DSnu97IadjE4gtqCGKjQRBbmjJZH26N+sG2O8vmX0o+90mOVbIx2XLNlE7dOaXtuqfUqSX3pdqylY7vjsjptv45vT2s9K63y9Ozq+szO6W0Y49U9cpp1NYLn2Z1a397iV1efWbXDXy4toW73nReNVVSW32OmJTTXjdlCr5KniC2dM2al9N4N+ax1bGfjs3o0cHueXdC6FaVB9sm/eheKR2/XVo9OkotmpbQxanAbHvtV77Iqs/LOfesHro1y/Scqz+4Ku5t/BKGr5LC2kG+4yYuxbIQ1s4q7Nmzp1ZZZZXQzSlKtj3xwIED9ac//SkfzJaSe+65R/vss4/at28fuilFafTo0fkV07///e/LIozdeOON9cgjj+S3JEbdzZs3L7/9+aWXXpoP8G2yR7EgiI0GQeyKnb+nrRypUNc2DF3rY5a7Fb03PKtLn8zq4zGhW1M3BLHRIIgtffOrpOlzc/p+mvS/MRkN/jat+97iYMVC2XdTNy5xX1cbr55W43guUSWlyl0iPvsup5tfzejRQaFbU3itm0v7bGovrdP5LYmb0GfqzCaeDHX36dsGZPSvd0K3pvBariQds21KJ/dOq3OrVH7lWakZ6q4Bm19R+PECQWx5mDkvl99pYeRk6b/vZTXo25zGld66mcS4+XB3X9ukUh2IFOpl3oJcfrvtix7z5x8nkO2nZUHsPaEbUkp4m1VYL7jaI3QjlnTaaafprLPO0lprraWKihIczcWoqqoqf87j4Ycfru+++y50cxrMgvknnnhCnTp1UuPGjUM3p6hZmGZBxwEHHBC6KQV17bXX6sgjj9Rqq60WuilFz7YntpWxl19+eeim1BpBbDQIYpfv3N2lM3etUNuVGbY2hL3AnDYnowv65dRviLtPhcvJ6oQgNhoEseXFvr7nVUlTZlVp4DcpPfVRSs9/QigbhVWbSQdtoXw4sm6HdEmtTotbNmcThbK6/62s+rwkTS7SLfRXZJWVrL9I57jrcPPG9JmGyLk+M2pKNn/e8IPv2Y4AoVtUGO1bpHTxvikdtqXyfaYU2X3qz09lddMrhb83EcSWl0zOr5SdV5XR60PTenRITgO/ZuviqNjuVPcfL3VvX8lEtAhMdc/n171QoVterQrdlKV5ytV5YlVsZBgCFo6thn0jdCMWZ6HrscceqyuvvFIdO3YM3ZySks1m82fsPv/88/mzZItNOp1eGMJ26dIldHNKim07a8HaoEGDirJvLIv1GfvfZZM6WrRoEbo5pcN1kVf7v6o999wzP9Ej6Qhio0EQu3Rd20jXHmxbEldw1kyEssroqLtzeuZ/PpxNOoLYaBDEljc7Z3HQiJzuHSj1H5rNn8tnIVgJDU1j0aKpdOrO0iX7pEvmjMYkyLk70w0vZXXTy/ZCMnRromWTyP56YFqHb52jz0TI+swdr2V17fOlF+Db6umnzkyp5xoVJT36tV0czuvrQ/VCI4gtX7l8ZfIDnlv6V+rlz6r0zjD/DJRlDFQndj3aoLP0zxPct51IYKNkXfGJD6t07L2Jez63ph3k6vHQDSkVpXxfD+06+VkDwaVSKa2xxhr5bVKPPvpode7cOXSTStbBBx+sZ555pqi2o7WtqQ855JD8tqiEsIUxatQoHX/88fmtrItp29llsTOD//CHP+Rr1VVXDd2ckmOBvW1R/Lvf/S6/BXqSEcRGgyD2p2ylyJrt/IvugzfnRUKh3NrfzqXJJv4sSYLYaBDEYnH9huT08hdZvTtMmjI7pznz/UtxLNsqTaWTeqd0+W/YUapQrnkhkz83dsrs0C2JxuruManfqSn9YnX6TKHc/KpfUZn0sUxtdWrl+8ymXUq/z9ixGR3OjufGQxCLxdmEn7+9mNVTH2Xz459pcxgDrUil61KbrCFdf0iFtlyTKKkQrA/2HVLlnkVdH03WOMjyratdTQvdkFLAV09h2A7pY6q/Dc6CNgvZ7AU2CmvWrFn5rZ8fe+wxzZ6drCvn0rRp00ZnnHFGvlq3bh26OSXNwqpTTjlF77//fuimNEirVq108skn54Ocdu3ahW5OybLJHLZC/cILL8wH+UlFEBsNgtif6thSumL/tA7fipcIhWSzwF/5IqNT/53T+OmhW7NsBLHRIIjF0tg5nf9+N6sPRuXcfzdp7FQfgvFC8qfsrMbf9065vlX64Uho176Q0S2v5vIvxouZbd1433EpbdSZPlNoFsRe/nS26K9b63eS/nFMSr/sWh595vPvctoyhvNhDUEslsYmon3oxj9PfiR9Ni6rH2ZJIyaFblXyNHJfOpt1VX4MtGMPYqRCmjM/p4cHZXX1czl9l5zYc6SrX7tK5km2RYavoMI4ytVdrpqGbohtH2rnN9p2xKx2jMf48eN13nnn6T//+U/opiyXnQFrZ9v+7W9/U9u2bUM3p+RZSP/QQw/p6quv1rfffhu6OfXSrFkzHXXUUfrLX/6i9u3bh25OyZszZ4769eunK664QsOGDQvdnKUiiI0GQewiTSqlE3dM6dqDyuMlVGi2GuHO1/2WkDPmhm7N0hHERoMgFisy6gfpta8y+mJcTh+NTmnk5ES9BArqxB2lmw5jG7649HmlSre8ovwW2sVonfYp3XVMSlutxXUoLkfcVZUPU4qVhRxXH5hSr3UqyuYMYTsf1lYlxoEgFisyZqr9N0vpyQ8zGufGPiMnpzR8Yuk9D9RVpfuy+aW7Pl28d1o7r0+/isPMeTk99L7tXJXTmCmhW7PQEa4edVXkU57CK5NbfOxecPUrV8GvUieccIL+/Oc/a/XVVw/dlLIyZMgQnXrqqRo8eHDopixVZWWltt9++3ygtt1224VuTtmYMWOGHn744XzokuRVjktjZ0zvsMMOuvXWW7XhhhuGbk7ZsADfwtirrroqkWEsQWw0CGIXOXkn6bzd0+rYMvgQqmx8Nz2nPi9l9OB70vQEhrEEsdEgiEVt5KpPU/t4TNp9PVTlV4YM+DKtEROzmlAiW3/W1d6b+F0a1u1An4pLzfmfN7ykRO/YsDRt3T3rz7+p0OFbpfKTyxCPMVOyuvTJrB5N5uuX5dpqLenifVLavntFfuVZudjthozeGRbPeIsgFrWVy2U1YrI09PuU3h2W0fBJKQ3+1u5FpfdssCI2KWSzbnZPS6l3j7RSREixmT43pyueyeqfb+c0d37o1uTZy6PDXRXpFLnk4KsoepZ4vuqqR+iGrLPOOvkzKTt27Bi6KWVn3rx5GjBggC677LJ8KJs0nTp10lNPPaUtttgidFPKjoWx559/vh544IF8PykWm2++uW655RZts802oZtSdiyMveSSS3TXXXflV8kmCUFsNAhive4dpFfOrVC7FgxP42bbkV78RFZ9ByfvJQNBbDQIYlFX+VDW/d//xqQ0fFJWb32T1cCvUvpyfOl9fSyLnYPW5zA7rzGtFLemWM1dkNNdb+T0f4/Fs2IuChbCnr5zWifukFarZqFbU36GTcxq31uy+dX9xaJ1c+kv+6V0+NYVZRXc23+rTS6L72ubIBb1Yfeh76dJX42XPhmb1bMf244hFtaGblk8mjaSbjtSOnTLCkLYAIa659K/PJ3Vi5/lkrD1vt1Z13WVnDW6RYqvpOjt6+oOV6uFbMS6666bf2m/4447hmxGWbMzHm3b3+uvv17TpydnKq9tV33PPffouOOOC92UsjVy5Mh8EPLMM8+oqir8HbU2bFvlww47LHQzytbo0aN18MEHa9CgQaGb8hMEsdEgiJV6dJTuOa5Cm63B0DSU90dk9cdHs/owYRs2EMRGgyAWDVGVlabOzul790jz0mc5/eP1bP77pazzqtK1B6W19ybpslqlliTfTcvpkiczevj90C2pnf03k67cv0Ld2jKWCSHjrlMvfpbV+X2zGjk5dGtq55heKV1xQIXaNA/dknjdOzCrMx8kiC0EgtjCmP1jTqOnSK9/ldH7w1PqO6T0nhWW9Lsd0u6ellKLptzTQhnwZUYnPeAnBCTAma5uDd2IYsdXU/QecnWwq6CPa9dee63OOussNWnSJGQzyp6tfjz00EP14osvhm7KQr169cqv1qVvhPX6669rv/32S1RIvyynnXZafkJB06bBj70ua/Z1a+c6T5gwIXRTFiKIjQZBrHTTb6UTtq8sm3OxksiClqufy+i2ATnNTNCGDQSx0SCIRVTmzLdQVnrgnayueT6bDz9K0fHb2XahFeqwyv+zdx6AVRRbH//v3kDovQUI0nuRrlKkKAqCgoCCWFBEAUUsgD4riKiAiDQRERVBioLCQ1REFFFAqlQp0knoPYQEyN399sw1fuADyfXuzuzePb/39iWivjm5md2dnd+ec/jGpArDDIm1p6YZSDihOpp/pmoxDa+1ox56GgJ8+VHG6RQTw78L4i33bL9ckevL0PpXt+aO/ybMfR8E8cVqeWstFrGMXaRegCgVu26fiT7Tgth+WHVEzkB9q7/qE4PcWVVH4m/OW49ToxYYeO0rAxfUPVqlM8w6+qsOwuvwU4X9zLWO1ioD6NChA0aMGMF9YV3C+vXr0b59e9f0d7xw4YLoEcuoZ+jQoXj22WdVh/GPUPnqxYsXs4R1CV26dBHZyaZL6uGwiLUHv4vYTvUDGNZRE+XZGLUYZhC3jjCx5A/Vkfw/LGLtgUUsYzckyQwzDS2GU0a96mjspX5pHUM66qhbUnUkDJXIHvpNEK/+V3Uk/0y3RjpG3qPzBpsLWLbDxKOfBLHDxYIkV1bgyZs1PNvSn+n28X3TcDxZ3ngsYhm7oXvT4aQgJi0BJvxEFRxUR2QvM3oCravzvrEboPX2nWPTsGCT6kioYQn44hIhvE60l1bWMQKhutlKIFkybeo0tG3XVlUIzGWgTe+xY8fi/Hm1XbZffvllDBw4UGkMzEVYt7HceXKLzGk3kilTJkyePFmUxKWS1ox6SHredNNNOH7cHa0ZWMTag59FbNZMwJe9A2hUjpekbmHWaqDP1DSccElLahax9sAilnGKc8E0zFoFPD8rlCmb5vEMWSpD/Ix1vrzUhueQW1i5G+j/mYEVu9w3uah38A1lgfH36yhVgOeMGyBBMvHnIPp9Bjf01fsfqPpLs0rA7N4k7v03Z5bvCuKOUXKrr7CIdQ7K0ovR4ds+6iYMLN4GDPqvad2rTKSpz1qMmCduCmDAHZqv+la7nZW7g2gx3BW9YnNbhzs3sD2CTy+VjtHFOt6wjnhVAdx1112iLHHJkiVVhcBchi1btqBFixbYt2+fshgKFy6MtWvXokiRIspiYP4X6uX86KOPqg7jspDwmzRpEooWVdrymvkb9Dvp2rWr6jAELGLtwc8i9r4bdCFN4nKrjoS5mGbDgli+0x0ykkWsPbCIdQYqUXcqxUSebLxhtX6fiVfmGFi6w8QZF5U3D5c6JTWM6KSj1jW8VeImXp5tYOwPhjjn3ASVbXyulSY2rhn3QPfz56z7+QIX3s+pAswHXQO4pao/rzGjvjcw8L9yz2UWsc6xcHNQVJHIEevP+ZzO7mMGBsw2rc/DlJrtbTcFcgDznw6gYpy/f59u5P6JoRcfFfOidQxWHYSX4TPLXsZYx2OqBs+fPz+GDx+OBx54QFUIzD/w8MMPY+LEicrGp43+J598ElmzcpF/N3Hu3DnUqFEDW7duVR3KJeTKlQujRo1Cp06duJ+wCylYsCCOHj2qOgwWsTbhVxFbKCcw6p4A2lzLy1G3QRuXbUe745VuFrH2wCLWGXYeMfHlGgNNKmqofY3/Mpv+zo7DJiYsNjBthYmjSaqjCZ9smYFHbtQx+E7+XboN6sfXc7IhvrqJ0gWBb57SUTwvzxm3QcLvja8NnE5RHcmlNK+k4b9P+Ffc3/N+EF+tM6X2F2cR6xzdJwXF53tnbS7NToxaaODt+QaOeHANRFBFEDq4N6z7oKzYdmNMUX1GISOt40mlEXgcvk7ai1IR27ZtW4wcORIlSpRQFUJYbNq06a/ymr/88ktY/y5l/Kb3wC1WrBhKly5te3x2Q302b7zxRiVjV6xYEZ9//jmqVq2qZPxwWLNmDZKTk0UPzJ07d+LAgQMZ/nfpZQSaC+nisFGjRk6FaRuGYYjyv27JcEzn+uuvx/jx41GtWjXVoVyVdevW/VXeedeuXUhMTMzwv5svXz6UKlXqrxcUvDBniKeeegrvvPOO6jBYxNqEX0XsPfU1vNou4Ils2K0HTRw7E/p+n7V02Xci45srubJoKFkAyPHnOy31S2sIeGC/9ubhBpZuV18GkkWsPbCIdQYSsa99ZSBbZg0PNdRQpRhnxh5PDsnYUd+bOOmSEucZhTJAJj+so3JR92+THDodEt/Epv0mToUhmzIHrOfpAprIfMmTDeIeRXPY7Tz8cRAzV5miFKYboHv5XXV1fNDV/Td1KgNL12aCWg/sPgqkXMjYvY5mBs2X9PVafD7NOhwK1Ebo/Og1xcAvf7jrnv593wCuL+P+8y2dg9a1Zufh//0Mz6UBq/eE/9m+96OBA6fsiCzjsIh1jltHBLHLWgsNbBtAp3remddOMn5xGoZ+bZ07kud5pOS11gOfPBxAs0re+D0eOGVg11FNtHwT97jEjJ9zBbKHns8zx4TKanvhmnzmHNB1Yhq+2aA0DOpU636x4GLcP9O8QxmE3gy4TcXgOXLkwLPPPosXX3xRxfBXJS0tTYjX33//XRyUybVt27a/5Mnq1avD+v+jUqlxcXHieyq5Gx8fj8qVK/91pP89t9GyZUt8++230sd9/PHH8corr6BAgQLSx74a+/fvF/J148aN2LNnj5gnKSkpQlAmJCTgyJEjGf7/ypMnjxD06SK2Tp06om9ylSpV0KBBA1SqVMmpHyMiSB42btxY/Lxu4fnnnxfXFMqMdRuHDx/GihUrRMnvHTt2iK9nzpwR8p4+Q/r7GSV37txiztA8IWjOZM6cWcyZ9OsJyVq3QfKzVq1aqsNgEWsTfhSxxfJqGNROx9113bkUpYe5+RtNbDkAHDljCtmS3jP14EnalMr4g172WA3F8wBZ/xSx18ZryJIplBFR2LrEurX85WcrNTz4ofoakCxi7YFFrDPQtYHmzM/bgKrFTNx7vXVdq6eL/td+hmTsR78EMXgecE79ZSRDkEB/tEkAb7R35zWZ+HqDdV/aD+w5buKodW/acyz059sPmWKDLqNQH9xieTTkyW6thbOYKJ6P7ksamlW0vmYGbqnizs9g9m9BPDnNdE2mUVbrs1r8XAwqu3PrAYu3mVi/z1r7HTaRfM6aOwdDf56UAiScMIVIyyjFrflS4M/HwqK5gTjrr2kOVbR+9jY1NNf2h+z7WdC6FpmuKWldtjCwboC739ah0qop5/FXWecjSSb2Hv/ff456Ff4b2WgqWGKxiHUOErE/W9eauNwa2tfR0K6WhutKu/SCIIk0SrZYZuB163F7/0nV0WSc1tcCb9wZQOmC7vz9JZwIPWOQcE20vj9y2sC+Exp5WJy11kDbDmX8nMuT1bqH5bXWQ9blmM6WmtbzeP4cQN2SGspZ1+myhdz3GaQZwMxVBrp9pPRFadoRya4yAK/jvpnlXRpYxwjrqKticMoCHDp0KNq3b69i+H/k008/xSeffCLka/pBos20cQWmWSt/koyUEVmuXDmReXr77beL793E1KlT0aVLF+njTpgwQWRcxsS4Z9G/fPlyTJkyRfStPXjwoBCuJObtnhf0M9PcINlWvXp11K5dG507dxbS1i2cOnUKAwcOxIgRI1SHIqDMaSpL3LRpU9WhXALNlSVLlmDGjBkiU/rYsWM4efKk7XMmEAj8dT2hrzfffDMeeeQRUQ7YLZw4cQL33HOPkhc7LoZFrD34UcTeWAF4u1MAFYu4ayk6a7WJVbup9CEJFuDYGRMpF+zdNKLNSt06SubXkC0WqFIUaFkdaFFZR66s7vk8qOxR8b5h7NI6BItYe2AR6wzpIvbr9aE5U9RaXlawrmskZGteY6BCYf+WnzydYmLKr0H0+0x1JBmDMkGm9dDRqJy7shuXbDexaKuB3/ZQdQaI6gynU01770t//s811n0pRoeQa43KQ2yoF8vjns8jyfq5G74RxPaMv3PpKHVLAYv6u+f5mtiUaOLbjSZ+22ti837gcBJlwNo7Xwhay1BPSNq4LluINrGBhmV13FTZPesYgmQI9Rc+fFp1JCF6NtXw1l3uuy9QZtmc30z8tBXYfABIC1LPy9CkUSFO7YZFrHOki1gixvqIKxTWcH1ZDd0aaahe3F3XA5lQxYHPV5oYNNfwjIx9tZ2OJ5rr4mUtt0DXn+W7gpi+wnq+2AfxItbhpD9fPjPFf22B7mn0EiW9UJA3O1C1ONC+Nt3XAiJr1i1Qla62Y4LYe0xZCFR/pSaFoiwCj+Pfq6L9KBWx9evXF/1HKYvLDVBJWSo3PHbsWJHtF05WY6SQeMuePbvIYuvYsSOee+455M2bV9r4/wRl6lEGr0yoxOzo0aOFgHQDJF/ffPNNIV1pXqSmpkobmzIdaW6QXOvVq5fomesGKPt33rx54uUBN3D33XeLFzvcUuacsqRJDJN0TEpKEhJSJjlz5hTnbffu3dG/f3+pY18JOm/effddISZVwiLWHvwoYjvV1/DefQHXPOjRpuVb3xrYfjj0YEeZALKgTQsSANSL56XbNdxxrXs+l0cmBfHpr2p34FjE2gOLWGf4u4hNh0q+Zo8FShXQ8GBD2pSEq4SWLFLOm+g/08SHP6svc341qELB76/FiIoFbmBjoonh80NlVanHZfJ5eUKENiRzZQHKFwG6XBfq/Zc/uzu2joZ8Q1lGhsgMUc2zrXS83MYd5zVt9NN8+Xq9IUqC03yR2YOTrnc5s4SqfND9pr5LMuKowsmtbwex1iW9hWk9Q+sat7DrKF1nSMAaOJ4Mca0x3PFR2QqLWOe4WMSmQxUmCln31EpxGm4oq+HhRrqQW36DMvGnrzCEjHV7mWJaAw27S0f72u64pxFTlhlYtNUU1R2OJiGsKg6RQvI1nzVnaf72uQmoU9IdD+d0r396RhBz1yq7UNMuSS/rmKgqAK/jjtVRdEC74UMRymqXTps2bTBnzhyRzaUayn59+eWXRcbahQsXbM1WCxeSspkyZRIlVqk0r2qofCpJHZk8/PDDeO2116QL4L9DpahJoEybNu2vktQqoXlBvwsSjt26dVMdDrZv3y7EMAlZ1ZAQGjx4sPLrCZUdJgFLmeQkX4NBtQ2h6HpCvWQXLlyIunWVvHNzCUuXLhUlt1XCItYe/CZiS+QH3mwfwB011a9ZVuwy8eIXBlbuDvWcU/3WPz30XV+GhKz1tbT6128/X5WGroofs1jE2gOLWGe4kohNh5ZS9GIFZcHfWk3DPfWBZhV1ZPVAP067oI39Vu+k4be9qiP5Z6hc/tMt1G9AUgbjS1+GeqFS6U+VUoTmL2XIVioKsRHZrlaM8h7I438yhORwQ5/Y+U8DDcup/UBo3fLNxjQM+RriHJMpXy+H/uc1r2cz677TIoC8LhD4vacGMXmpO3oLn3k3xhVlnOmzmLY8DU9ND32vet44DYtY57iciE2H5jr10s5kHdeVpbL3Ono3V3+flQmdW6/MMTDiO3efZPTyzJAOOuqWUn+B2nooiIc+NLEpMfT5qVwHpd/TWlWnl680VCumVsieOWdi9MIgXpurLAQq9P+UdYxVFoHHUX+GRQ/9EBKx0tF1XZQk/uwzdXWfKKNv3bp1oq/k/PnzlcrXK9GiRQuRHduoUSNlJXrPnz+Pp556SmSyyYDmBmWf9uvXT8p4l4PmBvXw7NOnD77//ntlcVwJypClzGmKj0oX02emgt27d4vf08yZM5WMnw71VyYJ++CDDyoZn64dlO1J17MXXnhB9BB22/UkW7ZsotT3sGHDxPeq2Lx5Mzp16oT169cri4FFrD34TcRS35nhd+tooagHHV1RjiaZolzdB4uBPcfcdY0hYq1nvFmPa2hUPiA2wVWx7zhQ8QW15YlZxNoDi1hnuJqI/Tt01dOs0Ho11dHvVh2ZrXM9NhOUyy2n2XM8Dfe+D6zZozqSK/NOZx3dG6u74JIM+e/aNAz/Vse6BPdt2NLcHd0FuPf6GKVVG+hMK9QnDWclVq64HPQZnByj9sSl8rFfb0hDl/HWM7fSSP4Xmi8Vi+h4v6uOqsWgtLTj5GVB9J0RXh9lJ+jVLIChHTWlm7A0Zxb8TuI+gFW7g7aV9XQ7LGKd459E7OXImUVD4/Ia7q4X6ktOvbZpDeSGFxScYu9xA09PNzB/o3szzhuW0zCko45r49X8Iuhz2XXUwISfTExfDhw5474Pqlge6xnjjgDa19aUVk+hbNhO45U9Z9FyY7p1yO+5GCVE8aVOKrSsfM46BqkYvEiRImJjmvpeqoCyG3/++WexsUtZj26mZMmSolxy8+bNERsbK318yhAmuUQCRwb087711lvKegdTBuPGjRvx0ksviU1/twm1i2nWrBneeOMN1KpVS5mo/+CDD0T5W5VQCeuRI0cqybSk+bFnzx6MHz9e9Jbet2+f9BgyCmVT0++K5BmVulYBVR2gbP/JkycrGZ9gEWsPfhOxN1bQ8PWT6nZxjySZGLUwiBHz7esr4wRUImp0Fw3NKwWUPexR+aPrBqeJnoSqYBFrDyxinSFcEXsxmaxpXb+kjpurhjaJaa7nz6EpffnCKahX2qe/Gnj5SxOnUlRHc3nOjItRtjly9ryJmauD6PWJu+9L9PmMvAfoVC+A7LHqtpKqvRwU555KbqoMzOmtzi7SnJnzWxCPfOw+CXsxJFeGdCQ5FBA9ZVWw7aC1lnrrgii9q5LHm+t4s4Ou7DqTeMLE4j8MPPaJiXMuyA6WCYtY5whXxKZD14bieTTcVQ9oUUUXrRxyZzOVXSecZtFWWPMiiE377e/ZbQd9btLxens1C1AqOfzbXgPjFxn4fKW710FU5eGxpjp6NdNEWyEVfLPBRJf3g1JLNf+NzdZRWdnoHic6r3DyibeO163jXhWDFy9eXIiLVq1aSR/72LFjQtoMGqTEQf8rKlWqJDa9b7nlFlFmVCaUHTp37ly0bdtWynhUPnXEiBFKpBpJ2A0bNmDgwIGYPXu29PH/DTQnBgwYgDp16iiRsdQ/99FHH8XZs2elj51O69atRb/pQoUKSR977969Ihv3/ffflz72vyFPnjyiCkDv3r2RJUsW6ePTPKHsepUZ7yxi7cFPIpbKU7WqrmH6o2pE7LEzJt7+Loh3FigZPmxKFwSGdtTRspqaB2MqKUqS6ZOl6rZ5WcTaA4tYZ4hExF4M9aFqUQVoUlFH9eIaiuahuR9dj+rUH436pH28xH3aqEIRDWteUXNfOp1qYtryIP4zU27/s0gYehfwWFN1EnLYtwYGzFE7j6iMNZWzVkGSNWc+X2Xg+Vmm6IHqBQa1Ax5qGECebGqua6WeTcNhxd2R3u6k49Eb1cyZ7YdNcc7Qvcor1xk7YRHrHP9WxP6d1jU01LrGROPyARTPqyE+nw3BuYxR3wfx2lcmkhVn518OVSKW+r1/sdrAy7MNUYnJC+TPYa2Bmul4pLGa3serdpvo/WkQ6xPkj/0nLGIjILqe7tRhPTZjhHXcrGJwEovUs5BKisqGSv0OGTJE+riRUqNGDdEz9tZbb5UuYzdt2oSqVatKGatJkyZClFPJXdlQT8/+/fuLLE8vQTL21VdfFZmhgYDcDZlFixbhiSeeEAJbFffee6+yDMsXX3xRiFgvQdKe5D1l2auQsTNmzBDliVXBItYe/CRic8QC/VrqQgrJ5tBpA0O/MfDeIulDR0STCqFSzhXj5C/baaNgyDdBDJ+vTkyyiLUHFrHOYJeIvRjq01W1uImmFXSUKaQJMRstLNxsoO9nBrYdVB3JpTzXSsdLbeTfl06eDZXJH/qNqTxbLxxoE3LywwFR4UIFbhCxU7oH0K6Wmp//q/WhUrte2bQmqDRxv1uBR28MiMx/2bR/N4hvN6i9t//+WgyuyS9/XKpuMnheEDNWmEhRXNJbFSxincMuEUtQlmz5wsC1JTQ0LEtrIaBqMQ3ZMkfHOmj/SQMdxxlYu1d1JJdCLwO+0FpHjyby10HbDhloM9JAwgnpQ0dEAWsd1JMyY60jl+TM2G0HTfS3nj0WbFJ2T2MRGwHRcTVTj1IRS1Jx7dq10sf9/PPP0a1bNyQlJUkf2w5InJCkrFKlitRxZYrY+++/H2PGjBFlVGVCJWZJ5vXt2xdHjhyROrYdUJniWbNmiYxHmaxZs0b0EF68eLHUcdOhlxJ69eolylnL5r333hMCnMrteo2WLVti1KhRKFu2rPSxWcRGB34SsXmzUYm6ALpcJ38J+vT0IN5f7M5yUP9EtszAfTdo6HdLAHFyb0sIGsC89QY6j+eMWK/DItYZnBCx6RTPG+qpTWKWMjavKwNRus/LJJ8zMWKBgdHfq+/XeDEqRCxJWKo2MNL6LChb2EtQdYvmlYDx9wdQKJf8Obl6j4nGb6qtrbrvrRixeS2bPw6ZInPo240mznsss5Hu54Pv1K01oPzN/pHfUwaxWnmvQsSeSTXx4S8G3v7OxBFvbtvZAotY57BTxF5MtligatGQiG1UXkeNeNNaC3m/d8P7i9Pw1DTVUVxKpbhQf9jmleTez3cfNcS58tV6qcPaBr2U9nE3DU0qBKBL/OhIWtPLaNOWK7unUQ+5O61jlaoAvIy3n+Tcg+9E7JIlS9CnTx+xAU/ldr1I9uzZRfYhlfXMmzevtHETEhLQpUsXKbKtZ8+eonSpbNLS0lChQgXs3LlT+th2QaJi+PDhUsdULWKLFi0q+uSSwJcJiaGmTZsiMTFR6rh2kSNHDvHCA/Xpzpw5s9Sxly1bJs7zdevWSR03HRax9sAi1nkmLzXxn1lBnFBX+T0i6K3bsfcGRNku2SzdbuLm4eo2vFnE2gOLWGdwUsSmQ5lkVKa4ZAGgejEd1eOBDnU08ZKGF1mxy8AzMwys2aM6kv9HhYhdaF1nnpulbrM+UnJlAfrcrFmfnZqSztl7qrWQKkTsieTQiwzv/+SdksQXQ/2vbyir4Y32ush4k4lqEUvX7++fiZH+Qh1dZ6iE5R4PZU87AYtY53BKxKZDV4ri+YBi1rlDL/50qqehRgnrnMrvTSlL1/E+04BZq93TqFmViH3OWj+PWWi4uifs1ahprckX9I1BVolrcnoJi+5pCiuDULbV09YxRVUAXoZFrD0oE7FUOvXuu+/Gp59+KnXc7t27Y9KkSbhw4YLUce2GBCyVg5VZupcyREm2yfidqRKxNOZjjz0mfVw7IVFPQrRWrVrSxlQtYq+55hrRU7hdu3ZSx6Vy0AsWLBCZ1F6FRPLUqVNRpEgRqeNShj3NGfr8VMAi1h78JGIL5wKm99BQr5S8jds9xwx0n2Ri2XYThncvM7j3eh0D7tARl1vuuCxiowMWsc4gQ8ReTJZMQM4sdC3VUKcU0Li8jrvreuuRnjaQXp0bFDLJLX3Str4eIzKQZXHirClK5Y/70cQF9+zFhk2dkqHS+fRVNn4UsT9Qae/PDWz1XgGhv4i1buedr9PwchtdXMdkoVrE0ssz73QOiBcSZUGZ9gP/a4jMe7/DItY5nBaxf4eeg2gdVLV4SMpS1ZACCsqdR8IB69ws+5x7ShqoELFfrjHx5DQDR894/5lr2F2hEsUyGfuDgf6fK7u2H7WOp8Ai9l/hrauVe+lgHVOtI5PsgaknIZURlSm9fvzxR5ENq7KPpZ1QVuybb74prVesH0RstmzZkJKSIn1cu7n99tsxZ84caeMFg0HRJ5XmowpUiNjPPvsMjz/+uCdLWF8MvRRD5/Rdd90FTZN3a2URGx34ScRSWc11AwOirKEsRi8M9Yb1Uv+9y5EpAMx7MoAGZeUu31nERgcsYp1Btoi9mBjrmpA5EDpHOtQFujfSEZ/PGxkiX6ymbNAgEl3SE+zkmBhxjZXFz3+EstT+OCRvTCegezmday+2lj/v/ChiJ/5siI1rL79URtQrFdr0p6+yUC1i77teFz9zbom9BJftMNFyRNDTL3vYBYtY55AtYtOh+w+9nEZroQ61dbStZUovEftvofyDxkPSXFMZ5I6aGiZ1C0hdBzUeEsSa3aans2HToXl4bJScZ9V0WMR6Fw9cojzB3dYxXcXAJGLfeecdPProo9LGHDt2LAYMGICjR49KG9NJatasKeRy7txyUkyiXcQOGzYM/fv3lzqmU8TGxuL06dNSy82+9NJLeO2116SNdzEqRCyJtXHjxkWFuK9Tpw6WLl2KTJnkvZPDIjY68JuI3ThI3lMe9TjtMTmIqb9Gw2MecM91GoZ1DCCPxIwKFrHRAYtYZ1ApYi9Hi6oaOtcDmlakDX9NlDV2K7e+HcQvf7hjE06miKUN2OkrTDz8cXTYkevLhKRa7Wvkbi2pFLF1SgJf9YkRWVmy2HbIRL/Pouf+NKidjqdu1iHr/dWVu4NoMkTdZydbxJ6yHq37fRbEp1Gy/o0UFrHOoUrEXomXrTXgY810UQqdJG2MS99P+2JNGu6boDqKEHfW0jC5u7zn8w2JQXR+z8Su6FAKgvnPAA3Lylt0s4j1Lixi7cE3IpZKEdNG+OjRo6WMJwuSowUKFJA2VjSL2Ntuuw1ff/211DGdIiYmRohJytiUhZ9EbFJSksg6pvLg0QL1gC5WrJi08VjERgcsYp1j4WYT/5lpYJNHe/D9nfJFNHz9ZEBqeWIWsdEBi1hncJuIJegBn+RG14ZUKk0TvTwL5NRESVA3MWOFiSenB3HaBe/iyRSxe4+beGa6NWc2uGfOREIR6370dqcA7rjWPyK2WyPqdx+DrJLevaQM2LlrDdzzfvSUmL3/BrpWB6z5I2/eqJwzskXsodMhQbbtYHRcZyKFRaxzuE3EEjmsdc91pXTcXhO4ubKOwrnhujVQwgmg/mtpOHlWdSTyRezkZQZe/NLA0SRpQzoOvVz0dAt55x2LWO/CItYefCNit2/fLjZw586dK2U8WSxfvhz16tWTMlY0i9h9+/aJrMDDhw9LG9NJqNzsk08+Kcp/y8JPIpauI3Qu7NixQ8p4MqAy8WPGjJE2HovY6IBFrHNMWGxgwBzDFQ+5dkEi9sYK8pbwLGKjAxaxzuBGEXsxlAlyfVmgc31NZMmWyOeex/9dRw3cOcbANheU55UpYun86DAuiITjcsaTwUttdDxxk45s8ooIKRaxIakmS8SeTjXx9ndBDPtGzngyqBGvYWRnHXUllif2k4jdkGBY9+HoEfeRwiLWOdwoYi+mZgkNXRtqonpDxSKa1PY4/0TyOVjXdQNvfq3+PJUtYp+ZEcTHS0ykXpA2pOM81FDH6C4sYpmr454nMW/jGxFLwpI2/ZctWyZlPFlQKd0hQ4ZIGSuaRezEiRPFz0aZjtFC+fLlsXXrVmnj+UnEUmb9oEGDPN8f9mLKlSuHbdu2SRuPRWx0wCLWOQZ/ZeD1eeofcO2Eym0N6SCvnB+L2OiARawzuF3EppMjFri1moZO9XSxGSmzvPk/QZtx7y1S/9nJFLHLd5poNiw6yhKn07JaqDxxmYL+kGqyRez+k0CvKUEs2KT+XLGTyQ8HcGdtf8wZ2SJ23I9B9P0suuZLJLCIdQ63i9h0biir4dEbNTQsR5Uc3GFjV+wy0W5MUPkLw7JFbMd3g1FTFSSdvNmBhLe4NDFzdVjE2oNvROzMmTNFhmBiYqKU8WTBItYeevTogY8++gjnz5+XNqbTsIh1jkceeQQTJrikMYaNmKa8RSWL2OiARawznEk1MfC/Bt79Mboe9Gpdo2HxswEWsQ7AItYeWMS6l5LWNfiuuhoeb6Yjfw7V0QCzfwuiy/vqPztZIvZcGjDxZ0P0+owmKKtxTBcdVYv5Q6rJFrF/HDJx01tBHD0jZzxZsIh1DrovjVkYXdeZSGAR6xxeEbFE0TxA4/JAq+o62tdWL2Pp2v74pwZ++UPt5ydTxB5LNnH/BAOLtnpjzmQUFrFMRmERaw++EbGjRo1Cnz59pIwlExax9nDDDTdEXbZ0XFwcZsyYgUaNGkkZj0Ws9yHBRb2SZcAiNjpgEesMWw+aeH6WgW83RteDHpH0bgx0FrG2wyLWHljEuptcWYEGZTW80JpK9snLgLgctCFXoq/67FBZIjYpNSRIJi2JLkFC/fhm9AigicSy+X4SsSR06g5Sf57YDYtY52AReyksYp3DSyKWoBdZyxXS8J/bArirrtpYqEfq61+bGL9I7fVdpohdst3AU9MNbIqu3C4WsUyGYRFrDyxiPQ6LWHuIRhGbP39+ISfvu+8+KeOxiPU+1FOYhKEMWMRGByxinWHdvpAg8dLmQEZhEesMLGLtgUWsNyhfGPiku4ZqxdTK2BteT7Ou10pDYBFrA18+HkCLKv6Qaixi7YFFrHOwiL0UFrHO4TURS9AzVLnCGp5rRVVC1GXGBq1TdNISE72n+kfEzt8UOj8oGziayJYZ+PChANrUkHNPYxHrXVjE2gOLWI/DItYeWMRGDotY78Mi1jlYxEYOi9jogEWsM7CItQcWsd6ByvTNekxD9eLqZOzLsw0Mn69WGLCIjRwWsc5w3voxqc3COwuib86wiHUOFrGXwiLWObwoYgl6jipdEHjVWhvfUVOdjJ263ET3j1nEeh1aD9A1ntYHMmAR611YxNoDi1iPwyI2cqh/MP1cCQkJUsaTBYtY52ARGzksYqMDFrHOEM0idt6TQJMKcuQki9jogEWsM3hdxBIl8gOf9VSXGfvG1wZem8si1uuwiHUGErE0Z97/KfrmDItY52AReyksYp3DqyI2nWusNdCoewJoXllTIkhozUzn608Ke6ayiI0cFrFMRmERaw8sYj1OtIrYe+65BwMHDnR8HOLbb7/F4MGDcfDgQSnjyYJFrHNEq4h97rnn0K1bNyljkVSj827JkiVSxvs7LGLtgUWsM0SziO3ZVEevpnKW8Wv2AA9MZBHrdVjEOkM0iFjaPLq/QQCvtdNEaTXZpBlA7sfUCRKCRWzkjLtPR8Ny8raXqr2s7hrDItYe3rpLxy1V/TFnWMSqhUWsc3hdxBI3VdbE+VmhsCZ6yMqERWx0wCKWySgsYu2BRazHiVYRq0leRZhmdN1MCRaxzhGtIpaQee6pPO9YxNoDi1hniGYRS8i8xau8vbOItQcWsc4QDSKWoBLF/7lNxz31dWSR1PcyHeqRlotFrOeRvXmt8r7EItYe/DRnWMSqhUWsc0SDiCUebQIMvCMGObPIHXfXURMvfGFgzm8sYr0Mi1gmo7CItQcWsR4nWkUsEzksYp0jmkWsX2ARaw8sYp0h2kWsX2ARaw8sYp0hWkQscV0ZYGhHHbWvkdsrjURs6efScDRJ6rCXwCKWCQcWsUy4sIhVC4tY54gWEUvILrGfzpCvDbyqsEUDi9jIYRHLZBQWsfbAItbjsIhlrgSLWOdgEet9WMTaA4tYZ2ARGx2wiLUHFrHOEE0iNkcW6z57i4bHmurIHitvm8CwPrr7Pghi9hp1nyGLWCYcWMQy4cIiVi0sYp0jmkRsvVIafuwvZ55cDItY78MilskoLGLtgUWsx2ERy1yJuLg4TJ06FU2aNJEyHotYxkuwiLUHFrHOsNt6RKBST7N/440oL8Mi1h5YxDpDNIlY4voymujbeG0JuSL2OeszpE0lVbCIZcKBRSwTLixi1cIi1jmiScQSM3oE0LqGXFXCItb75LKu7YufDaBcYTlzh0Wsd2ERaw8sYj0Oi1jmSpQpUwZr165Fjhw5pIzHIpbxEixi7YFFrDPQ5uUg66H27e94I8rLsIi1BxaxzhBtIpb6w75yu4ZujXVkzyxnq8BPIpbKMM9dZ6LL++rODyZyWMQy4cIiVi0sYp0j2kTsNfk1/P6a3KxYFrHeJ292IOEtOc+rBItY78Ii1h5YxHocFrHMlShfvjy2bt0qbTw/idgZM2aIc2/v3r1SxmPsh0WsPbCIdY7BXxl4fR5vRHkZFrH2wCLWGaJNxBId62h4vb2OonlYxDrB8p0mmg1jEetlWMQy4cIiVi0sYp0j2kQssfQFDTWKy3teZRHrfVjEMhmFRaw9sIj1OF9++SXatm0rZSwWsd5B13Xcc889mDx5srQx/SRi586dK86FHTt2SBmPsR8WsfbAItY5Ji8z8MpsA4dOSxuSsRkWsfbAItYZolHEahqw4JmAKFMsA7+J2N+t68x9E4LW9UbOeIz9sIhlwoVFrFpYxDpHNIrYoda5+lgzeZ8hi1jv07I6MLMni1jm6rCItQcWsR4mc+bM2L9/P/Lnzy9lPBax3iEmJkaUzu3atau0Mf0kYonWrVvj66+/hmlG10LML7CItQcWsc6xYpeJfp8ZWLWbrzFehUWsPbCIdYZoFLHEN08F0Ki8JmWzwG8i9uAp4MUvg5i2PLrmjJ9gEcuEC4tYtbCIdY5oFLFtrgWmPypPqrGI9T6y5T2LWO/CItYeWMR6mNtuuw3Tpk1Dzpw5pYzHItY7lC1bVkgLmfhNxA4bNkz8vKdPc7qaF2ERaw8sYp3lP7MMjF9k4Fya1GEZm2ARaw8sYp0hWkXsq9ZS8LGmMaJnrNP4TcQS86z50v3jIE6lyBuTsQ8WsUy4sIhVC4tY54hGEVsiH7B5MItYJ4hGEZszC/B930yoWkzez8Qi1ruwiLUHFrEeJXfu3Jg0aZLIygsE5Nx4WMR6B5klq9Pxm4il/rDt27fH6tWrOSvWg7CItQcWsc6yZg/Q45MgNinaEGEig0WsPbCIdYZoFbH33xCSBrmyOD+WH0VswgmIsvnTV7Ao8SIsYplw8ZmIPWYd66zj4EV/VsA6aluHnDJ0f4NFrHOwiI0cFrHepltjYFRnefOFYBHrXVjE2gOLWI/SsWNH8fkVLVpU2pgsYr3BnXfeiVmzZkkf128ilvj888/RpUsXXLhwQeq4TOSwiLUHP4nYuDzAnN4BVCkqdwlKDyoTfzaQypcZz8Ei1h5YxDoDi9jIcYOI3ThIR6kC8jauiRkrTTw/KyhKFTPegkUsEy4+E7GzKQTr2HbRn11vHSOso76KgFjEOgeL2MhhEetdiuQGvuqjo1Kc3DUki1jvwiLWHljEepCCBQti9OjRQrhlyiThKepPEhIScN9992HRokXSxmTCo0SJEqJvaZUqVaSP7UcRS1BW7BdffCF9XCYyWMTag59EbN5s1sNmxwC6XCd3CfrHYRO9JgexbDsQHY99/oFFrD2wiHUGFrGR4wYRO7Kzhocby63WcOg08ObXQXz6q4nkc1KHZiKERSwTLj4TsWMQ2qS/uCkIi1hJsIiNHHr2mNEjgPql5Tyvsoj1Ln1uBgbcEYPMcpeQLGI9DItYe2AR60GefPJJIb3y5csnddwtW7agXr16SEpKkjouk3EmTpwoZLlMQZ+OShGbNWtW9OrVC2+99Zb0sXfs2IHbb78dv//+u/SxmX8Pi1h7YBErh5mrg3joQxNB3sv0FCxi7YFFrDOwiI0cN4jY51rpeKmN3GwGYtkOA32mGdiUKH1oJgJYxDLhwiKWRawsWMRGDp2ndL7SeSsDFrHepFF5HSM6aahYRIMmcWuD2lsMmBPEtOXKPkMWsRHAItYeWMR6jBYtWojNfBUZj5s2bULVqlWlj8tkDBKRAwYMEBnTKlApYol7770XkydPVjL2unXrRIliOkcYb8Ai1h5YxMoh5YKJL9YE8cjH0odmIoBFrD2wiHUGFrGR42cRS5Jt8bYgek0xkXhC+vDMv4RFLBMuLGJZxMqCRWzksIh1jmgRsSXyA+90DqB5JQ0xkpeP2w6a6G9d4xdsYhHrRVjE2gOLWA/RoEEDTJgwARUrVoQm87UVi2AwKHrDPvDAA1LHZTLGww8/jIEDByIuLk763EjHzyL2/PnzeP/999G7d28l4zPhwyLWHvwkYunK2tR6YJn7hOT6PX9C2bAzV6fhoQ+VDM/8C1jE2gOLWGeIVhFbswQw+/EYFMjp/FhuELGNKwDfPCmvH9zF0M+/fGcQt48ycfa8khCYMGERy4QLi1gWsbJgERs5LGKdIxpEbLG81u+sg447aurQFWwbL9thoscnQWw/LH/sP9liHdVw6TWeySAsYu2BRawHILFWu3ZtIZlIwqqARBNJJpJNjHugEsSdOnXCG2+8gWLFiimNRbWIrV69uugT26xZMyXjnzlzBu+99x4GDRokvjcM3nRwMyxi7cFPIpZoVF7DvD4BBOQnHwnOB4Fpy9PQdwZ409sDsIi1BxaxzhCtIpbY+noMiud1fhw3iFji1JgYxKh5R0iwcndIxp5OURcDkzFYxDLhwiKWRawsWMRGDotY5/CyiKVcnXhrXfyS9ZxxT31FGxkWc9ea6DRe3XOWxWbrqKwyAC/DItYeWMS6nBw5cggJO27cOFSqVElZHGfPnhX9Ybn0qjvQdR3FixfHTTfdJMoRx8fHqw5JuYgtV64chg0bhjvuuENZDMT3338vfierV69Gamqq0liYK8Mi1h78JmKrFgMmdNVRvbi6B5jkcyamrzDw9nehcpAXlD7LMP8Ei1h7YBHrDCxiI8ctInZuHw3NKio0sRZLtwfRZ5qJXUeonL7SUJh/gEUsEy4sYlnEyoJFbOSwiHUOr4pYKj9cIx54qJGGrg3UrRUviBfKDfScrHRNwCI2AljE2gOLWJeSO3duVKhQQYg2kluqys2ms3v3bpQqVUppDEyIAgUKCInUt29f0TNY9dxIR7WIJV544QXlMZimKQTfxx9/jF9++QXr168Xpb0Zd8Ei1h78JmKL5gFebRdA53qqr7smlmynzU0TK3cBCSdCpYsZd8Ei1h5YxDoDi9jIcYuI7XerjgF3qHtBKJ2Dp4J48xvr/vQHsOsokMKVG1wHi1gmXFjEsoiVBYvYyGER6xxeFLEVimioW8rEc600lCygQYO6tSLtVzwxNYj5G5V9fjRRv7GO1qoC8Dqqd8CiBRaxLiNXrlxCENx8881o3bo1qlWrhkBA7RvOxAcffIDu3burDsPXUFlqOpo2bSrmRunSpVWHdAluELHUw3jo0KEoVKiQ0jgIErLLli3DnDlzsGjRIqxYsUJ1SMxFsIi1B7+JWNq47NFUx2vt1G94m9Z/jp4x8fNWejA0sP2whl93eOfB0A+wiLUHFrHOwCI2ctwiYuuX1vBDP/XPi8SZ8wZW7QK+3Whiwz5g1W4TZ86pjopJh0UsEy4sYlnEyoJFbOSwiHUOL4nYSnEaGpbX0KqajpurGEoFbDqbrWfV294J4tBpZSFQvRa6vo9VFoHHYRFrDyxiXQDJtZIlS6Jo0aJo0KCBEASVK1cWn5Fb6Ny5M6ZPVzJVfE1cXByaNGki5giVhqYsaZorbsmCvRg3iNiqVauKc51ktZtYunQplixZgi1btmD58uVc4tsFsIi1B7+JWKJZJQ3vdNZRpqB7rsOHk0zsPQYs22Fi20EDa/ZqWLvX/Q+J0Q6LWHtgEesMLGIjxy0iNl92iI36eqXcc186lWJi33Fg9W4Tm/Zb82wDRNliRi0sYplwYRHLIlYWLGIjh0Wsc7hZxOa31oG1SmpiPVi+MFC3lI6G5TTEynkMvSpUuevbjUHcNU7pZ8ciNkLc85ThbVjEXgYqwVuzZk1kzpwZ2bJlQ5s2bRyNjbL38uXLJ7JhSca6jc2bN6NRo0Y4duyY6lB8A82/G264AXfeeSfKlCmDwoULu0rMXw43iFg6XymOxx9/XPRXdhNUnvjQoUPYu3cv1q1bJyTgrFmzcPToUdWh+RIWsfbgRxFLD7gv366jRxP1b5b+HdMMSVnqHbt4mykyktbtM3E6RXVk/oRFrD2wiHUGFrGR4xYRmyUT0Lu5hgF3uCMr9u+cSDax+QCwx3qUnLXaEPel/SdVR+VPWMQy4cIilkWsLFjERg6LWOcIV8R2qBPSVtljQz1ai+Zx7neSLTMQb617s1pfC+Vyj4BNJ/UCMHheEG/PV3q+0Y5IVevYqTIIL8Mi1h5YxCJUDpik13XXXYfrr78e8fHxokerruvicEOZU5W8++67eOyxx1SH4Qso85hEA80/kvP58+dXHVKGcYOIJerWrStKaVevXl11KFfk3LlzSEpKwoEDB0Qv2Z9++gmrV69WHZavYBFrD34UscSDDYGBbQPIn929y9Gz54EjZwycTjHw5ZoARn0f5H59kmERaw8sYp2BRWzkuEXEUqGc2tcAk7rpKFnAfS8JpZNmfUwHT9PLQUEs265b9yUT2w9H3/xzMyximXBhEcsiVhYsYiOHRaxzXE3EUhZqteIa2tQwrGdAE3F5Qs+AAWuNlsv6vbhNjsrk5Fmg+itpOHZGaRhWFMiuNAKP496dL2/haxEbExODF154Ac2aNfsrAzZTpkxCvjL/T/HixZGYmKg6jKiFylFTb1Oah0WKFEH27N68N7hFxFJP5WHDhqFHjx7ImlXSE2MEpKakIvVcqsg4p7h/+OEHIZwYZ2ERaw9+FbFlCmkY0SmA5pVUR5IxUtOA5HNpWLLdeojcEMDHS9SJJj/BItYeWMQ6A4vYyHGLiCXyZNPwdAsdz9zijW2SC9Zplnw+iPXWOffTlgCGfBMUVR0YZ2ERy4QLi1gWsbJgERs5LGKd43IiljJRb6yo4e66Gm6pCsQEdGSxHv10byzFpDH4KwOvz1O+FlhoHTepDsLL8LS2B1+K2NjYWFFqd8GCBVLG9iqGYYhs2P79+yMlhesa2gFJQjoo47VDhw546qmnUK5cOdVh2YJbRCxBvWLnzJmD0qVLqw4lbKh88cKFCzFu3DisWbNGlDSmDFrGXljE2oNfRSzxhLWM73drAPlcnBV7Jah33/QVQUz4Cdh1FEgLhjKVGHthEWsPLGKdgUVs5LhJxBKNrEeKMffqKFvImy8V0ybdD5updHFI1NJ9ieWsvbCIZcKFRSyLWFmwiI0cFrHOcbGIDej0AhwwqJ0u5i1zZWgtkLd32tX/QeehTas3VQfhZby36+VOfCdiqczwyJEj0b59e5H9ylyZJUuW4L777sOuXbtUh+JpKNOa+pUWLFgQderUES8ByJr3MnGTiCVIej3xxBNCfHuVrVu3ivOQrl8nT57E4cOH+aUIm2ARaw9+FrHX5AfGdAngxgqaeBjzKj9tNTF3nYFlO4DEEybOnAOXMLYJFrH2wCLWGVjERo7bRGze7BDzp1cTHTHeXf5ix2ETU5ebWLrDFN+fspa+yalA9M1U+bCIZcKFRSyLWFmwiI0cFrHOkS5iE46buL2mhg8f9PBCSxIpF0wMmGOqvKZfTB3r4H5wEcAi1h58JWKHDx+OgQMH4u677/ZEyVKVJCcno1+/fqJ/JYuffweVGK5cuTKqVasmBGzHjh1RoEAB1WE5httEbPny5fHjjz+iaNGiqkOxhRUrVuDTTz/F2rVrxcsRR44cQWpqquqwPAuLWHvws4glmlQMPYQVzqU6Env4bJWJNXuCWL+PxJ6GQ6eja3NCNixi7YFFrDOwiI0ct4lYomG50CbstfEefkPoIhZvM/HzH0H8sBk4dErDrqPRN19lwiKWCRcWsSxiZcEiNnJYxDoHidhB1s96bbyJt+6KQRbO67oqX/4WRLcPTZxTnxB7wjryqQ7C67CItQffiNgZM2bgwIED6NatG3LmzCllTC8ze/Zs9O3bFzt27FAdiueoV68e4uPjRXlcKj9cpUoVaFr0X7LcJmKJ3r17i5cwogXTNMV17IeFP2DT75uwatUqIaf27dsnSokzGYdFrD34XcQSozoH8GAjLSp6wYS2IgycSLbWAb9pWLI9iITjmpBTp/idrLBhEWsPLGKdgUVs5LhRxNKt6KFGOl5sraNQlLwkZFr3pZ1HgE2JOr7dmIaEExq2HoTISmHCg0UsEy4sYlnEyoJFbOSwiHUOErG/7zdwr3VFKJiDs2GvxvbDJp6YalrnmCHWy4qZZR0dVAfhdaJgu8sV+EbE7t+/X0iMYsWKSRnPy2zYsEH0LqU+lUzGIKlDB2Vh3njjjShVqhSKFCniCwGbjhtFLH3+lNV9//33qw7FXkz6r4nNmzeLY+fOnZg/f74oZZyQkKA6Ok/AItYeWMQCcbk1fPO0hnIe7cl3Jegak5RiYvcxDat20wZ4EH8c1rAwCkWfU7CItQcWsc7AIjZy3ChiibzZNAy/W0O7Wjoyy7kESeN8miHuSxsTgTV7qFcbsHiridNcJCZDsIhlwoVFLItYWbCIjRwWsc5BFTlyZzWRL3t0PfM7wbEzJl77ysCUZSbOuqPl0ePWMVZ1EF7HP3bDWXwjYpmMkZiYiMGDB2PSpEk4e/as6nBcDWW9tmrVCjVq1BBS55prrkFcXJyv5OvFuFHEEiTHv/32WyHHoxl6gWL37t2iHPOiRYukSkYvwiLWHljEhmhcHhjdRUfZKJOxF3Mi2cTB08D6fSY2JBpYtl3Drzuja/PCbljE2gOLWGdgERs5bhWxRNXi1kP+owGUKhC9zyVnzpk4dArYfMA6dxOprL6G/66NvvlsJyximXBhEcsiVhYsYiOHRSzjBsZY62KaG8eTVUfyF5WsY4vqILxO9D5RyIVFLPMXJF4/+ugjvPjiizh58qTqcFxLw4YNRYnrmjVrCvGaJ08eZM6cWXVYynGriA0EAmjZsiVGjhyJ0qVLqw7HUag8MZ27hw8fxsaNG7F8+XJ88skn4q+ZS2ERaw8sYv+fHk2A4XdHWerRZTBN4FSKiaNngK0HTcz+jUQOcJLf3fofWMTaA4tYZ2ARGzluFrFEhzoaxt8f8EUfszOpJk6maNi838Qnywys3GVi33HVUbkPFrFMuLCIZRErCxaxkcMillENPYs+NytorcdUR/IXc6zjXus4ozoQr8Mi1h5YxDKCCxcuYNq0aaKn5unTp1WH4zoqV66MJk2a4Nlnn0W2bNmQO3duZMrkg12NMHCriCViYmJE9jLJ2JIlS6oORwppaWk4d+6cOJ9XrFghsmTpmsuEYBFrDyxi/59cWYBHmwQw4A7/LFGD1nN38nkDyecMTF8ewLcbg/jlD9VRuQcWsfbAItYZWMRGjttFbKYAbeIHML2Hf+5L9DtJSjWRmmbdj7bpmL7CFBvtSVy6WMAilgkXFrEsYmXBIjZyWMQyKlm6HXhmhoFN+w2xT+ASqCzxBOtwR5FkD+OfpwlnYRHLCL744gt07NhRZNT5HSotrOs6ihYtiptvvhmPP/64KD+sazpfef4BN4tYokCBAnj55Zfx2GOPid+v77CeMc6mnMV3332HKVOmYM6cOeJ89+s5zyLWHljEXkrOLBqeaK7judus+4jP7hemONKQFgQGzQ3gh81BbEwIbYob0bXHkWFYxNoDi1hnYBEbOW4Xsem0rBrAjJ4aAj5b/obuS9bvxjQwblEMvlmfhp//oAoyoeoO0Tfzrw6LWCZcWMSyiJUFi9jIYRHLqGJjonUOf2Bgy0FX3fMpmLrWsUZ1INGAz7a3HINFLIP9+/ejTZs2WLPGv9em2NhYkelKsq5Ro0Zo3bo12rVrpzosT+F2EUsUKVIEAwYMQKdOnZAzZ05/Ctk/oX7Q1At61qxZ2Lt3L5KTk5GSkqI6LGmwiLUHFrH/S77sQJ+bdfRsoiN7rOpo1LL5gIlPfzWw5A9g11ETyeeAsz56F5VFrD2wiHUGFrGR4xURSwK2bU0N73QOiHuUnzlj3YfG/Wjglz9MIRtOW0vfsxdCctYPsIhlwoVFLItYWbCIjRwWsYwKTiSbGPtjEG/MUx3J/zDFOvpZx0HVgUQDLGLtgUWsz/n999/RtWtXrFy5UnUo0iH5mj9/fsTHxwspU7duXdH7lfl3eEHEEsWKFUOHDh1EpnOZMmVEBrTfmT17Nn755ResWrUKu3btwrFjx4SYjWZYxNoDi9jLQwLuyZt1PNRQRy5JG1duhwTh4m0GVu8JCaDjydTTT3VUzsIi1h5YxDoDi9jI8YqIJahPbPvaGl625ljxvLz2JTbtN8X8/2mrgb3HrHPiaChTNpphEcuEC4tYFrGyYBEbOSxiGdmcPGtizA+ulLCUZdLfOib++T0TIfz0YA8sYn0MSReSAz///LP10BldC5B/ImvWrKhXrx5q1aqFatWqoUWLFkLOMZHhFRGbzgMPPIBXXnkFpUqVUh2Ka0hNTRUlizds2IC1a9diy5YtSEhIEL1mow0WsfbAIvbKFMoFPHlTAA810pAzi+po3MXs30K9Y9bv07BqN3DwVHSuQVjE2gOLWGdgERs5XhKxBFVp6FhHR79bdZQsoDoa95B40ronJWqY81sQCSeAPcc0/HEo+s4LgkUsEy4sYlnEyoJFbOSwiGVkcvSMiVHfBzF8vupILgtt9pFw8l/WmUOwiLUHFrE+5OTJk1ixYgWGDRuGn376CRcuXFAdkhRKlCiB5s2bo3LlyrjllltQtWpVzoa0Ea+JWPrdU4ninj17inLUzP9DL2bs27dPvKyxZMkSbNy4ET/88APS0tKu/i97BBax9sAi9p8plFNDh7oaHr0RKFvIv6XQ/05oy8PA4dOaEIdr9hj4dSewKRG4oM6B2Q6LWHtgEesMLGIjx2silqBe5jdV1vCIdV+qX1pHrJxLlCegfrK7jtL1VMPS7UGs3Qus3g2cjqLqDSximXBhEcsiVhYsYiOHRSwji/XWM9OkJUG8vyjUiNWFjLWOAdZxVHEcUQPbE3tgEeszTp06hU8++QTjx4/H9u3bozLT7e8UL15c9MBt1aqVKD9cqFAhFrAO4DURS9A8qF27Nh588EExR6hMNXMR1nPJ8RPHRR9pkpYzZszAvHnuqznyb2ARaw8sYq8O3W6aVAAebx4QmynMpZjWf5JSTPx+AFi0xcCs1cDv+1VHZQ8sYu2BRawzsIiNHC+K2HSqW0ve7o11dKmvI1aClPMaqRcMbD8MLNluYs5vJpbvpD9THVXksIhlwoVFLItYWbCIjRwWsYwMvtlgYNyPJn75w8Q5d+Zq7EDoWj5XdSDRBO9k2QOLWB+xY8cOIcsWLVqEAwcOqA7HcUi4tm3bFh07dkT16tVRsGBBFrAO4kURS9CcoLlxww034Nlnn8V1112nOiTXsnPnTlGy+N1338XChQtVhxMRLGLtgUVsxilbSEOn+kDn+hpK5ufs2MuRlGpi91Hgu9+DmLzU+p0fUh1RZLCItQcWsc7AIjZyvCxiibjcwG01NHRvDFQtxhuZlyPlgomE4yRkDXy8xMTKXaojigwWsUy4sIhlESsLFrGRwyKWcZLjyab13GBg/E8m1u+zLpTuvb1/iNC1/LTqQKIJtin2wCLWJ5AgoyzYQ4cO+aIUMck0Kr1M5Ydz5syJQIBvzk7jVRGbTqZMmVCpUiV0795dlCwuUICbZ12OYDAosuk/+ugjTJ48WWTLehEWsfbAIjY8qD8f9eXr3VzeA7IXSTlvIvEk8MHPQYz+XnU0/x4WsfbAItYZWMRGjtdFLEHZsPmzA3fW1jCkAz8vXQmSiifOmhjytYnxHhaLLGKZcGERyyJWFixiI4dFLOMUmxJN9P0siPUJ9PI0EHTvrZ2yYftZx5eqA4k2WMTaA4vYKGfkyJHo16+f6O1IfR+jncyZM4sys2PGjEFMjL+bHqWkpAhxQdnAMvC6iE2HpH2VKlXEeUPZ1LGxsapDciWGYeC7775D3759sWnTJtXhhA2LWHtgEfvvCFjPxs0qaXijvY5KcbykvRKGtW75ck0Q/5kFJJ5QHU34sIi1BxaxzsAiNnKiQcSmQ0WDyhSy7kt36mhVne9LV+KC9aue81sahn4T6mvuNVjEMuHCIpZFrCxYxEYOi1jGbhZvS8Pcdbq4l6epe0QKBxKw7SEarTF2wk8H9sAiNoog2ZqUlCQ2q6lsKJUPTUhIUB2WNCiDkUTgI4884vsSxCTJZs2ahdTUVNx3331SxowWEZtOev/Y/v37o1mzZsiVK5fImmUuZevWrejZsyd+/fVXIf+9AotYe2ARGxl0q+pYR8N/btMRl1sTmUmZ+VnyEkwY+Hkb8Op/TazcbXrlAVDAItYeWMQ6A4vYyIkmEZsO3Zfql7buS6101C6pCWGXhZe/f8PE7mMGXpurYc5vBs6eVx1PxmERy4QLi1gWsbJgERs5LGKZSKAsV+r5eiYV+HS5gfkbNCz5IwiP3MXpZN5oHXdZxxbFsUQl/rYs9sEiNgrYu3cvTp48iS1btmDq1KlYvnw5Dh48qDosqZQvXx5TpkxB3bp1VYfiCkgw9enTR5TZZREbOY0aNcJDDz0kMmXz5MmDuLg45MiRQ3VYruLFF1/E6NGjcfq0N9owsIi1Bxax9tG1gY46pQxcGx9A0TxAnmwaYv1d2OESaNO732cGvtvo6n40l8Ai1h5YxDoDi9jIiUYRezEtqmpoWtFE3ZIBlMhv3ZeyUol93oZJ51iyidELg3h/EXDKI+8isohlwoVFLItYWbCIjRwWsUy4UOHMkykmjiZZz5MHTazabeLzlcCeY547N85ZxxDreEV1INEKPwHYA4tYj3H27FkcOHBAfKU+jZSBNnPmTKxfvx47duxQHZ4SatasiREjRqBx48a+z4Q9fvw4fvzxRyHFjhw5Ij4XFrH2kTt3btSoUQO33HKLmHckZKn0s65zr0fi1VdfxahRo3Ds2DHVoVwVFrH2wCLWfkjeUVnIqsWAGvG66ClbJJcmyhn7nT3HDLFBNHed6kgyBotYe2AR6wwsYiMn2kXsxXSoE7ovVS+uo3wR676UG8iayd/PXcSRMyZGf29g4s8mTp5VHc3VYRHLhAuLWBaxsmARGzksYpmMsPcYkHQuJF/3nzSxMdHAsh0alu/09Pmw1DrutY5dqgOJVnjVbw8sYsOAyvzu3r37r79etmyZKAErk1OnTmHbtm3iK2W+UiliP1O/fn0MGjQITZo08XXZ2BMnTmDlypWiZyeVpCZBnz9/fhaxDkIStly5ckLKUkZ2w4YNUaRIEdVhKYWuh8OGDRPC8fDhw6rD+UdYxNoDi1hnqRinoVYJE2UL62hYTkOpAiaK5vG3kd133MALXxiYtVp1JFeHRaw9sIh1BhaxkeMnEZtOoVzADWU0lCsM1CulW/cpEyUL6NB9vDtDMnbswqA1D+D6MsUsYplwYRHLIlYWLGIjh0WsuzmebGL3USD1zyvMHuv7/afkz8H1+0wcOxPKet15RPrwTnGjdSxWHUQ04+Olvq2wiL0Kv//+O1avXi2kK2WiXtxzlTbxZYtYwjSja7HwbyEJO2DAADRt2hSxsbGqw5HOuXPnxPxcunSpmJ/r1q0Tkv78+dAOAItYOVAWdokSJURZ7GrVqqF58+Z/lTD2I2fOnMH48ePx1ltvubpEOotYe2AR6zzan/9zbbyG+HwmKhTRcVNloFKchvw5/Lkc3nvcwGtfGfh0mepI/hkWsfbAItYZWMRGjh9FbDp09yldSEPZQiaK59Nxew3Nujf5855EHDtj4r1FQbw+T3Uk/wyLWCZcWMSyiJUFi9jIYRHrPkh4LtxsWs9qtPY2kHAi1IeVSLS+P5wkfw5GoVKga3dv1UFEO/5d5dsLi9grMGfOHCETqLwryYTExEQWoC6idu3aeOONN0Q5Yr9J2E2bNmHFihWYNm0ajh49Kl4OoK9/n58sYuVCQjZ79uwoVaoUChQoIDJl6SUBmquBgLsXh3azf/9+vPDCC/j4449Vh3JFWMTaA4tYudDiNzYTUKpAKFv2hrIa2tbURU9ZP0F3u91HDQz71sCkJaqjuTIsYu2BRawzsIiNHD+L2IuhzjBlC2moFAfUvEbDTZU01LrGf9s1J8+aeGaGgekr3HtOsYhlwoVFLItYWbCIjRwWse5hQ2IQy3dqmLnSxO5jwNEzJlLPh55jGVuhzaFHrOOA6kCiHf+t7J2BRezf2LlzJyZOnIgpU6Zg7969qsNhLkOuXLnQp08fIf78VI543rx54qDyw1SamuTrP8EiVi00T6mnbI4cOfDEE0+gQYMGImPWDwSDQWzZskX0Kp49e7bqcC4Li1h7YBGrjkzWM2f2WCBfdg3XloCQsj2b+KdsMQmQJdsNPDrJwB6XtqVmEWsPLGKdgUVs5LCIvRQqT0z3pTzZgApFQi8LPdhQR6GcqiOTx9EzQOuRada1RHUkl4dFLBMuLGJZxMqCRWzksIh1B1N+NTD4KwNJqcCJZNXRRDXbrKOzddDGXnSdzC6ERaw9sIi9iE8++QSvvPKKyDBMS0u7+r/ASIfmzcMPPyyEhh8kLJUeHjNmDBYsWIB9+/aJeUmSKyOwiHUPmTNnFlmx1FN2yJAhuPXWW1WH5DiUof3RRx/h+eefx6FDh1SH8z+wiLUHFrHugDa/A9bzdtbMQLNKGjrU1tGuVvQvlUmCzF1noP/nBhKOq47mf2ERaw8sYp2BRWzksIi9Mtqf9yV6aah+KaB5ZR1Pt/DHy0LbD5uo8Yq668g/wSKWCRcWsSxiZcEiNnJYxKpl66Egun1oYtP+0D2QcZz11nG7dexRHYgfiP7dJTn4XsSSLKDSw5QFO2HCBM6CdTllypQRGXZVq1ZVHYrtkGS9cOECkpOTMX/+fNFjk/q+/tuS2Cxi3QmVMC5ZsqQoW0yZsvQ9vVSQLVs21aHZDs1dus4PHjwYx465K2WNRaw9sIh1J7QBHpdbQ+PyGh5urKFacQ2xMaEN8Wjj0GkTr8wJin6xhsv2UljE2gOLWGdgERs5LGLDI1sscHsNHT2aUL/zgCi1nzkQumdFE9T7bdLSNPSdAQRdNjVYxDLhwiKWRawsWMRGDotYNdD97tuNJgbOMbDlYHTNKQ+QPgF/QqhM8cfWcdY6UlUFFK1E2XJdGb4XsdTLcNiwYRg5ciT3gHU5uq6LktGdO3dWHYqtJCUliTLDK1euxC+//IJ3330XhmFEPB9ZxLofkrLVq1fHddddJ66FVM6Yfm958kRPw8fdu3fjgQceEHOb5rVbYBFrDyxi3Q9tcLepoaFpRRP1SgUQl0dDrqwmsmaKnqX0V+sMvPCFge2HVUdyKSxi7YFFrDOwiI0cFrH/DqriQL1kb7+WsmU1lCqoI082Ezlio+e+tOOwid5TDfy01V3nF4tYJlxYxLKIlQWL2MhhESuf5HPAlGUmhnxjiBeEGaXQL+CEdUywjrEI9Y3l3GSbiJ5Vulp8LWIpE/aNN97AqFGjlMXAZBzKgt2wYYPqMGzh/PnzoocmlWz99ddfRd9XkkKUDWsXLGK9BZUvJjlImbJNmjRB2bJlUaJECfHnXufjjz8WAu3EiROqQ/kLFrH2wCLWW9Dmd6d6GqrHA9WL6yhdECiUK5Qt63Ve+tLAe4sMnD2vOpL/h0WsPbCIdQYWsZHDItYeWlbTUKekad2XAqgQB9FTNmcW72/30LnVc0oQR5NUR/L/sIhlwoVFLItYWbCIjRwWsXIhCfvpr4aQsAdPKQuDuTzfWMcH1vGddZxRHEtU4P2VuTvwtYjt0aMHxo8fr2x8JuPExcUJmdOiRQvVoUTE6tWrsXPnTmzbtk3IV5Kxhw87k8LDIta75MuXD40aNUK9evVwww03iJLc8fHxqsOKiI4dO2LWrFmuqTzAItYeWMR6l2J5gAblNJQvAtQtqaNReW8L2U2JJh78yBBf3QKLWHtgEesMLGIjh0WsvWTJBNxcWUONEqH7UvXiGgrlUh3Vv+fAKWDAnKDIlHELLGKZcGERyyJWFixiI4dFrDyo9cCctSb6fRZkCeteDlrHm9bxnnWcUxyL52ERaw++FbEfffQRHnroISVjM+FDG/204e9Ftm7dKrJe6SuVZyURm5iY6Pi4LGKjAxKGlB1LMvbWW29FxYoVUaRIEdVhhc3atWtRt25d0QvZDbCItQcWsdFBxThNiNhKRTRULgrxvRd5/gsT4xcFkXpBdSQhWMTaA4tYZ2ARGzksYp0ha2agRD6gRrxmHTrKFwZuqaohIG9/3jY+X2WK0vmJJ9xxnrGIZcKFRSyLWFmwiI0cFrHy2JhooNtHpvU1uuZQFEKZT62sY7XqQLyON3eI3IcvReyCBQtENiwJMcYbrF+/HtWqVVMdRoY5efIkZs6cKeTTunXrsGvXLpH5euGCvN1hFrHRA/WSDQQCqFSpEsqXL4/GjRujZcuWKFeunOrQwqJLly6YOnWq6jAELGLtgUVs9EC9ZPNn11A4N1CtuIYa1tGsElC1mHeW3HuPA82GpeHASdWRhGARaw8sYp2BRWzksIh1nlxZNVGquFJRoGa8jo71TJQu4B0je+wM8OR0A1+sdsccYRHLhAuLWBaxsmARGzksYuXRa7KBSUv5/uYRllnHw9bxu+pAvIx3doXcjS9FbKtWrTB//nwYBl80vUDbtm1FBnOePHlUh3JVSLz+/PPPmDBhguhBnJSUhNTUVCWxsIiNTjJlyoScOXOiYMGCqF69uihd3LNnT8TGxqoO7arMmzcPrVu3Vh2GgEWsPbCIjU4o64j68+XPAdxSRUPrGibql9aRJZP7l98D5hgY9q071ncsYu2BRawzsIiNHBaxcsll3ZeK5DFRKU5D5/qadV8iSev++9L0FSZemR1EwgnVkbCIZcKHRSyLWFmwiI0cFrFymLLMwNMzTCSfi675E+V8bB0Pqg7Cy7h/xe0NfCdi58yZg969e2Pfvn1Sx2X+PT/88AOaNGkisgLdCGVWU4zDhw/H/v37RdZrSkqK6rBYxPoAypLNnDkzsmbNimbNmuH5559HzZo1VYd1RejcaNCgAVauXKk6FBaxNsEiNvrJZD3bxmYKfe3dXEezSibqllTz5nFGoLLEBZ5Igxsei1nE2gOLWGdgERs5LGLVQC8LZfnzvnTHtTpeuUNHYRf3kr1gXVLuHBvED5vVn2ssYplwYRHLIlYWLGIjh0WsHEo/m4ZDp6UPy0RGknU0sY41iuPwLO40Mt7DVyI2GAzirrvuwhdffCFtTCYy6PdFgrN48eKqQ7kEEkqU/TpmzBh8//33QsC6DRax/oT6yb755puidDFlyZKsdRMk7Sg+1bCItQcWsf4jxnqub1oJ6FBHR/taOjLHwHV9+24fnYaFLig8xCLWHljEOgOL2MhhEese6pYCbqqs46mbdcRal90Ydy1/8fLsIMb9aOLsebVxsIhlwoVFLItYWbCIjRwWsc4zbpGBF2YZOJd29X+WcRX0gDfNOuRskEchLGLtwVciljZv+/bti61bt0obk4kMEnt9+vRBjhw5VIciSE5ORmJiIiZPnozBgwfDNN27cGMR618oezw+Ph4DBgzALbfcgiJFikDX3WFKqGR35cqVceKE2vpsLGLtgUWsf6EiFdQ/9qkWOppXAvJl16C7ZHW+ancQNw5Rf39mEWsPLGKdgUVs5LCIdR95s0PI2LvqaiiSWxNZs27g6w0GHp9iKM+gYRHLhAuLWBaxsmARGzksYp2F5GvDN4LKzhEmYkgGXWsdavoHehyXbPV4Hl+J2LfeekuIolOnTkkbk/n3FChQQPSGdUtPyd27d+Ozzz7DpEmTsHnzZldLWIJFLENCtkWLFujevTuaNm2KfPnyqQ5J9E1+6qmnMHHiRKVxsIi1BxaxDAnZu+sBXerraFRed82md7Fn0nDyrNoYWMTaA4tYZ2ARGzksYt1LnVLAE8013FghgAIueJ+XzrJmQ4NYuctUWjqfRSwTLixiWcTKgkVs5LCIdZblOw10/dDA3mPShmTsJcE6OlnHEtWBeBEWsfbgGxF7+PBhsYH76aefShmPiZybbrpJiMSqVauqDgVLly7F2LFjMX36dBiGNx4mWcQyF0PXv65du6JatWpK40hNTRXnElUnUAmLWHtgEcukUzwf8FhTykICiuRWn4F/93tBfLVO7eYKi1h7YBHrDCxiI4dFrLvJl8O6F9TV0LWBhkpxuvIy+i98EcTohSaCCqcLi1gmXFjEsoiVBYvYyGER6yzjrfvZa9bPezxZ2pCMvRxF6Bo/RXUgXoRFrD34RsQuX75cZGEtW7ZMynhM5PTo0QOvvvoqChYsqCwGKp86e/ZsjBs3TkibtDTvNAJgEctcDGXH3nrrrejVq5fyLPNff/0V119/vdIYWMTaA4tY5u/cc11IJhXPq3bHe85vJu55X51QI1jE2gOLWGdgERs5LGK9QdOKwGt36rg2Xu19ad76IO6dYApBqQoWsUy4sIhlESsLFrGRwyLWWXpODmLachMX1D5iMv8eFrERwCLWHljEMq7lzTffxLPPPqts/JMnT+LDDz/E8OHDsX//fmVx/FtYxDJ/JxAIoEaNGqJ3bJs2bZTFsW3bNtx///3iuqwKFrH2wCKW+TvUJ7ZDHeDVtjri86nb9N53HKj4gtqXp1jE2gOLWGdgERs5LGK9w/VlgNFdKDNWXf3848kmyv8niJQLykJgEcuEDYtYFrGyYBEbOSxinaXju0F8vSG65ozPYBEbASxi7cE3IpZ6jfbp00f0J2TcT6VKlYQAbdmypbIYKBOWsnIPHTqkLIZIYBHLXI6YmBhUr14dgwYNQqtWrZTEkJCQIF6MmTlzppLxCRax9sAilrkcsTHA7dcCg+7UEa8oM/bQaaDF8DRsP6xkeAGLWHtgEesMLGIjh0Wst6hSFPj4YQ2VFcrYZsPSsHynsuFZxDJhwyKWRawsWMRGDotY50g8YeDBjwws+UPKcIwzsIiNABax9uAbETtq1CghYhlvULduXSERGzRooGT8jRs34sEHH8SqVauUjG8HLGKZK0GZsS1atMDQoUOV9GAOBoOYPHmyOMdUwSLWHljEMlcik/VM3K5WqBxksTzyZeypFOu8mxEqH6UKFrH2wCLWGVjERg6LWO9RoQgw5RF1MnbwVwZen6duvrCIZcKFRez/sXceYFIUTRj+ZvfIOWeUnHPOSFKSIEFAEQliFn9FEQEjKiCIYALFhBGQoCJRcs5IUJLknHO+nfm7ejg8kXDH7XTPzNb7PO3dAV7X7dX2dNfXVcVCrCpYiE04LMQ6x8wNFl4cY2LTAX/5TITBQmwCYCE2PLAQy7iSihUrShGxatWqyuembD3qoblmzRrlc4cTFmKZW/HCCy+gV69eSJdOQbTyGkaPHo22bdsqnzcGFmLDAwuxzM3Ikgbo2zyAByoHlG/cT523BZKRi/QFB1iIDQ8sxDoDC7EJh4VY70EVGzpWN/De/UEYGiJKg6aZeO1nFmIZ78BCLAuxqmAhNuGwEOsc0/603x9bDvrLZyIMFmITAAux4YGFWMaVPPHEE/jkk0+Uz2uaJoYOHSqD/V6HhVjmVuTNmxcjRoxArVq1ZJasSliI9QcsxDK3omJeA++0CKCS+BhQuHunAPB3S6LxzPfq5rwWFmLDAwuxzsBCbMJhIdabZEsj3mvNAmhXMYAoxYmxK3eGULO/vvccC7FMfGEhloVYVbAQm3BYiHUOFmJ9AQuxCYCF2PDAQizjSnQJscuXL0elSpVgWd5/uLIQy8QFKlH8zTffIEuWLErnJTHt4YcfxrFjx5TOGwMLseGBhVgmLnSsDrzaNIgsqdVu3xf9baH+e/pENRZiwwMLsc7AQmzCYSHWu1TMAwxuG0CZ3OpL56d4IvrW/8ghWIhl4gsLsSzEqoKF2ITDQqxzsBDrC1iITQAsxIYHFmIZV6JDiD106BBq1qyJTZs2KZ3XKViIZeLKL7/8gqZNm8JQWKPtzz//xHPPPYfff/9d2ZyxYSE2PLAQy8SFrGmA4R0CqFM4gKDCmDcLsf6AhVhnYCE24bAQ611SJQX+V9/As/UCSJZYbWiJhVjGS7AQy0KsKliITTgsxDoHC7G+gIXYBMBCbHhgIZZxJTqE2DFjxqBNmzZK53QSFmKZuEJZ4PPnz0eiRAqiMldgIdYfsBDLxJX2VcRhvVUQaZOr28KzEOsPWIh1BhZiEw4Lsd6man47YF1WcVYsC7GMl2AhloVYVbAQm3BYiHUOFmJ9AQuxCYCF2PDAQizjSnQIsVSiVZco5AQsxDLxYezYsWjZsqWy+SJNiP3qq6/Qp08f7Nu3T9mcKmAhlokr6VIAS3oFkTM9C7FOwEJseGAh1h+wEMvEhRRJgCHtAnigEguxTsBCrD9gIZaFWFWwEJtwWIh1DhZifQELsQmAhdjwwEIs40pUC7FTpkzBAw88gBMnTiib02lYiGXiQ7NmzfDzzz8rmy/ShNjp06fLn/evv/5SNqcKWIhl4kO/lgE8Uy+gbBPPQqw/YCHWGViITTgsxHqf9lUM8b4LIntadXOyEMt4CRZiWYhVBQuxCYeFWOdgIdYXsBCbAFiIDQ8sxDKuRLUQ+8UXX0iR5PTp08rmdBoWYpn4QGvy+fPnlc0XaULsxo0b0bVrVyxYsEDZnCpgIZaJD0/VCWBAqwBUtaNmIdYfsBDrDCzEJhwWYr1PwxKGDFrny6QuvMRCLOMlWIhlIVYVLMQmHBZinYOFWF/AQmwCYCE2PLAQy7gS1UJstWrVsGjRImXzqYCFWCa+WJa6TWWkCbH02rZu3Rrjxo1TNqcKWIhl4kNA7N5PfhwlP6qAhVh/wEKsM7AQm3BYiPU+BbIAn3cMovydLMSGGxZi/QELsSzEqoKF2ITDQqxzsBDrC1iITQAsxIYHFmIZV6JaiK1atSoWL16sbD4VsBDLxJdBgwahe/fuSuaKNCGW6N+/PwYMGOCrEugsxDLx5fQnLMQ6AQux4YGFWH/AQiwTHyY8HUSDYizEhhsWYv0BC7EsxKqChdiEw0Ksc7AQ6wtYiE0ALMSGBxZiGVfCQmzCYSGWiS8sxDrL9u3b0bZtWyxfvlxp9rGTsBDLxBcWYp2BhdjwwEKsP2AhlokPLMQ6Awux/oCFWBZiVcFCbMJhIdY5WIj1BSzEJgAWYsMDC7GMK1EpxO7evRtNmzbFmjVrlMynChZimfgSSUJs4cKFMXXqVNxxxx1K56XX+NVXX1Xaj9dJWIhl4su2AUFkSa1mG89CrD9gIdYZWIhNOCzE+gMWYp2BhVh/wEIsC7GqYCE24bAQ6xwsxPoCFmITAAux4YGFWMaVqBRix44dKwWhPXv2KJlPFZEkxCZJkgR58+aVP7MK/v77bxw4cEDJXCqJJCE2a9as8v1BGaoq2bt3Lxo3buybix+RJMQmTQSUvUPN9vPsRWD7EQun/KHX/4vPHjbwYGU1B2YWYv0BC7HOwEJswnGDEFslnwFDwaMpZNrPpUOnnJ9LNSzEOoOfhdiCWQ1kTKluPtrP6IKFWBZiVcFCbMJhIdY5WIj1BSzEJgAWYsMDC7GMK2EhNuFEkhBLohoJNHfddZeS+d5++238/PPPSuZSCQuxapg2bRruuece5fM6QSQJsdnTAqMfV3PQ23LIwoczLKze5b+DXq/GAfRuoiY4wEKsP5jyXBA1C6o5+rEQ6w8iSYid3SOIKAUuc+4S8OFME7+t8Z+/sBDrDH4WYulyUJ3C6nymRn99zyUWYlmIVQULsQmHhVjnYCHWF7AQmwBYiA0PLMR6nKJFi8pehyq4ePEiVq5ciR07djg+FwuxCSeShFgqL0s/63333adkvkcffRQjRoxQMpdKWIhVR9++fWWJYq8TSUJsnowG1vdVc9Bbs9sWSPwWHCD+eD2IAlm4NHG48bMQu29wlLIAMAux/iCShNgTH0UhkYJH0+kLtkAycqH/RDUWYp3Bz0Lst48E0aJcZPgMC7EsxKqChdiEw0Ksc/hViA0KVymT20DeTGp8hl6/1bu0+QwLsQmAhdjwwEKsx3n66afx6itqgvlHjh6RwgEJl06jUog9deoU6tatixUrViiZTxX58uWTwnmaNGmUzMdCrPeJJCE2KioK7dq1wzfffKNl/hMnTuCpp57CDz/8oGX+cMFCrDPsPS7W1AkmRi/3X/Dy9CdRCCjaxbMQ6w9YiHUGFmITDgux/oCFWGdgITZ8sBCrDBZiWYj1NCzEOodfhVhqv/TKvQYerKTmdfxygfCZX1mI9SIsxIYHFmI9To8ePTBgwAAlcx0+fFgKJ99//73jc6kUYomqVati8eLFyuZTQcGCBbFp0yZl87EQ630iSYglmjVrprXE9NatW9G8eXOsX79emw0JhYVYZ7DE+e7t30z0m+y/4CULsc7AQmx4YCHWH7AQG37ISxZtsdBgsL73h1OwEOscVOGj6jv+8xkWYp2Dhdh/w0Ksc7AQm3BYiPU+6ZLb59UoNS+j3DP3+ImFWC/CQmx4iBghlkQ9EmKjo/VtYp2AhdjwwEJswokkIZbmoj6xR48eVTKfKoYOHYpu3bopmcsNQmyVKlXw1VdfoVChQtps+OOPP9C5c2esWbMGpuk90Y2FWOcgIfadSd7ziVvBQqwzbDpgSUFo+p/+Cg4QLMQ6g1+F2CTiLbe+b5Ts6+00kSTEEku3Wagz0H+iGguxzkGCToW+/vMZFmKdg4XYf8NCrHOwEJtwIkmI3X7ERNevTSzeqmQ6ZaRLAewZpOa8SrAQ611YiA0PESPELl26VAb9/Sa2sRAbHqg08ezZs2FZ/tmIlSlTBqtWrVI2XyQJsRMnTpTvBcpo9BMkBpYsWVLJXG4QYvPnz4+BAwfKrFSdzJ8/H3369MHy5ctx/vx5rbbEFxZinWPgVFOKsZd9FL9MngQ4+D4LsU5w4pyFfpND+GimkumUkTwxsLV/FFKzEBt2/CrEdqhqiwapkzo/Fwux3ofWllGPBVGrUGSIaizEJpxUYm35slMQjUpGhs+wEMtCrCpYiE04aZMDHzwQREtFF0UiSYglWn8SwuR1/vIZFmKZuMJCbHhgIdbj9O/fHy+99JKSufwsxPbu3VsKeV4TQW5EIBCQ/YMpw1EVkSTEkmhP/T03bNigZD5VqLyI4AYhNlWqVFJEVCUk3gh63detWydL6NPrsXfvXoRC3ghasRDrHONWmugzwcQuHyXeNygOjH8yCgYLsY7wwQwTL4/zVxZ1nSLA6MejpCCrAhZivQ8Lsc6xdreFFp+Y2H/CPz5zT4kA3m0VQL7M6uaMJCH270NAoyEh7D3uH5+pU8R+DYtmUzcnC7HKYCE2goTYNsNtUc2DRaluSLY0Bma8EIU7M6r5HbIQ631o/7P2DRZimVvDQmx4iBghloL+FMCdPn26kvlUsWzZMlSoUEHJXH4WYr/44gv5s50+fVrZnE4SFRUlhUkSY1URSULsoUOH0LJlSyxYsEDJfCrIkSMH9uzZo2w+NwixRKdOneSFBRJldXPgwAHMmjVLlkueMWOGbnPiBAuxzjF/szikjDWxdreyKR3nqToGBrQKshDrEH4UYh+paeBd4TNJFIkGkSTE7jth4bVfTPywxF8Bpf6tAuhaM4CkCnwm0oTYPcchg/Q/r/bPOtOwhCFFpnyZIiO7UbUQe1gcrSngOma5f3zmvrIG3rovgDszRobPsBDLQqwqVAux7041MUiMsxeVTek4FfIAc3qoO3tEmhDba7yJEXNNnLukbErH6VLDkFnUqmAh1ruwEBseIkaIPXPmDLp3747PPvtMyXwqyJUrlywlmi5dOiXz+VmIJVGodu3aOHLkiLI5nSRx4sQyC7x06dLK5owkIZYgAe+HH37ApUv+2IXRz/Pll18qm88tQiyVJSffKVGihFY7YrN69WrMnTtXCsQ7duzQbc5NYSHWOfYeB7r9GMJUH926/fGxIO4trW4LH2lC7C+rqU9sCLuOKZvScd5obuDZekFlQlMkCbEXLwOfzA6hzwT/rDGZUwPjnwqiTG4160ykCbFnLkIKJH01Bl3DzfMNAnjhHnUiExFJQuzJ8xYGTDEx9Hf/rDM9GhpynU6WiIVYJ2Ah9t+wEOscszaa6PSliSP+yMWQPN/AQN/71J1XI02I/WmFhR4/hXDolLIpHefbroZ4HVmIZW4NC7HhIWKEWIJ6AZJQdOqUP1bN+++/X2ZypkyZUsl8fhZiCcoI3Ldvn9I5naJs2bJYuXKl0jkjTYj9+OOP5c98/PhxZXM6yY8//oi2bdsqm88tQixdZHnvvfekEO02KCt25syZmDNnDpYsWaLbnOvCQqyzvPmriY9m+eem9l9vBXFHBhZinYL6N1IAc/l2/wS8pz0fQLX8AWVZ1JEkxBITVpn43yj/BCHrFjEw9IGAXK9VEGlCLEFByI5feKN9wq3IKI7Q77cNoEU5de85IpKE2JBpt1ogscMPpE8h9r4tA1KcVAkLscpgITaChFi6KFLprRB2++gC47o3g8irsMJDpAmxdFG68dAQthz0z1lr96CgeLap8xkWYr0LC7HhIaKE2IkTJ+KFF17A5s2blc3pJCQ8PfnkkzL7UQV+F2Kp1+67776rdE6noJ+F+gerJNKE2GPHjqFixYrYunWrsjmd5OjRo0ifPr2y+dwixBKtWrXCgAEDkDdvXt2m/AvqHXvy5En5u6G+xOPGjZN9zunP3AILsc4ydqWJ3uNN7PFBgKBhiQA+7RBABjV3xySRJsSSYP+iONiOXOiPgHfeTMDPTweRL7O6Y1+kCbHLttvBkOXblU3pKCSqdaweQGJFS3UkCrErdwLPjzKxYof315nyeYB3WwdQKU/kiGrVChgY/2QQKRX0UI7hz73Asz+aWLzV+z5TMhcwoFUANQuq85n1e0Oo9Ja+oD8LsSzEqkK1EEu0HhbC5LX+ENXK3AEs6Knu3EFEmhBLPPxFCBNWWfKikdehZ9riXmp9hoVY78JCbHiIKCH28uXLaNOmDSZMmKBsTqcoXLgwxo4di2LFiimb0+9C7Lx581CrVi2lczrFuXPnkCyZwhpbiDwhlnjggQcwevRomKa3d2GPPPIIhg8fjmBQ3SbWTUJswYIFMWLECNSsWVO3KTeEnl/nz5+XpbCpEsLkyZPlmqUbFmKd5VI0cO+HIczf7P0AQb+WUXhUPGJV9G2MIdKEWIIOt/0mmzh+Vum0jvByY8iyxKmSqjn2XRTvt1d/1hoAVi7ERosf9fVfTLw/3dv7GKJagQAGtg6gVC51c0aiEEs+M2iaib6/et9n/lc/gDeaBxClNu6vVYiln5WeS+lSqJvz6BmxB5hsYdhs72dSU0bxe20CSt9zmoPWLMSyEKsMHULs3M0hNB5iwfL+UUv4CfkLC7FOM2xOCL3HWfLc4HWerQ+804KFWCZusBAbHiJKiCVIhO3WrRv27NmjdN5w8+CDD2LQoEHImjWrsjn9LsQS9evXl+VAvQyJIiSOqGTVqlXSN3QJQ7qE2BUrVkjxjgQyrxIIBLBp0ybkz59f6bzr16/H//73P1l61w306dNHVkxIkyaNblPiDPldz549pTAbHR0tRyikNsgVSUJstjR0wDVQKpfaw16fCSEMn2PhvIfbURfNDnzVOYjiOdRu3yNRiN1+xMTj35hYuAXwckypkNjeDu8QRMU86nzmwmU7APz5vMgRYokFWywZEFmz27seExBu8mbzAJ5roPa1IyH2xTGmWKP1+czhoVFIrqY40lWo1GyvcSb2eLg7R9Y09vutQ1XFKiz0CrHE7kFRssSuSr6Yb+K5UaanM4gKZTUw8P6ALIGukqEz7PebLliIZSFWFQ2KAUPaBXBHBrXrcrMPozHjL6VThp1qBYDpz6s9cxCRKMQSd7wYjSNnlE8bVuhC0Z73opAyidp5WYj1LizEhgetQmy/fv1kIF41zZo1w6RJk5QHrMMFlQ/94YcfcPfddyudNxKEWCr7WbduXc8Ka9TvkkS1TJkyKZ1XtxCbPXt2KQg9/PDDyudu3769kveEU1AW+KhRo5Re6iAoE7ZLly7YvXu30nlvBAnR9DpQf2VDVTPCMEF9ihcuXCj7/C5duhRnzpyR67WKTO1IEmLTJReHzdZBPFhZrX9sPmjioREm1u9VOm3YoEMeZTY+eZe6zMYYdAux1H9w0ztBJE2k9ud+//cQBk61cPKc0mnDBvnM/+qLU3KDINIkiywh9qk6AVkqVTUvjQ1hxDwLFy8rnzrBBMXLVaOggbfvC6B0brXvNRKVqr4TrXV97tkogFeaqvWZA6dMvDzOxLgV8KSwRsJ9w5J2KescadW+ducuWcj0rN4YhA4hloQdyh6fucGbFz4ok7hVBQNfdFQf8GchViksxGoUYkvlMuQeqHoBtc/yVTtDaDDYu5de04oz6pedDNxdXP36pFuIbVzSkJd9UygWE79eaMqLeOc86jNJooDnGwTwUiO1FR4IFmK9i7eipO6luRikICRXPTGVwKTstZ9++kn11Pj7779xzz33eLK3IwnYPXr0kMFo1ZlbBw4ckBnMv/76q+NzUcnXjz76SAqLKiFxnrKNqdysF3nzzTfx4osvSj9RiW4hliBB9Ntvv1U+L2V2UlYsiWFeI3PmzBg8eLDskZokidrdK73H2rZtq3TOW9GrVy+ZGau6rHc42blzp3w/fvPNN9i3bx8OHjwo/8wpWIhVw6S1Ftp9GvJkwLtMbuC9NkFUyqv2dYsOARNWW+j4hb6Ad2qxlIx63ECtgmpPuLuOmXj6OwuzN1nwWuX8xFFA5bzA680CwmfUCiQUgHvyuxDGLNcnFFDp7qMfqM9o2HPcRNevTSzYYmd5eokc6exs2LYV1QvYtCanfkpvdqMOIZaYuMYWY7cfVj51gsmcmrJhDXSspj5oPWltCPcP0/smW/dmEHkzqd/LfDrXxFsTTRzzWOl8up9JlT1oL1NDsUBEvPGriXensBCrCBZiI1CIJf43Khoj5iqfNsGQAEnVQJ6tF1BeHeP0Bcg1/SON7RmKZDPk+qS6UgHRdWQ0fliifNqwUK8oMPyhILKlVfu6XRLH8qG/m7ItiiZYiE0ALMSGh8piUNphGR2TlypVCn/88YeOqWU/RMq69BIkrlHp3Ndff11mbamGBOzatWtj717nr31XqFBBlpqtVq2a43PFxrIsLFiwQPbM3Lx5s9K5E0r58uVlZib1u1TNtGnT8Mwzz0ihRBe6hFiCeuN+8MEHMgvRK6RKlQpPPfUUunfvjowZMyqf341CbO7cuWW1hOLFi+s2JcHQWkbZ8fSMpfcnZR7/9ddf2L9/f1jniSQhlg63lK1GApFqKBzS7tNoTNSzZbptMqQ08Gx9A11rGkitOBv21Hk7mPfNIn3BAfIZCih1qq7eZxb8DTz5bTS2HlI+9W1DN7Kr5Ad6NzFQPT+9Zop95gJQsW80dh9TOu2/0CXEEuNWhvDWbxY2H9Ay/W2RMinE+gJ0qxdE5lTqwwNuEGI7Vgvg4/Y6nksW+k8OYejvdjDWK9Blj/vKBvBOSyBravWv28CpWgOQkg8fNNC5unoR+sgZSz6Xx6+0cMlDvfUoc+j15ga61VX/mhF1BoawdJs+8Z6FWBZiVZEzHfBWiyBal1f/PD9yJoS2wy0s9liuzt3F7UsieTKqf83W7bHX9Lmb9K1POoXYNXtMdPnSwob93rrBWDwH8Mq9BhoUDco9kUr2Hrfw+q8hnQI2C7EJgIXY8FAM9qaivo7JixQpglmzZikviUlQkJrEti+//FL53LcLiZPDhg1DuXLltMz/559/KhModAmxxIULF2Q2GWXGeUVYq1SpkhTo77rrLuWZjcTnn3+Orl27Kp83NvXq1ZMXLPLly6d8bioFS5nINL9XIF+hbNjSpUsrn/vkyZOyxzUJ2G6jRYsWGDdunG4zwoc4F5y/cB7btm2TouzUqVNlxixdNKGesgklkoRYolYhA5P/pycQt/uYic5fWbLcrhdIlghoVT6APk0DMrCiGsq46fxVCL//qTe7kco+9W6iPthPTFhtovc4EzuPapk+XlB52Sri8f1as4D4aMDQcNQ7cQ7I0V2vOkABkanPqc8gJ0hYm7TGLh+6/Yjy6eMNZanVLAiM7BJEJg0iLEFlVu/9QG+Z2ZzpgU1v6xHvD5+20Hu8idHLLER7JPu+7B3AJw9FoUQOPfM/9X0IXy/Q+xyn51Lf+/Q8lxZvtfDGryGxl/FOWesn7gJeuDuArGn0vGZ5XorGoVNappawEMtCrEr6iD3zy431VLhYtt1E34kkLCqf/rYoJ55nvZoYuKtwUF4YUY0bhNjcGeyqKK3L6/GZcStp3xzCQY1rdHygdfwVWREkIM7q6vfOmw9Y6CF8RuP5fJ8Y1M9uhi4DvAwLseFBqxCbM2dOfPbZZ2jYsKGO6WXZRhICSNx0M1TGmYS2p59+Gu3atdNiAwXsP/74Y2U9fakP7sCBA9G5c2cl810LlZklvxgyZIjrxVh6rUiEffTRR7WIsGfPnsV7772H1157TfncsSlZsqQU7+vUqaN8burFSRcVqDT02LFjlc8fX6gaQd++faV4raMM7549e2Qpa7e+VhMmTEDz5s11m+EI9Npv375dZsaOGTMGa9euTVAme6QJsRXyAD8+FkA2TcG4hX9b6Pp1yPXCGolJFDii7OFCWfVs2fedEL+vvtFSXNMF9SG8q7CBX7vpEe+JaetNdB/j/vKhFfPYN/rL3qHviLd8Rwi1B+gVSKgPIWVRP1ZbzxpDzNlkodsPIddnU5fMBQxtFxS+o89n3vrNRL9J+tWks8P0CLHE1kMWOnwRwh+7tJkQZwplAz5+MCgve+iiSJ9o7NL8DG9a2sCox/Q9l1bttPDCGMry1GZCnHmuAfUsDyJjSj0+M3ezhXbDQzh5Xsv0EhZiWYhVyeO1Dbx6L/mb+vfc5RDtBe0S6m4XY0vnBl5taqBWoQCSahDUiMlrLXm5SOdFERKgX7gngF4axHvizEVg5CIT7001XS/G0sXoLjUDaF/ZQHbFJYljWCme/88In1mzW8v0BAW+KopxQpsFHoaF2PCgVYilTFgSTnSWp6RyjSS4UUnXXbvceYKk/pMjRoyQwnXy5Mrb+UouXbokA+Akxqqif//+eOmll5TNdy0kxtLPS2Ls0aPujHqXKFFCin/Vq1fXUl6WoP6T1LeYRB2d0PujX79+skSxDqi/MJV+JVF8/PjxWmyIC1S6mnyaBGsdwj1BJXPp97RixQot89+KvHnzYuLEiShatKhuUxyFnn+HDh3CjBkzMGXKFMydG//GOJEmxObLLDZNban8kZ7DHvU9XbHTxNcLTXy7SIsJt4Sy1BoUo9cpiDsy6NuuU3nZwr311z4kYXF+T30Bb+r3SUHv7xaHMEJfG/ebMvB+6lUURMEseo93A6eG8PoveoVYEu+71DQwpK0+nyGoDOa7U01MXefODPy2FQ28eE8AhbPp9ZnWw6Ixea1WEyRfd9FTyjGGjQcsDBL+8uNSd/oLUSS7nT1dLLten8n0bDTOXdJqAlIlBQ68r0+8JzYftPDwFyGs1ReMvSUv3gM8Uzco2yzogvZ7PX4ycfaiNhNYiGUhVin1ixno31Lf853E2N3HLHwy28T3iy3ZtsJtFM5Gl/YMVC+gJxM2hh+W2heEdUP9cd9pqe8CI7VnmLzWxODpFtbvdec+6M6MQP9WBmoWDCpby6/HFHGuaD8ihAuXtZmwQQx/B/kchIXY8EA1gfuK8YiOySnTs3Xr1vjxxx91TC+hEsXnzp3DokWL8Morr2Dp0qXabLkWKhn6wgsv4O6779YmssVAWY9ZsmSRH1XRuHFjmWlZqFAhZXNeC/28P/30k8z2dJNQHxUVhUaNGsn+nlWrVpVf64LKnHbo0EFmhOokEAjIctJvvPGGNhsoM5bK7n700UdS7Dx2TGOjuWswDAPNmjWT5ZMzZMig1Wdona1RowYuX9a3A7sZ9FpVrlxZPhf8Dj0DL168KNc6KldMYuynn36KHTt2xOn/jzQh9s4Mdh+aJqX0bUPFrww7jpr4Yr4p+6u47fYtZY50v8dE+uR6hSQqLdZ/sv5MtUJipz36iQAKZNYXICCfOXPRwoItlL1nYOVO/a8L0bxMEL0am8ifJYAkUfqPdq/+bOK9afpfGxKKlr2i9/1DAv6e4xa+XxLC1wvF5y7ZzhTIYpcJbVU+ChlS6LYGSPdMtCt6XfZrGUC3evrWGILKwf+0IhrD58B1fYZ7NwEeqgrkSqdXfPxuiYmnvzNloF83c3saKH+H3nXm4OlovP5zEN8scsELEgsKWHeuATxcVV8mbAwvjLH3ezrXGRZiWYhVSd5MBoa2C6COhp6fsTl90cSKHSYeG0l9LbWachW6rNesDDC4rYH0KYKyioou6DXpMyGEMcv1C481C4rzeasASubS5zOXQlSq2cSnc038ssrOlHUL95QAPmlviH2z8BmNj/2zlyx8OieEVyboswEsxCYI/ad1//CiGO/qmpxEpK+//hoFChTQZcJVKCC9YcMG2buQsvvOnz8vhRVVUPCfBgmPFGymTOGUKVMqm/9mnDp1CmnSpFE6Z926dWXGNGV9asWyfeOjjz+SwjiVaVbpFzHE+AcJjm+//ba0hT7XzfTp0+VlATfw4IMP4t1330X27Nm12kH+sn79epnVTf1GSXDU5TPkI1WqVJGliCm7XrfPkOhHPYWp1LqboeoDTz75JAYMGKD9NVPKlfVu2fJl8gLKzJkzpe/Sn9G4lkgTYon2VQx82kFv8JKwYGLaeqDXOAtbDlJ3R1twUw1lwFJg4OFqQbzTIoSUSaNcsUmnDJKPZ+kX1bKJrdOA1kG0LOeGV4UENhO//mEIvzHljX+VfhPjK9UL0M11oFQuPb1grwe9BimfdIGiJiCBkXymXSX9rw15yK5jIXw6B/h+sS22mYrXmRi/qVeU/MZC4az0TNb/2izdFo06A3VbYZNVrDNb++sVGW0sbDpoivXFwO9/mtJXdDyXCOo7XbOgvdaUzEn+ot9nuo4MYdRSS/l76HpQ6wDKKtfN+csWxq0MYcjvtoBPxyUdL0/MOtOyPPDWfUD2tEHtzyd679R6N4SVO/Q6DAuxLMSqZniHgPQ7N2BaIbw3PYi+v0bL96QcCuePWZsq5wNevReomt9AAPrPoTuP2r4ycY3+B1qOdFRdJ4hmpfU/5y2E7NjxzCi8MiH66j5Ih888XjuIfi1DMMRbKQD9e8QDJ+l8HpJ9dTVC2UPFdRrgZfS/w/yDViGWSkCScNKyZUtdJlyXP/74A/Pnz5dZbZQxe/r0aceyQanHJwX9qcdlp06dpFiSOXNmR+a6XSjzcvDgwcrnHTlypCxh6iYhhMrfUqlo8gsaJNiTOOsEiRMnRooUKaR/UF/Pp556SoqelE3uBug9MXToUPTu3Vu3KZIKFSrI9yxd8HALK1euxJw5c2SZ65i1hD46RaJEiZA2bVrpM02aNJG9TmlNIV9yA5QxTP2MdZeyjgt0+eTZZ5+VQmPSpEl1m6MFWt9ovdu6dau8VEBl2i9c+KdGUyQKsXWKAEPaBZAvk3ueS6OXWzLovXireI+ds2S2jVM3cWkDniyxPZKLUauQgR4N6fVwz9b8wmULGbq5I8MmRRK739Wbzd3x3I7NN4tMGXRbtg04dd7CRbGVCWfJTOoVnPyKr1Cvr4YlgC41DOTJ6J73TgyzN0ajyVDdVtgkTQR0qm5g0P3u8pnNB00s3AJ8MMPC4dMWok27HJsTpE1uB5Goh1W1AkCrcgEZfHQTbukPS2RJDax5I0qWnHULi7ZaGLfCxIIt1LPbFh+d7NlN75tkiez1Jn9mAy81CqB2Iff4DGU0VnorJEvyuoGaBYEpz+kPzMZmxQ4LA6aYWLPbwvlL9vPIyfKFqZMBQeEimVMbaFAc6FrTcNXebvwqEjpCsue9TliIZSFWNfQzD2oTEPtF96zhtBZ9NIueaRb+3GuJfTNdJAFCDrhqIvHrTiP2QcnFM61xqQCalrJQLb/ebMbYkLBIvnLvB+44axF97wvgmboB+dq5Bdr3DJ1h+8y6PZbs9U3PtnD7DAmvdN5KmYQqx1DJagOdawSQI21450kItKIs327hrne1+gztKGh9V9dv0We4Z0X2Po+KQfd5U2sz4NFH8cEHH2jrV3gzKJNt2bJl+P333zFv3jwZlKZANAlvJ06ckH1E4wr9fCS6xgT0c+XKJQW1rl27SgEpf/78Tv0YCYKEEyojum7dOuVzU9CdRD563dwECWnkF9Tjkj4eOXIE+/btk7106QYU+QgJbvGBeiYnS2afcOjnTZ06NfLkyYNatWqhUqVKWks034j9+/fj4Ycflu8Pt0BZ1CRYkyDpJki8Wr58OaZOnYrFixdLH6LSxTEiPvkMZZ7HFfIVKjEc83OmS5dOCofUK7dNmzZyTXHbhQ6Cqg54qfcqVWugbOL77rvPNWK2LqgH8ieffIJJkybJ/rLUFzkShVgqmfVOC3EodsGt22uhQO9PKyzsPW5hziZLZpocP0v9jmxbdxyJX2AliVhe0ienj/b/nyu9HRwod4cYdxryY/a07glaxvDbmhDaDHdHsJugfldfdQoinQtKqV4PEu1/WW1h22ELi7farxuVvL6dAHjiKEv4jCF9h3oql7/DQNk7LZTI4aLIyHV49kcTn89zh6hGkOg46jHqTajbkuvz/RILx85astcTCfj0+aVoe53YdcxCXIuAUFk9el+kSGL/v5lT2UIa9YClP3NLJvm1UKnv0q+FsP+kbkts6MLHq/cG8HQd963HxPiVlixJRz1kqdc5+cv5y/bv9sBJK15rDV3wIIE+hkziPZI8id0DltabcmK9KZjFfevN0m0hPPS55ZoSlxS0JfE+u4sCtTFsP2Ji5Q5gxU5L9pClNebAlffauUsx+5q4fz8SL3Kms30mCT2jUhjSjyh7KmVSAw9Wduc6QyUu3/7NxNEzeu1gIZaFWNXkFOeNEQ8HZAWVgAvfnpsOWDITlLLVSVzbfcwW3UKmJSuHxKenM12kSpbY/iHTJrfkxcVc6Q20KEfnLUN7efTrQZdkPpoVjTd+0W3JP9QoaGBwmwCKau4DfyO2ijMWnbXIZ46fs0s704XGaOEz8W3/kSnVP/tm8pnMqWjvY1eOqZzXnT8/lW7+dE40eo7Va4YYXcX4RqsVHsad3uVNqsHeWFTQZQCJfCSelCtXTpcJcebAgQOy5ChlAm7atEmKCnGFRBIqsxvT77V+/foya83tTJgwAS1atNAyd/ny5fHtt9+icOHCWuaPD7Nnz5ZCGokTJFrHtcdiDNWqVUOmTJnk58WKFXOtMB8DCc4LFy6U71838cgjj+DNN99EtmzZdJtyU0i4p7WELncQa9euxbZt2+L8/5PISln0MeXLixQpgoIFCzpiazgZNmyYLPnrJcjHu3TpgqZNm7ruUogOxo8fL3u7//LLL7Inc6QJsUS3eoYMeidL5O7tKGWtUTDl9AXbzolr4ncLNX0K8TzKEUDaZPb/f08JQ2s/orjS9tMQJv7hHiGWyhOTv3So6oEX7wpLtlk4Er/7ZBIKCFAQhALdXuHoGWHzKyGccSi783agIEuvxgE8Wsv9PnP8nL3OHD9r/86nrQ/JgEtcINGVeuJmS2P/nJXyGvJndzvjVpp45ntTBmDdAK3LjUoZGP5QQAZx3QwJaX8Kfzl40rZz0VZTvgfjCv18VHI4BroUlE1t95zbgrKnh8wwXbPO0KUqyhp+uZH71xjKpKaMIuLgaVNmo8VH6EiRmKqZ2EJWhpSWXHNSu/x9cvqChc5fmpi8Tv9ehoVYFmJ18FhtA6/fG5SZ625n+p+WvAx7KWRh/V4zXhduKuUNSCGNKJLdclVW/o04LM4HD3wWwqK/9ftJDJlTA0PaBtC4ZMA1mcM3g95r5y7aVZx+/yt+6125OwJXL6QVymahQGb3+wxV0Ll/WAjzNmv1Gdq1FxNju04jvIy7d07egupjDxGjri4DKPOvV69esmcglWH1Ctfrl3crqGej12jWrBl+/fVXbfOPHTtWlld1SzneuBAJvkGZnM899xw++ugj3ab8C8ocJvGeMkK9RCT4DEEXDhYtWqTbjHhBrzNdoKFnFAmBbundrQvyVbpI8Nhjj8nfZyQKsXTrdkCrgOxx6QWuri5WPANbRsx/jH++dDl7T5go9LKppcfczWhR1kD/1kFXlYm6FbfzGnrBR65lxDxTBh4vuqNF7FXo4sP7bYPI7ZH7P//4SzyaPHpwjTlyxsLj31iY/qfpSEnC2yVvJmDYQ3YGkRe4LX8hpJME/v2ly9lyyEKXr0ztvT5jY8h+3Qa+eeQfEcDNWP/6LJ4N92L5jPt/UpuZG+yyxBv267aEhViwEKuFLKkNzH0pKKvxeIHbf6Z5aw9EjF1h4eEv3FOWOIbWFeh8HpRZxl7g9s/n3vOZSWstKcRqhhpkeEdwciFe8TcvQI74oRiddBpBGUdUnrh06dI6zWCugXpb3nvvvfEusxtOqMzqp59+KjOKGfdAGZz16tXD4cOHdZvyH1577TXZ1zhVKg+kVUQQEydOlOuJV6FS0CQ+vvXWW54UwcMNZf5TZYhWrVopmc9NQmzKJAY+ah9A6/LsB26j/+Ro9J2o24r/UjALMKB1EA2Ksc+4CRLuO4ywsHS7hdu4D+UolJH+ZvMAOlX3hrAWKfywNIRXJ1iuKUscA5Wafbx2QPZJY9zF1wtN8Vwyr5bXdQu0xrzR3EDn6t657BwJnDhn4Z1JJr6YH7+y3U7BQiwLsbp4roEh9kFBV5YnjlRor1yhL10ScYePxCZtcgNfdAIaFBU+w1shV1HxrZCsZqGZMWK00W2El+GlOLz0FINSWrTdHaF+h/369ZP9Ur1QrjdSoFKckydPhhnXZk8OQGIalcIk0Y9xD9Qb9ptv3Flen/rtLliwAPny5dNtChMLKp1MYpqXoQoOVDL9ww8/9FSvW6egXulp06pJ8XOTEEvULWJgcNsA8mfmLalb2HbYRMtPTGw+oNuS/5IkSpz8Khro1dg7t/sjgY9nhfDOJEuWvnQjzcoYeLtFAHky8jrjBg6cNNF9tInf1ti9vdxGhTsNvN8ugDK52V/cwqHTFnqNC+GnFZD9cd1EMEAle8U62D6AHC7s9x6pzN5ooocUw3RbYsNCLAuxuqCyxFOeM1A6F18WcQvfL7Hw6EiXPcxi0aQU8FXnKHk5jXEHY5Zb6PSlK3ymjxhv6zbCy/DpIrw0E+M9MbSqFtR7b8aMGShTpoxOM5grUN/evn374vjxeDQ5cIiGDRtKQZhxB6tWrUL16tWv9jd1I1TunPpXRkVF6TaFEZBo37lzZ9lD2Q/kyZNHXkag7GtGDW4TYqm/2sD7KUAVhaSJdFvDEG/+GsKHMy2cu6TbkutDQYFvuwZlUI3Rz/zNlgz4rt3jvmzYGJKJtWV4hyBacfa9K/hxqYnXfolf/zeVJBZb3vaVgVfuDXqi3GwkMGy2iVd/Nl37XKK+en2aBNClBguxboCyYd+bFsIHM9xz2YOFWBZiddK0NDDqMY7nuIWc3aNx3KWXFwm6+NqnaQDPN+Bnmlso2CvaLftmugrtDks8Cp8swktBMb6GvcnQSsWKFTF16lSkS5dOtykRzd9//y1Fk/nz5+s2RUJlQEkU7t27t25TGAGVIh03bpxuM25KIBDAlClT0KBBA92mRDxr1qyR2fW7d+/WbUpYIR+jcvoDBw5EnTp1dJvje9wmxBKlcgUw9skAsnuo76df+W2NhR4/hbDzqG5Lbk6JHAF8/2gA+TLrtoR5frSJz+a4r5/wtRTNFsBXXQIonkO3JZHN/pMmeo83MXqZbktuTq70BgbdH5RZIYxeqAwfiUqzN7p7lSFfea9NADnTceBaN0u2AY+PNLHlkEtUWLAQCxZitULdgGb1ACreyWKsbjp9aWHMcvdfqqdS1tNfEG/cvOwzunnqWwvfLgkh5I5HGuuICYRfwPAzXozmcMFrO2LECDz00ENIkiSJblMiEspyHDJkCAYNGoRjx47pNucqJHpMnz4ddevW1W1KxBIdHS1Lsvbp0wfnzrn4KtwVKlWqJLPsU6ZMqduUiOXChQtSPPvqq6/k536ELopQ6XTKji1WrJjsZ809ZMOPG4VYokPVAAa3CSAZl0DSxuaDJp790cS8TbotiRtvtwAeqRmUvYYZ9VB50B+WWnj9FxMHT7kn2Hgz+jQFnqgdlP2vGPVcEj7zySwTfca7X7gnOlYDXm4cRI60Bng7ooejZyz0mxzCsNm6Lbk15CIvNQqgR8OAzCZi9LDrqIUXfzLlxTI3wUIsC7G6yZgCGPWEgSr5uESxLuZvCeHBzyzxbNNtSdy4q3AQ33U1xL5ZtyWRCVV0WLotJMV7l2TDUkniPrqN8Dp8pAg/5JQvQmOf2NgMGzYMjz/+uG4zIo7Lly9j5MiRMvP00KFDus35FyRsUHbj8OHDceedd+o2JyKhbHV6X+7cuVO3KXHm2WefxVtvvcVirAYuXrwo1xMqEb1vn0saHTlMixYtpM9lzJgRGTJkQJYsWXSb5BvcKsQSnz5M5SA5eqkD6u35yeyQGBaOn9VtTdwZ+gDwSA32GdXQjexFWy2Z2bhyh7sCjbeif2vg6TpRfAhWzOWQ2P+ut/DC6BD2uCOYFCeeqQf0bMjivQ7IZ35abqLrSHekgMSFbGntEsX3Vwhwbz0NHDlj4cOZIQyaqtuS/8JCLAuxuqF2MPeWNtCvZQA50vEzTTV7T1i4/xMTf+x2l1/cDOqB3qikgY8fDCIDhwGVs3yHiWe+N7Fuj25LrkLZXLN0G+F1ePUNP1XF+EGMO3QbQiRKlAhz585FlSraqyVHDCTCrlixQmZ1/f7777rNuS6JEydGs2bNMHjwYOTMmVO3OREFiSCPPPII5s2bp9uUeJE8eXL0798fHTp0kJmKjBoo+5WykSl7mkoTRxolSpSQGdnU3zpbtmwoUKCAFGeZ28fNQmyhrMBH7YOomo+3pyo5cxEYudDEgCmmZ25ox1AgC/Dhg0HUKMA+owrTAv7aZ+KdSSZ+Wa3bmvhD5ayHtgvirsLsM6qg3sHr9pp4fpSFxVu9E4AkcqYDXm8WQOsKAURxxVmlTFhlotd4E7tcXir/WqjNwoiOAdQsGJClHRl1vP97NPqM123F9WEhloVYN0CVhx6uauDN5gGk4Ioyyth2mKo7mOK5ZuG8S3ud34jUYs16pm4A3eoaSJmUfUYVVN3h3akmxiy3cPaibmskVOazwJWPTALgd5EzTBOjnhjaj2uU/VihQgUpoNx11126zfE9oVBIirCvvPKKa0XYGKh/cLdu3fDcc8+xsKaIzZs3y6zS8ePH4+xZD6UcXSFTpkx4+eWX0bFjR+4/rQASYWkdoUzYlStX6jZHKylSpEDBggXlpaJy5cqhcuXKKFSoEIJBLq0UX9wsxBIlclLJ2SjULaLbksiAysvO2mji5bEWNh5wX8AoLhTMCvRvGYW7i+u2JDI4eR54bGQ0Jnr4btCdGYEBraK4/6cith428frPJsav0m3J7ZFDbHlfaRLEQ1U5dKKK3cdN1B9kYrdHw320trzWLCB7UzNqmCDWl17jo10r3LMQy0KsW8ibCejZyECzMgFu76GArYeBgVNoD2S6RVCLN7nSizWloYFW5QNIxWKs49BzbNA0EmFNnHZPV7IvxOgmhvt767kcfgc5w8NiDBcjqW5DiKioKFSsWFEG86n/HuMcq1evlsImZTtaljs3XrHJnTs3evTogfbt27MY6zBbt26V78EJEybgzBmPpRzFgsQw6nvctGlT3ab4Gsqsj8mEXbXKo5FLh6BSxWXLlkW+fPmkHxYtWpTLrMcDtwuxVAKpVK6ALO3Hwpqz0DZlybYQ+oy3xEfd1tw+1LuxWHbbZ5qW1m2N/+k3ycLbv4U80ePzZpTKaWDMkwZypmOhxEm2HzHx4mgTU9fD0z6TNY2Bng0D6FqLwydOs+OoiZ4/mZ6+7EFeUrco8F6bAPJn5jXGaX5cCrw1MSR8x72rDAuxLMS6ifyZgR4NDTQvG0CKxPxcc4qdR4F3xL7551Umzlx0rz/EhTszAC/cY6B1+QBnxjrI/hO2z4xdYeLUBVf5TEMxpovhnX4RLoXfPc5AitYuuKRPLEEliikz9s0330TdunV1m+NL1q9fLzMFvZa5RqWJe/XqhYceeoj7fzoE9fXs3r07Jk6c6MlM2NhQWWvKSnzqqadw9913I3Vq1yxzvoEuccyaNQvPPPMMNmzYoNsc10IVH2JKFRcpUgQtW7aU2bKZM2fWbZqrcbsQS0RJMdZA7yYG7i7OAUynWL0rhCe+tdzUd+a2IQG/WHYDLzc2cG9p9hkn2HLQxHdLLHw+j3oKuyowcFskjgJalAXeaB5gMdYhKBOWelvN2+RtETYGEmOfb2DgqTrsL05Bwn330Same1y4JyjQVjEvMLxDAAWzsM84xXeLTbw7xcK2IxbcfA+ehVgWYt0GCWuvNjPQvHQQSRLptsZ/HDoN9Bwbwm9rgLMeF2FjoMzYXo3tzNjkLOCHHao61OOnEH5eBbcJ9/NhJxxu122IH+B3jnMMEqO7biNiQ5mxlEVEfUGrVaum2xxfsW7dOrRq1UqWnvUiJGR07txZCrKcGRteSHiljOMpU6bg4kWP1iK5BrrYkT59elmCu1OnTrJ/LBM+Fi9ejPvvvx979vhAHVEEXRCgdYwuk1A/2XvvvVc+55IkSaLbNNfhBSGWIGGNyhS/dR/3cnSCbxfbPT7dWsLvdiCfKZwNeKNZAA1LcNA7nGw+aOLRkRRUhGfLql2PJFFAbbG+vNwogAp5eJ0JJyTCPv2diQVb7L7CfoA8JGta4Ln6ARZjHeDLBSZGzLXXmWgf5VuUv9PuGctibPj5YamJfmIvs+OI+9cZFmJZiHUjmVMDQ9oZaFIyKPfRTHi4KDy/05chTF1v4eJl3daEl4ypgHdbG2hRNohE3CUqrHT4PIRJay1ccJ/PvC3GQDFO6jbED/CJ0zkSi+G6UEUgEECJEiXw4osvyuyhpEldUT3Z01AmLL2WXhVhYyChnoQL6klJQhuTcBYtWoTXXntNZjeapo8iClcg8Wv48OFSaGafCQ9Lly6V/bzPnz+v2xTPQmtZzKDLJVQFgsrzMzZeEWIJKjlbJBvQrR7QolyQS2eFiRfHhDBykeUrQS0G8pkCWYCn6gD3VwgiNZfOSjB/H7JF2GXb4epso9slYNj90t5tHeAM/DDx+XxT9kPbd8L94kh8oRWFAtcdqwNdagSQIy37TDj4fomJN34VPnPc+5mw10LPpSzCZ56tFxD7GfaXcHDkjIX+k0P4Yj5wOeSNZxMLsSzEuhW6lPbTk0DdIlG6TfEN934QjdmbxB7IfyFACfnMM+J5RpdfmfDQ4uNozPgLCLnPZ6iBURcx5sJ/WzQtcHTCWah+dn3dRlwPKun46aefyqwrzoCMPySqUXbjL7/8gt69e2PbNg83V7uG6tWry76UtWvX5myy2+TcuXMyq5Gy8uhzP0NrSeXKlTF16lSZGUviFxM/QqEQLly4IPtLf/vtt/JzJnzQBaQcOXKgW7duqFOnjixnTGsbXR4g/400vCTExkC/pYH3A20rRiFdCt3WeBPKLtqwz8Sw2cC4lZbbyh2FHfKZN+8DOlQJImOqyHufJxQKap+/DHy7yMKAySYOnva3vxD5MgXw4YMBVMlnly1m4gf5zIVo4KflFt781cT+k/72GVpV2lehHntB3JHB4Eyi24B8Zt8JC98tMfHlfGDPcX/7TGbxLHpQ+MwjNQ3ckT6ACNyCJhjymU0HLLz6s4nJay1PRYRZiGUh1s3QI6xn4wD+Vz+AFBwCvC0uCW9fsi2Etp9aOOnvEOBVahQIYtTjBlIlBe+DbgMSXZdtD+G9qQamrHefAnuFD8R4Uwwf1dHSC2//nKWWGJPFcGXdTgpAly9fHp9//jny58/P5UXjyKVLl7BmzRp89dVXGDt2LA4fPqzbpLCTIkUKmTVN5Yqp3yILsnGDfGP37t14++23MXr0aN+LsLGhvrHU05T6xlLZYiZunDhxAkuWLMHXX3+NSZMm4cyZM7pN8i30zKNBl02aNm2KevXqIUuWLMiWLZtu05TiRSGWoA1rqVwBDOtgIH9mcF+aOELZaMfPWpi9ERg01cT6vd4KXCYE8pDiOQIY/rCBHGkNZEql2yJvQNlFa3abGDHPxPdLvJFpFC7yZw6gY3UT95cPIkc6XmPiCgWS1u6x8PVCO0MtUnyGPCRPxgD6tjBwV2EgTTL2mbhy+oKFjfuB/pNNTFsfWc+lByoDj9YKIH8WA2nZZ+LMwVMQPmPhuVEWNh1wbcD6hrAQy0Ks2yEhrXHJIN5sDuTOYMisR+bW0L75yGkLY1ZYeH+aicMRFs6hKiGD2xiolj8oP2fixrGzwJKtIfQeb2HzQd3W3BBhpVzLR+g2xE/wzs9ZaJs1UozWug25GalTp0bfvn1lBmS+fPmkCMdcn/3792PevHkYMmSIFE/8TLJkyaRPdOzYEfXr10e6dOl0m+RaLl++LAVYyoIdOnQoli9frtskLdBaQuJ9mzZtULJkSb7ccRMoo556S48bN05ehjly5IhukyIOyowtU6YMHnjgASnI5sqVS2bO+h2vCrExJEkEGSCgG7gkyKZIwlvZGxEdomCQid/Wmpi0BjgQoV1dyEM6Vg+gSw1Dli1OyT5zQyjTaMlWCwOmmNgZwfeem5c10K1uAIWygYWSW7DloIUVOyy8PcnEdv/dTY0zzzcAGpUMyj7V6ZKzz9yM5dst/P5XCKOWAVsP6bZGD7kzAC3LAQ9WDqJINvaXm3HqPAmvwCezTYxZ7i1hKzYsxLIQ6xUKZRW/vAYG6hYJIHtaXp9uBFUbokoO9Ewbv8rE7A10yUi3VXqgLOp7SxvoLM5bxXIYytY5L3LuEuTF6FHLTDFcnz1NiYW0lnu7D6PL4FXVWSg5n0oTfydGRs223BTqFVuhQgU0adJE9tMrVqwY94+NBQmwCxculOVXaezdu1e3ScrIkycPmjdvLsXYWrVqsbh2DVSWes6cOTKbce7cuTh6NIIjl1eg9YMEWSoDW6RIEc6ovoadO3di+vTpsjz8ypUrdZsT8QSDQRQuXFhWiKhRo4a8RFC8eHF5GcWPeF2IJahsaJncFPSmLCQDRbMZSMYZsv9i5U4LczZa+GyuiT3HdVujn6ggZVTTTX/bZ4rnMDirOhYULFywxcKktRZm/OXNwGG4IRG2SUk7O6RSXvaVayHRPsZnKKORgbwc1KQUZPC67B0G0rIg+y/+PmT7DAlqf0bOUfqm1C1iCJ8xUL2A2MtkZ3+JDWVNr9ltSVFr0hpL+oyXVxoWYlmI9RLkp7Q2tSwXkOsTlyv+N3TZdeYGE98uNjFvM3A0wrJgb0TeTIYUZOmsRX6TNJFui9wDVamiPRCdzyeKZ5oH1odjYvQVY4huQ/wG7/acRxzJMFCMDroNiQupUqWSGUIkupEoSwFp6q8XqRw8eBCzZs3ClClTMHv2bOzZs0e3SdooVKiQzJClkp6NGzfWbY52SEybPHkypk2bJjNhDx2K0CvdN4B6T5ctW1auJeQzJGxFOpQ1HXOZgy520PrCuIuUKVOidOnSKFGiBO666y75DKS1z0/4QYiNgYICJXMCdQoH0LAkfR6I+P40q3fZwggd8hZvdf0BTznJE1O5YuAu4TONStrlrhOpicu5Espm/E34y6wNFuZvtmR5NeYfyDdK5zZwfwUDTUoGZBZbpLP9iPCZNRZmXvGZC5d1W+QuosQzqGBWoHYhA3cXD6BSXnG+ThrZIZddxyB8xrzqM2cv6rbIXdA6U6OgIfYytihbIEtk+8v5yxZW7rAwdR0we6OJDfuBi9G3/v/cDguxLMR6kfyZDdQUz7OG4vWjC7CM/fulHtXzNtMFEe//jp2gcDZDPtcalTDQoBj7DfkKnc/nbbJkKw+PMFeMjmLs0GuG/+B3hPNQZf0aYgwSo6xmW+IMiSiUyUbZsZQlRBmRkcTWrVul+EpliJctWyYF2FCIo1PUX5HKeZLA1rZtWylY3HHHHbrNUgplQ//888+YOHEiVq9eLXsEW5HSDOs2SJs2LYoWLSr7cFKZa7rgEWmsWrVK9oD9888/8ddff0kBln3G3dBad+eddyJnzpzSd6l8sV/WOz8JsTGkTkqBSwu1CwXRrrKJItkiS1k7ed4+1E1bbx/0qNzRRRZHbkqqJAbyC5+pVdD2meI5Istn9p+EvMX/+5+2v5w6r9sid5M+BWQWdcOSdMMfKBVhlz5i+gbP3wxMXW/7zAl3l1LTDmWB3JkBqJo/gFYVgCr5AkgcQcsM9Q1es8fEwi3A5HXCZ8QzivqhMTcmVVKgRE4D9YsaaF+FSoLqtkgtlC00epktwi7YYmLrYbuEo19gIZaFWK8ijsXIl8lAyVy2H0eisLb/pInf1hhYtNXCut0WNh6wwOGcm0N+UzCLgTJ3UCl+Q+ydgRzpImfzfPCUfT7/ZTWwbLudAeshn6F6Wm+L8Z5uQ/xI5K2geqAav8/DdmRPQRmy1PeRSo126dIFVapUkX30/IhpmjKzkbLVqG8jZTieOnVK9v9k/g1lSWfPnl36ApWfbd26NUqVKqXbLEfZuHEjBg8ejEWLFuHAgQM4fvy49BkmbpCwRaIW+QkJsrSWkA/5lbNnz8r1ZMKECbIMMV3muHAhQpuGeBzyXeodS/5Ll5NatmwpK0d4FT8KsTFQv9jsaS3Zz6hbvYAMuvgZyir6coEpyxytEwe9w6f9FbRUQYrEBrIJn8mcyvaZpqX97TNLt4cwYi6JanZfKxZg40e65GKkAKrlN1BVjA5V/R9QojWGsuupdzAJaSzAxg8SZDOntvvGUp/qLjX87zN0yWPh3xYWimfTceEzx9ln4kXqZEAOsY8plRuonNdA15r+9pnNB0NYus3A8DkW9p8QzyVxXDrvw70MC7EsxHodEtZypLXLz1JVmdYVDGRN7e/1aeshCx/MFM+zv00cOmU/zzgEGD/o4mLWNHZv9FoFA2hV3vB1b/RdR4Efl1HJalP4D3DgJLxWcYjW7XFiPAFbkGXCjH+9331Uhb3xqKjbkNuBhDfqDZooUSLUq1cP7du3lwIclXH0OmvWrJHlh9955x1cunQJFy9elIO5NSRQJE6cWPYTJnGCBFnyC/ozP0BZ0G+//bb0D/ITEtdYmE8YsdeSRo0aoV27dtJn/NKPk4R6El4/+ugjuZ6Q+Mo+4w9ir3d0Oalbt26yWoTXeiD7WYiNgQIFKcRjKFd6ceArZKBzjQCK+aj32updIczdZOC9aaYUXulwF+KgQIKI8RnKQKpV2EDHqgFZktYPbDpg+8vAqSbOiO3tOTGi2V8SBPUcpuxGypQlf7m/fAD1ivrDX4gp6yyMW2liziYLJ88Bl0J2PzQmYSQTa0zaZLbPUN89KtnnF6js8Jjlts8cO8M+Ew6ozHWiKNtnXmwYEPsZC4Wz+ietmspUU7B65l/2JQ+/XyRjIZaFWL9Ae+akUfZFIypX3Ko8nbeCSBKl27LwMWCKeJ5tNLF2j33x1WNCmisJGHYpfvKbYjmA2oUDeOHugG/8ZtBU2gOZ4pwO2bbjUrRd6cGDnBKjkRgLdRviV/yz+/cGj8BudpxVtyHhonLlylKYpVGhQgUEg0EptMR8dAskqFH2Io3o6GhZbnjGjBky83XTpk26zfMdNWvWlH1Bn3jiCSlexPhDVFSU/NpNUIlY8gnyDfITKh1LvkFj5syZus2LGHr06CFLoj/77LP/8hXyHbf5zLXryaRJk7B27VoMGzYMx44d020eo5jevXvLTNlKlSpJUZZ81s1EghB7PejAV7dIAHcVNlG9QJS8nUsHQhpuLDFKB346u5HASmWMKOt15CJT9vLkLEZ1PFwtgCypgRfvsZ0kxm/osRS88lE30Vd8hCC/OX3BwqyN5CvAbOEvVIaYcR666V+nCPV5tMQ6E0TSRMbV/sMxfuMmomOtMWcu2j4zW/gMrTF7+P67EnKki/EZu2819ZIlXyFXiXLhViJmrSGfoT6eszaGhM8Y0md2HtVtXWRAWUXkM4/XDsiMIhJrDcOdawwR22coKD17YzTGrjQwfqU3o9MJgfrT1xH7UBIhVDBzg4mVO9TMdR1cJ8RSad2W5dW8SXYcseS6eOSMkulcQ9X8to/TPqhEzuDVdcmN6xOtSSSSmVfWJ+rfScL58Dkmn7MUQ0Lss/UD4j0KtCgX+JfPuOmMTk8tuXe+4jN/HzblOYsuXtCZy0eXokeL0Va3EX7GZcuh76GavkPEaCqGoi2YGkg4oRLG1atXlz30KChdqFAhmfmWIkUK+W8oOE2fO5U9RILamTNnrpb/pGw0+ppEk5UrV2Lp0qWyn+fYsWPlv+Uejc5DfpExY0ZUq1ZNlqFt1qyZLPFJZMqU6eq/i+0nTnHu3DmZ0RrD0aNHpZBGH0ePHi1LUS9cuFCWHeaSw/ogn8mbNy/uvvtu5M6dW64p1Gf22rWEsvGdzLymdYPWD1pHCFpXyH/INxYsWCCFVypXPXv2bF5PGOm31EuWLhRQpjf5aoYMGVxZHSBShdgY6DyXSOzAquQNoFA2oJTYmVXKa2+H0ya3g5oEfUyb3FlbKEAZu8wnCWgXr4SsPptrydu0S7aK39khUx76eJnRB90tTHrFb/JnodJsFqrkN5A+he07GVP+90iVMgnCEnAlH4mdwUoHfbqdfylkO8SkNRb2nrD/bsQ8U0YKpL8kfGrmNiBPkAK9GFRSNGUS8hUgT0bqEWogRZJ/AkspEltIltjZ43jsQDCV+zx7yfYMEkLo75ZvA/7YbbLPaCTGZ0rnCqBCXiCD2O7GCAZUPj1ZrK1ERgXFqGL7DD2HSKgnJv5hX+xYtcPAyp0h9hmNGFcuAj1QyRBrjIEq+UwUz2mr98mFzyRX6DMkyp+9aPureeX5dPHK82nqOgu7jgFrdgHLdoh1xmSfiRBcJ8Qy6qAtTnqxL66cz5AXjhoWN5Arg/13sffLdNaivbJTF4/s/bIl9sv2nPQ8o6/pzxdvDeHPfQFs2G/Jy658ztJPzHOtYh5DnM8NFM5qimdbEImjxL4olt/Q8y25gyEWe9/zz9fHzwqfsexn2/dL7KofS7aJs9dxy6sZrzdDPK2RRwwOiDsIC7HqqQFbjC0N+xnlS2Iy2AoXLoyyZcvKr0lIKVeu3HV7zBYoUCBe35/Es2szz6j8Jwmu27Ztk1/v3btXfn369Gn5NQsl+omd2fjggw9e/bxIkSL/6blI/5bEWsqSjA/0eyfR9Voo0/WPP/64+vWYMWOuloxl33Ansf2FSsGWLl1afk4iLK0lMaJ+bMhnSLiNKySuHjly5KrgGgOtG7R+7Nu3T369detW+TX7DHMzyGczZ84s/ZPKtVPVCFrf3JTVHelC7LXE/tVQ2bKYknEkyt59gx6z+TLHbw460B0RW5GL0f/+cxLYpq3/55yzaKuF3Ve2NrzEuBvj6n9s2lT4r69UyGPIPloJZcZfFo6e+cchKOD9xy4Le07Yf8a+4n5i1hnq+0glr0mcJUrlvn6pUeoRSeJJXB8ddEOfxLOz1+msMnrZP2vMpoOQvkOw37ibmN996VwGCsWqpdWm4vXDB1RWPVk8ApMUiKbn0plb+My2I8Dy7ewzbif2M6lYDgPFs//zd60rBP6TjUZBbFpjEsWjJCRVXNh1ncznLQdDWL3LkP5x7pL9fNp9nH0mwmEhlrmKcYP9cgaxBpURe6IM11xmpNYPMcJtXNl/4r/lzU9dsMTaZOHAlcuK2w4b4mvTvtzIF4lcT8xzjS7Dti73j48UF884es7Fhp5x5E+p41H6/cwFiPPVf9u1bDtsXd33EJQtHbNX8vkzjWoo3S3GUt2G+B33RAYji3ZiDBcjtW5D3EKTJk3i9e+pnDAFkxn/QhlmJL5RhnV8WLx4sRTqmciEfCZPnjxx/veUCU0iPWW/Mky4qV27tuwlW6VKFWTN6o6uBCzEJpyG8ezrd/wcsGGfhZNc6ophmDhA/a2p7GhcS7Kdv2yvMQdPOWsX416oskP6eBQXootBlAm0/4RzNjHuJVMqe41JEY9CZSRyzN3k7yg0EzZYiGVuG1qXahaM31lrxQ4Lh087ZBDjeii7unB2sX9OF3e/2X/Swsb99oVpRjJAjFfE4FfEYViI1cdAMV7QbQTDMAzDMM5BVSDq1KmD5s2by6EbFmIZhmEYhmEYhnEIFmIZhmG8w1QxOouxX7chkQALsfrIKEZ3MXrqNoRhGIZhGOeIyfB/7bXXZMlinbAQyzAMwzAMwzCMQ7AQyzAM4w1Ww9am5uPfazbjECzE6oUq388To6huQxiGYRiGcY5gMCjF2Ndffx333XefNjtYiGUYhmEYhmEYxiFYiGUYhnE/B2CXI/5OjAuabYkYWIjVT0kxfgSLsQzDMAzjaygztnDhwhg4cCAaNWqkxQYWYhmGYRiGYRiGcQgWYhmGYdzNETHeEWMYWIRVCgux7qAs7BsIRXQbwjCMpzGvfAxotYJhmJvy5JNPyjLFmTNnVj43C7GMBvjZxMQHS4zZYqQRo5xmWxhvQGvMAjFq6jaE8Qz8XGIY52AhlmHUQfvmX8Q4K8YDYJ2HuTXkM6RBddBtSCTCb1D3UAv2hqW4bkMYhvEkJ8ToL8YaMQbCvtgR1GoRwzA35KWXXkLPnj2RNm1apfOyEMsoZocYbcUoA/sZlUarNYzbuSjGBDHaiVFBjOliqF0kGa9BPtNEjJAYo8XIpNccxgMcFaMj7GwQCl6rvxXHMP6GhViGUQO9x6aK0e3K54PEaC5GYp1GMa6G9stzxHhcjL/1mhKZsBDrHuh3QW+Et8RIr9kWhmG8BW26JsE+8OwQo5kYr8O+2MFiLMO4kDx58mDUqFGoUKECDEPddoyFWEYh68VoD/uCUGoxOovRU4wsOo1iXMsZMUbBPg9RkCCFGA/B7l2UXaNdjHuh7I+xYjwhxiUxqOb/EDHy6jSKcTU7xeghxs+wfaahGGPESKnTKIbxGSzEMozzUGWHKWI8K8bWK392J+ykDIoHJtJjFuNyZsLeN2/RbUikwkKsu6AbvM+I8RRYjGX+zTHYgUzKnOYSSsy1jBPjRTG2X/ma1na6CfeaGCXAPsMwrqR79+546623kDRpUmVzshDLKGIx7MDA8lh/lg62GPs8WFhj/s1JMb4V41Uxjsf6cxLwqWwWCSe5NNjFuJdTsIV78pmDV/4sCezs2DfFKKrJLsa9bBajrxjjxTh35c+oSgNdhH8IXLGBYcIFC7EM4zxU0YHOVNuu+fM7xfhCjDqqDWJcD2VPk+bEmbAaYSHWfWSELcR2FyOVZlsYd0Dlkz6BHWygB20XveYwLuN7MXqJses6f9cUdilIDkYxjAvJnj07pkyZgpIlSyqbk4VYRgHU37OPGEthZzbGhsTYTrCFNc6MZQhqrfC1GAPEOHCdvydxhESSl8TIqc4sxsWQCEv7335i7L7m75LDFmMpk5pb/jAxkAhLgiuJsGev+Tt6FtH6Qs8mLoXOMAmHhViGcRaKDVOVoZ03+Ht6v1GFGe4BysRAyTsvwK6gyGiEhVh3Qtmw9WFnsxXRbAujFxJhPxbjQ9h9bLLCDm4+pdMoxjXQTbc38N8gVGzqwhbyCyqxiGGYePH4449j2LBhyuZjIZZxmFmw968kwl6+wb+hQDcFBigzKbUiuxh3QpmwX8HuabX3Jv+O/OQB2D6TUYFdjHvZJ8bnYnyJGwcgSYxtDDsztrAiuxj3QhWDKHOayhGfucG/yQH7AisFrkspsoth/AoLsQzjHF/DjgHuuMW/o+pD9Ox7zGF7GPfzI+zWdZs128GAhVi3UxZ2mS7OZotMqDQbibBDYYuwMdADlW7tdtNhFOMK9sDOHKFbTZQ9Yt3i39PBhwJWHIxiGJeRJk0anDhxQtl8LMQyDjIfdoWGm4mwMVDVlwfBQe9I5rQYI8V4R4z9cfj31MPxftiXy5I4aBfjXqj6C52BpsNu23IzkolxjxhPwm7twr3SIhMqW01l8ifin3LEN4L6RNQT4z3wBVaGSQgsxDKMM3wNu7oDlSO+VQyQyA07c/YJB21i3A2JsHSRdRPsvsKMZliIdT/U35HeOMV0G8IoZQPs2u3UW+3UNX9H79tsYDE2UqFMAMqKpnXhQhz/H/IZWksoM6CZQ3YxDHObLFu2DBUqVFAyFwuxjEOsEONpMVbi34G3m0FB7wxikDOWdsguxp3QJTJqtbEIdmniuEI+Q/uYUU4Yxbga8hPKip4pxqU4/j+JYZdDp6zrhg7ZxbiXBWK8C1u4vxjH/4d8pqYY38A+bzMME39YiGWY8EIXFkmApRggVZOJq6BGccBcsC/KcmZsZHFIjB/EGC7GFrAI6xpYiPUG1DyOAg5cpjgyoOAU9TZahZvfcgqI0UaMgbDLKTH+Zz3s/tG/I2434K4lkxgvwz4YMQzjEvr164eePXsqmYuFWCbMUOYrZTXSTWvqB3s7zybaw7AYGzmQz9QWYzFuz1/o/EplZ18Xo1zYrGLcDGXb94YtrN2OzwRhl02vGU6jGFdDlzzo902Bx/j6DK0xlWFnkNQNs10MEwmwEMsw4eMw7IQKqghzu2IaVVUkIfZR2O3uGH9D1TX7wa7wwQKsy2Ah1jtQPySK0tLiSX1vAnrNYRyAbnf/CnvBXBWP/6+zGD3EyCdGlAN2MfqhzFfKjqbskS0J/F5ZYPfmo3KQd4LXEobRzjvvvIOXX35ZyVwsxDJhhPrY076lcxi+F/UApYxa2uvSPjcYhu/JuAsqC0rZjPeG6fvlgZ21RoIJ73/9CfnMXNg+E9dM+xtBcY/7xPgCdplr9hl/QiXPP4XdF+98GL7fL7BLW6cJw/dimEiBhViGSTgkoP0J+yLaxDB9T7o4S7FjKlnMcUD/QRfPKF5MGdDjNNvC3AAWYr0F3VxpBbvXDfUt4SCVf9gBOzhFN5Tie2OF3sckwn4Ae4ObNqyWMbqhfrBUgoQCR5vC9D3JZx4Wo6sYVA+V+2YxjEZYiGU8Bokj9GzqhNvParweVKaYys6SsEuZjknD9H0Z/ZC/kDhCQdizYfy+1F/4DTGqw/Yfxh9QGVmqEERC+2DEr3z1zaDewvVhX/qoDe417CfoQvMOMQbAriR2q36wcYVKFTe78n2pVDE/lxjm1rAQyzAJg9rTLRHjf7Db1oULigPeA1vcrQrWhPwEXUTbKkZ72AI+41L4Tec96HfWVox2sHvd8G1eb3NGjM2wy6tNQ9x7Hl0PEmNbi/GQGEUTbBnjBqisFh1Y6DZTuALdMdBacifsXsOUIZA5zN+fYZg4wkIs4yGoT/nPYnwrxjKEv9wRPZvKivEM7D1N8jB/f0YtlJG2WowhsMtPhyND7VpIgKUb/nTB7A7w5TKvQ1Vg6HLqMDHmILzCfQxUBp3WGDpLcx9Q70MB6xmw2/UsceD7JxOjBuyKQhTA5ksfDHNzWIhlmNuHnmNTYZcjDncMMIYCYrwmxt2wq28y3oYEWLqERj1h/9JsC3MLWIj1LjlhlynueOVzxnvQTe+fYC+YVIr4Qpi+LwUVyDfohlOmMH1PRi0kzlMvK2qsvkbBfJSJTf3WwlUukIkQUqRIgTJlyiibb/v27di7d6+y+VTBQizjAUgMoefRj1fGUYfnI3GEhLVGsAPgjPegxZp8hUT7tQ7PRcII+UlH2D7DYqz3oIA9ZX2QoEaBpBUOz5dOjOawRXzayPDlZu9BF4E2wi6R/xXs85OT0EUPuvDcEval58QOz8cwXoWFWIaJP8dglyCmSod0idEpETY2VCGkqRgNFMzFhB/qBUst7GgPNB4JS+xiFMFCrPehgwAFHOh2ZnbNtjBxgxZHWiwpyDBBjP1h/v70vs6LfwTZ4mH+/oxznBRjPuyg5RTY5SVUkR92AJP60GZVOC+TMMhHqISflpuMBQsWxPfff69svvfffx8//PCDsvlUEWFC7GUxDoIvkXkJCgzQc4nefFTqyIkMtRtBJYqpVHET2P2MGPdD7/GxsC8b0qWykwrnJnGEhBJq5ZJf4bxMwqBg42gxRsAOPh5XODddXKX1pYUYhRTOyyQcyoCdDvtC8zFFc1KvWCqJTuclqlDGlz68wzbYMRLGeViIZZj4sVSMr2FXwjuscF7qE1tEjDaw985FFM7NJIwdsNvXkaZAF9Eua7WGiTMsxHof+h1S1kBt2Jud8lqtYW4FbUYpy5ECDVQ+wMlgZgrYASkqo0R14rl3rLshQf5jMcaIsQu2uKaa1GLUgb0JIyE/vQYbmLhBG60FV0Zd2IFE5ZQuXRqrV69WNl/37t0xePBgZfOpIsKEWMqSo/7UJK610mUEE2c+h125gwTYA5psoNL5VEqUMmQf0GQDEzfIT77GP3sZHVCmI11C7AFbYGPcDWU0joS9zuzQZAOdkQrD9pn7NNnAxB3awNCzaR7UivaxoYtBxWCLwcU02cDEDXoW0cUgyjSbo9eUiIGFWL38LsZsMR4BXz5wO4dgx4bpAiNVBdERAyRSilFLjE5i1IcdF2TcCbV5mQM7C5aqyOjaBzG3CQux/iEJbEGWbmc+CRZQ3MiXsDef1F9N1a1dgnyBRBoqP0s9ALiMkrsIifEu7CAU+YbKLNjrQaXZyGcoC4ns4oxq90Hl+oaKMRe2QNFfjHo6DGEhNjxEmBBLl5Ao64hK59OFDwp8F9ZlDHNDqAzxh7D7wTpdhjguBGGXn6XSWS+KUVKvOcw1bBHjM9glQumyhcqs6etBZ1yq7kFBpX5i3KnVGuZ60LOAzkZ0k5+EEt0+Q5DP0L6X1hgu0+c+dsC+6EEVGrZDTdnGW0F99prBvmBWULMtzH9ZJEZf2D0XqTpDuPvaM9eHhVi90LO1mxjVYMeGqXpiEq0WMdeDKuDR+4QSMk5ptoWgCg901qL36OOwBdmgVouYa6HqibS+LoSdOc2liD0IC7H+gxZPKpfzAuwbvSy66YfKS/QUYzf03XCikhPkC7QZe12M6prsYP4NHQppg0N+4bZSEuQzSWH3zqIgJpfecgd0s5WyRqinNIn4FDCkQy0LsR4mAoXYmJKhdLijwABVbaALBel0GcVcZRPsNYUyGikoENJrzn+I8Zn/t3cnUHZVZaKAf0IYRBmCCCgo01KgQcEBRVGEjqCoICoCoq3iU1FRMaBAMzS2U6PYDKKoOA8BHBiceDaTedhLBRREEJGHvtgCKiCDMgZC3v7r1DVFWUkqyam77/B9a/2r6lYuuT/Jzjn77H8Pe0dzb7KVfn2nRPN3kSumH1zCe7st28vG0dw7cxX+ulWzIeWAY65mzIHiLNr3Wv83x0dy6/w3jYajf+rLFUO58iNXDWXRPq8zvVCE7chJrHkvyl0b8ligx9dNh2gmB+X4SxY68jm7U4DtpXYzyBRi68r7ay7Q6YwB5p/9+0rsWDEnFro0mr+PXLV8X91UJtRpNzlZ+t8r58JCeSxl3tOy+Nprz+csBYXYwfbMEkdHMxs8L6RmQXVHdvTviWaWylHRrF7rJfnvPs8VPiyaVY9ZbJtWNaPhkQ8j2TaujuZB5NvRewNQi/K+EgeVWC1M8OiWHCzI9pEd9NxO68gSvx/3HoXYATDEhdjxchLZEdFcZ/RZuiOvM/lANzea4shXohn07hc54/+YaNrMqpVzGRZ5X8o284to+rlzqmYzeblaLdvLq6KZ9GGCWfdkm7k1mvM8Txv92g9yS8d3lNg3mu2LH1E3naGSbeaOaLaUzV1grqubzqRtFM0k1txGf73wzNRNuV1jbtGY96UvLuI9uY3jzK5lNLz+M5pC+PjJWfkQ9+4wDj2V8jkr/4wnetDbI5pd2LK/nNcmY4DdkePDOSHkl9GM25wT9RboLK1sJx+KprCfz+bGjruj02byyJcLS3wsmn40A8ANcPDl33FuS5vbUeTAwwbR7P9O++6KZsubvFhm57PXBxlWL7F7iTdEsy1krhIw8D01cjAhZ/3nVhJ5E/1l3XSWWW4lekg0Z66tE83WJdOrZjS4cvApZ3NnxytX1S9qQsdQFWKPOOKIOO644+LBB3tt0dXyUYh9mCyoZUE2B75zVdLq3UhqSOXKtNzWKK8xOTAzfqJHv8iCWt6b/iWafu6addMZWLl1bLaZ7N/m+WPn1E1nmT25xDujGYzPY10U16ZOTj7MNvNf0ayc/lXddJbZP0XzPJ1F2bzGrFM3nYGWW+FnHzhXCn28xFV101lm+Wydq2PzmSmvM4+sm85Ay+LrDdGsmD55Ce99xyTew/LJI7hyQchvJ/i1XDX+wWj697Qvizc53vSGWPSZ6zlBJHcIycU6T43mSCrjOVMjByxyDDB3G8pJRWdFd4+oa1M+W+U2/PlvOPvR2W5sW9y+nCCd97Q8LzgnLma7uaVqRrROIXa4bBbN4dvbR3OeST5Iunguv9xyOG+w+cCY20zkKsd+2fYmrwFZgN02mq2sc9uSJ4drQ1tyMOGaWHgO1n9H/7SNxemc7ZhtJgsqW4ZrSVuuj2bQ8txotgZd0hlYQ1WI/fKXvxxHHnlk3HjjjV37zG74zGc+E295y1u68ll9UIjtyFUl2WfZYfT9OWhjoKAdc6PZmSHP2ctVjTnpYxDuTbmFaLaZHFzKPm9uD2nV4/LLe1L2dXNwL9tMTibr9/aS/dwcKN4nmiNdsu/7mKoZDZY/R3ONyevL6SUuj/5vMyknrOY1JreHy/tSDmgr5LcjBxqzzeSZwbmrVHYu+73N5HUmry2vieZZO79/bNWMBkeuFMrJY/mclBM9cgXsHZP473J1V54b+/SpS23ofTia40b+NsGvZfvPSTk5QUGfvn25KCR3iTlpEu/NMcDcJS/Hc7LPnOM5Vjq2I8cAsx+UE+lzDPDi0Z8Pwj0tt+HPxTw7RXNP27pmQgPm2mgmn2UfKPtC+ezV722GCSi2DJ/8O8+Hxn+OZgZUnhWag50eCpZOzvDOzn8OMGTBJB8Wc9bKQ4v7j3pcto3nldgzms5YFuydpbVsctbb/4lm5v/3S/wuBu8mmu0lrxubR1OUzYHvvJasVzOpPpUPTXk9uSyaLYizeJ8F2cm0maEqxJ533nkxa9asuOaaa7r2md1w/fXXx2abbdaVz+qjQmzK60wWR3Yu8bRoirI7TFFegy7P77wymmvNRdFf22ItrVytlvekHGDKVUnPqZtOX+oMcueAQJ5HlPenHCCYVzOpKdDpy2TfNwuzOTif/RoF/KWXOwNlO8l289NorjG5zfmg9X9T9nV3iuaswyywbRd2nFoWuZVsTmL+/ejXbDODNdOukdeZXD2U15nsw2SbyaKH7fSXXt6Dsqjx09HIAevJFGA78u8i+5RfDyvbp0JOusnVllcu5j25e8lxYcygbXmvvaTEXjH562j+e8hJjNnvyT5zniH7hPB3s6xyC/28PuWkohysyK3QB7EP1Kkj7RTNKtmNozn+Y8tK+fSzHBfJOsLcaOoKPxj9+SC2G0YpxJLFto2juWjmQH7ehB9dM6Eel4NQWXydE83FMisQ/XSW2mTlmUi5OvYp0Qxm5kCmrf4WL1eMZMcr20h2grMQe0/VjLorB7qzEJuFwRxo+Ke66fSFnP2fg045kDA3mgHMiWYPL85QFWJ///vfx/777x8//OEPu/aZ3bBgQff62n1WiB0vB7tzkCDvSU8bDRZtfjQTg34eTTEt+y9zoxn8HgY5mWzjaAa+s83kBMTtaibUB3ISUBZfc/BobjSrX2+omVAX5bmxz4iFE8zy2WiTqhn1h7ym54BjTiTrFNWWpjDSz/LZaONoivjZH8s2s0vNhPpErmLM56XvRPPMNDearfiGwRrR3IvyOSnbSrabJ1bNqD/kjgx5b8prTT5jX70cv1ceeZFbFOc5miadtydX//17NP2H+xbzviyAv71EnsliMkJ7sr+fbfoHS3rjYmR/OcdzcqXjTtH0ndda7swGW658nRPNn/+lo9/fXTGfGjaOpu+ck9OyzeSz+gY1E+pxuWI6J0VnPyjH//K+ln3nwTp7i0VSiKUjt1XKi2fOfsoLZw6SvjAU31I+LObg5deiudHmgFS/nqO2tPJhMR8O8yFl12hWzOYsXtvQLjQ7mvaRkQOYuepocQ8fgy5XBGQBP7f6y7by1NGvVpc0csZbzhbOM0Jy9UgOcv9pOX6/oSrEpr322ivOPPPMrn7mVNpzzz3j7LPP7trn9XkhNnV29sgZ23mtyWtMbpH0+OVPbWDkvSjvSXm2TPZb/ieGp5i2KNlmcnvrvDd17ksZVrE1W19le8kVQtlWboqJz3YbJvlMlNuv5bUq+7/ZF35q1Yx6Sw645yBStptceZP9mOuqZlRfTmTO60znvpSr7kz8WCjbSraRPF86t8PPe9O1VTOqL7dCydVo2X/ZN5p7kr7MQrmzVJ5Jng8a+byU96a2zsrLiTd5hu/BYVv6NuQK2CNLXBiTGwfJP/83R3OWqVV0yy8nteQq4/9u6ffLyQrZ78l72sxoFmbk9cl20o0snP1iTHTuacMy0XVRcmJFtpnsO4993rJ9cSOfs/J+1ukPZZsZpoU7jFKIZSJZfH1kNMW3fIDMVbO5OnKYOklZLMnzGX8SzeBlzuwexK2SlkZuqZSDDNk+njUa2S6WZ0C9H82Npl18LprVizmA+ddwEx0vz9HKQv5ao1/zYTcHvF9dM6lKctus7LBn9TAHuXPW//IUX8caukJsnqd69NFHxy23tDUWU9fs2bNjv/3269rnXXTRRfGKV7wi7rzzzq595jjLW4gdKyd45D0pCyb5sLf9aAzbStnborkvdbbqy8HKO0a/8nDZZvKetOZo5D0p71NvrplUl+VAUae95Ne50WyRn+1lfr20elK2lxykz/7LVrHwmShjmAYkc6vqsdeYLJDcGk3/t5+PZZkKecZeXmNy1VenzXTazSoV8+q2XNkxts3kCsacgJidtwcq5tWLss3k6qHOCutsL6+NZmXaMMntYbLNZPE1t2jM60u2l7w/TcW9Ke/9+e/ydSVeEk3xiaWTYyH5HJoT03OhwtIceZH31dyF7ehottNl6eXxV18u8dVoFo9MhSya5/0sr0+5+0NnDHDYVvLnqvycPPTNaMb/7hwNY4ATy4Ve2WbyOpvF2TwrPf+9z6yZVJdlHWH881be14ZtxTTjKMSyJDkAsXI0D455Ac3ZvTtFc8bsIG1hnNtI5DY3uU3AF6N5QMyBqjyHxADDP8o2kW0jZz3lCpOx7WLQHmKyaJZF19yCOvdDnRvNQ0beQO3dP3mrRTPQkF9zYCq3/cuZ4NlmBm3LmznRbDOSW9TkVn3ZXvKakjOE276eVC3EPvGJT4xvf/vbseWW3Zunc+WVV8bee+8d113X/4tvttlmm7jgggtinXW6d0zVueeeGy95yUu69nkTaLMQO1YWRTr9lRwEz/tSbv2X22wN4hmhP47mnpSRKxGyv9K51ui3TF4OFOTzUA4IZv8l202ec5QDBYNS0M/JhdlOst/ysWj6LmPbi+Lr5ORuMJ1rTKcffFA02xcP4iByrqjPSag5eJQTyu4PbWZpZZvJdrLKaDxnNHIV5Gsq5jVVctJhXmvmRHNcS+c6k1+1mcnJZ6W8vuSk+Gw/WfTYKZp70yCuys/npCxufCqae1S2lfuie7tL5Z9xPpvmmMZbwm5wSytXYWYxdln/vrL/lW09JyJkG9+0pbyGQY5dZoEn/93kdbYb41KdseH895L3sfw7y7HAXNE/aKv5s2D2mWjuazkxZCrHcwZd/jvP5618Vs+2k89YeT97QwzWjgTZNk6OZoL0nGhWSo993jJ2zAiFWJZXnkOQnadcLfnW0Z/lA8TYrWvHv+6GvMjNj4df7Dqzb3MGd55dkTPIvhVNsYR2HTn6NWfydgYa8nqzYjz8ulNru9qcpd1pGwti4X782SaybWQbyY7thd1PbWgdFk0HLQuKnYGGbC/Txrxn/Otuyc722AGksW0mZ/9mm8mtRXIQ4bbupjbi0BIfqfC5sf7668cJJ5wQ++67b1c/96CDDopPf/rTMW/evK5+bpumTZsWp556arzuda+LlVbq3qWwBwqx+VDypAqfm9tF5vUlrzM5AWT70Z+Pv67Uui/lNeahRbzOLYzOHf0+Z73/TxfzGnZZjM1201kZOXbl7ET3pKm+T41fSTb+/pT3o0tHv88C2kVTmAsPt3E0Zz52dhTKdrPCaIxdPVvjuSiNbyud1xm5XWwem/DH0e//0PXshlMOXGc7yQHtzrUm20qv9H/H9nfT2DaUg9SfGP0+C/VzupfWUHt6iReNfp8rOTcc/X5sG5nombtbxreZsc/ceT/K5+uc+J7XmWHfAh8GTR5jlsfc5YTYvJ9tMfrzXnnWWtQY4Nxorkm5Av/S0e/pnizo5yS1rClku8kJ2+PvY+P70t0yts2ksc/neR5z9p1/Hk2bMeGMSVGIZSrkzM1njHmdgxHPHPeesTM9l1cWPsbPSsrt1fKMhLF7V36yhc9i2eWKgedG0zFL+ff/hgnel9uftDVAlTMEJzqr4YxoHgJTFl2/3tLn0a7szD9lzOssnDx9gvflitq2Oma3TvCzHCjI68ldo69z8OmrLX1eG4auEJue/vSnx+WXX971z23DyiuvHDvuuGN87nOfi4026u7Oc5ULsfkg84USb6qVwDj5wJf3pbGzuLPQtvK49+WAQa6YbOvelPef8bNicyD7F2NeXxLNOYz0rs7ZoR254i3b0xYTv325ZV/3U+N+llvR5f3pr1P0mSy/LLK9fMzrnIiS7eQR496Xrx/Z0mfmdnnji/bZl/nBmNe5vXC2nQeDXpL92WwfW4352QvjH3eSyEHtvC+Nv18ti2wr2ccdP4iYBfnvjHmdKxezzSzN9qNMvRzTyzbTeWZ63Ojr8SuNsm21tQtRtpl8zh5//cijV84c8/r70RQ5gOH10li41XquiPxfE7wnf/6olj5vUWOAua3wzaPf5653p7X0ebQvd87L+1inTeRuBa+d4H35LN/WRLWJxgHPiYVHFOYKgOwD/bqlz2NIKcRSS24/ksXaNraxPTvssz5IskIwo6XfK2cnuVEOvhygamtbk6+19Pt0U7VC7IwZM0bOa501a1bXP/uaa66J5z3veXHbbTUWIS+f7bffPk455ZR46lO7u8tcriD+6le/Gm96U7U6aBaSDi5xUq0EltFjo5kE0tYAZk7+cUYeMFYW8J+xxHdNTu7o8seWfi96Uw5OZnvZcElvnIScwJzPTNUOj6cr8hyMFy3xXZOTOwHlZLHbW/r9gOGWk43yntbG5PqcqX1NC78Pve9l0U5NISeind7C7wNLpBALAP2tWiE2vexlL4tzzjmnymd/5CMfieOPPz5uvvnmJb+5R2y66aZxxBFHxD777BOPelRbE38nJ/+cDj744Jg9e3ZXP3eMfi3EAgAAAMAyUYgFgP42tIXYBx98MD75yU/GscceG3/605+q5DBZq6yySmy77bYjq1H33nvvWGONNZb8H7WsBwqxOdt07xJn1UoAAAAAALpJIRYA+tueJf6zxKY1Pny77baLz372s7HNNtvU+Pi455574hvf+EacfPLJPXtmbBZh999//3jjG98YW2yxRay+ehs76Cy966+/PnbZZZeYO3dulc+P5iyx3OZ3ojNYAAAAAGDgKMQCQH/bocQJJbar8eGbb755nHDCCbHbbrvV+PgR9913X1x22WXxhS98Ib7zne/01LmxWaB++9vfPrJyeL311quay69+9avYeuuta6aQhdiVaiYAAAAAAN2kEAsA/a1qIXbdddeN973vffG2t72txsf/3fz58+Ouu+6KK664YqTw+etf/7pqPltuuWW8613vGinArr322iOrYmvKP5+vf/3r8ZrXvKZmGgqxAAAAAAwVhVgA6G+PL/HxaLYoruKd73xnfPzjH6/18f9gwYIFI/nk6tg5c+aMvM6YSiussMJIbLTRRnHggQfG61//+lhnnXWm9DOXxrx582LWrFlxyimn1EzjmBLvr5kAAAAAAHSTQiwA9L9PlDiw1ofvscceceKJJ8Ymm2xSK4VFuvjii+P73/9+fPOb34z7778/7r333pGiZJ4tuzzF2Tzndfr06bHqqqvGmmuuGTvuuGO88pWvjF133bXF7NuT2zXvvPPO8ctf/rJmGoeV+GjNBAAAAACgmxRiAaD/HVfioKi07Wtuw3v88cfHi170ohofP2lXXXVVXH755fG73/0uLr300pGzZVNu25uFyrvvvnvC/26llVaKDTbY4GE/yzNx88zXPAN22223nfLcl9cZZ5wRr371q2unkX9QV9ZOAgAAAAC6RSEWAPrf/iU+WOJxtRI4+OCD4+ijj4611lqrVgrLLAuyWaS98cYbJ/z1XP06c+bMLmfVrt133z2+973v1U5DvxMAAACAoWJADAD634tLnFDiSbUS2GyzzeLzn/98PP/5z6+VAovw4x//OHbYYYfaafy0xLNrJwEAAAAA3aQQCwD97/ElZpd4Xs0kDj300Dj88MNjxowZNdNgnDwbds6cObXTOL7EIbWTAAAAAIBuUogFgMHw3RIvrZnAuuuuG+edd97Iuan0hjy798gjj/z7ebgVPafET2onAQAAAADdpBALAIPhYyXeVmK1mkkccsgh8f73vz9WW61qGhTXXXddvOpVrxo5/3bBggW109mwxMSH8AIAAADAgFKIBYDB8Jpotn9dt2YS06ZNizPPPDP23HPPmmlQ7LXXXnHWWWf1QhH2ihK7lri1diIAAAAA0E0KsQAwGLYo8b0Sm9VOJIuxN998czz60Y+uncpQmj9/fpx00knxoQ99KG677bba6aTPlHhvib/VTgQAAAAAukkhFgAGx/kl/rnEtNqJPOtZz4pzzjkn1l9//dqpDJUHHnggLr/88jj88MNjzpw5tdPp2L/E7BIP1E4EAAAAALpJIRYABsc+Jb5Y4hG1E8lVsW9961tHVmWutdZatdMZClmE/dnPfhbHHHNMnH/++bXT6fhDid1LXFk7EQAAAADoNoVYABgcG5a4psTqtRNJa665Zvzrv/5rvPnNb4611167djoD76abbor3vOc9cfrpp9dOZazclvjfStxcOxEAAAAA6DaFWAAYLN8o8araSXSsu+668e53vzsOOOAAxdgpdM8998QHPvCBOPXUU3vlXNiOt5f4fIl5tRMBAAAAgG5TiAWAwbJHiW/XTmKsLMbOmjVrpBg7Y8aM2ukMnKuvvjoOOeSQuOSSS+LOO++snc5Yv4imEPuT2okAAAAAQA0KsQAwWFYrcXftJMbLAux+++0XRxxxRDzucY+rnc7AuOqqq2KvvfaK6667rnYqE/lSiSNL3FQ5DwAAAACoQiEWAAbP8SVm1U5ivOnTp8d2220XZ599dqy33nq10+l7Z5xxRhx66KHxhz/8oXYqE/ljiUNLzC6xoHIuAAAAAFCFQiwADJ41S/y5xCq1E5nItGnT4qyzzoqZM2fGox71qNrp9JX58+fHb37zmzjllFPitNNOi9tvv712ShPJwuuZ0UwGuKFyLgAAAABQjUIsAAyeLMAeNRo9KYuxL3jBC+Kkk06KjTfeOFZdddXaKfW0hx56KO6444740Y9+FB/+8IfjsssuiwULenahaW5FfHSJL9ROBAAAAABqUogFgMG0eYkLSmxYO5HFecITnhBHHXVUPPe5z41NNtlEQXYRLrjggvjud787spL4hht6epHp/BL/u8QB4WxYAAAAAIacQiwADKbVSxxS4pjaiSzJ6quvHs9+9rPjpS99aey8886x+eabx0orrVQ7rZ5wxRVXxMUXXxwnnnhizJ07t3Y6k3FLNGfDfqlyHgAAAABQnUIsAAyu7aPZHnbL2olMxowZM2K77baLXXbZJXbfffeRguww+stf/jJyDuxFF10UF154YcyZM6d2SpP1UIkLS+xX4tbKuQAAAABAdQqxADC4clXsYSWOrJ3I0lh77bVjq622GinIbr/99iNfh8Fdd90VP/zhD+Nb3/pWXHXVVSPF2Hvuuad2WkvjvhJvKPH1ynkAAAAAQE9QiAWAwbZ1ieNL9F01c4011vj7KtnXvva1I0XZ9dZbr3ZarbvssstGCrCnn376yGrYm2++Oe6///7aaS2LH5XYrcTdtRMBAAAAgF6gEAsAg21aiQNL/FuJdSrnskxWXHHFWG211WLllVeOl7/85fGkJz0pDjzwwJGf9atrr712pPh67LHHxp133hnz5s2Le++9t3Zay2utEnfWTgIAAAAAeoVCLAAMvk1KnFpiZgzQvX/69Olx2GGHxaabbhr77rvvyM+yaDtt2rSR7/Nrvu62+fPnx0MPPTTyfX7N13/84x/ji1/8Ytx4441x/vnnj3wdIPk/u3uJc2snAgAAAAC9ZGAGYwGAxXphiRNLbB4DeP/vFF9nzpwZm2+++cj3uaVxRkeuoH3kIx/Z+mffcsstD3s9Z86cuOaaa0a+//nPfx6XXHJJLFiwYCQG1HdLvDpsSQwAAAAADzNwA7EAwCIdUeLIEv27p+9SWGGFh3dztt5669hmm21a/5zZs2f/w88GuOg63v+NZjXsb2onAgAAAAC9RiEWAIbHE0r8R4n9aifCQMjzYGeVOK3E/ZVzAQAAAICeoxALAMNlwxIXR3NuLCyrLMJ+tcRHStxQORcAAAAA6EkKsQAwfHYrcXKJzWonQt+6qMTBJa6snQgAAAAA9CqFWAAYPitGU0T7aO1E6Eu/KPGeEj8qMa9yLgAAAADQsxRiAWA4PbrEQSWOrp0IfeVPJY6IZlviByvnAgAAAAA9TSEWAIbXjBKHl3hv6BOwZPeX+HyJA2snAgAAAAD9wKArAAy3x5T4QIk3RbNlMUzkvhJfKvG2ynkAAAAAQN9QiAUAdivx/hLblpheORd6z19LfDmarawXVM4FAAAAAPqGQiwAkP2Bl5Q4psRTw8pYFrq9xKnRnCX8QOVcAAAAAKCvKMQCAB0vKvGOEi8OfQQi/lLiUyWOi2ZVLAAAAACwFAyyAgBjbVXidSUOrZ0IVWUR9pMlTi5xa+VcAAAAAKAvKcQCAOPNKHFwiaNqJ0IVvy1xYokzQhEWAAAAAJaZQiwAMJG1S7w7mrNBGR6/LnFgiZ+WuLdyLgAAAADQ1xRiAYBFmVbiBSU+XWKTyrkw9f5UYvcSPy+xoHIuAAAAAND3FGIBgCV5ZokPlnh+iZUr50L77i5xbom9aycCAAAAAINEIRYAmIzHlzimxB4l1gl9iEGQWw/fVOIT0ZwJCwAAAAC0yCAqADBZ2W84oMQro9mymP715xLfK/GVEj8p8UDddAAAAABg8CjEAgBLK8+LfVeJfUusXzkXlk6ugr2qxDdKzI7mXFgAAAAAYAooxAIAy2KlEvuUeHE0q2MfUzcdJuEvJU4qcWE0xdi/1U0HAAAAAAabQiwAsKyml9igxG4lDiqxRd10WIyvjMaloQALAAAAAF2hEAsALK/VSjy2xMtLvLfEunXTYYxflTilxDdL3FI5FwAAAAAYKgqxAEBbcrviVUq8u8QHKucy7H5X4uQSp0ezJfGDddMBAAAAgOGjEAsATIUVS3y4xAHRrJhdqW46Q2FeiRtKfKnE50vcVDUbAAAAABhyCrEAwFTasMR7SrykxDolVo+mSEt7/lziDyXOj6YA+9u66QAAAAAASSEWAJhq2d94coldS+xU4mnRnCnLsrurxM0lrivxtRKnjf58QbWMAAAAAICHUYgFALol+x0blHhhiaeUeE6JjUo8pmZSfebWEheXuLzEtSX+K5qiLAAAAADQYxRiAYBanlti4xLblNixxBYl1qiZUA/7fonflPhFiTnRbEUMAAAAAPQwhVgAoLY1SzyxxHrRbF+8folXlJheM6nKboim6PqNEveUuDqas2DvqJkUAAAAADB5CrEAQC95dIlVotnCeNUS/xLNqtldKubUDbeX+FY0Ww//tMT/K3FniRtLzK+YFwAAAACwjBRiAYBelf2U1aJZGZtF2U1K7BRNsfbto7/Wr84pcf3o9x8r8VA0K1/z67xQfAUAAACAvqcQCwD0syzG5mrZrUdf71HiyePes6QtjlcsMW0Sn5VF0sUVSBdM8OsfLfHA6PfXljhzEp8DAAAAAAwAhVgAYJCtXuL1i/n1LNLuEAsLuYvzqxJzFvPrvylx/qQzAwAAAAAGmkIsAAAAAAAAQMsUYgEAAAAAAABaphALAAAAAAAA0DKFWAAAAAAAAICWKcQCAAAAAAAAtEwhFgAAAAAAAKBlCrEAAAAAAAAALVOIBQAAAAAAAGiZQiwAAAAAAABAyxRiAQAAAAAAAFqmEAsAAAAAAADQMoVYAAAAAAAAgJYpxAIAAAAAAAC0TCEWAAAAAAAAoGUKsQAAAAAAAAAtU4gFAAAAAAAAaJlCLAAAAAAAAEDLFGIBAAAAAAAAWqYQCwAAAAAAANAyhVgAAAAAAACAlinEAgAAAAAAALRMIRYAAAAAAACgZQqxAAAAAAAAAC1TiAUAAAAAAABomUIsAAAAAAAAQMsUYgEAAAAAAABaphALAAAAAAAA0DKFWAAAAAAAAICWKcQCAAAAAAAAtEwhFgAAAAAAAKBlCrEAAAAAAAAALVOIBQAAAAAAAGiZQiwAAAAAAABAyxRiAQAAAAAAAFqmEAsAAAAAAADQMoVYAAAAAAAAgJYpxAIAAAAAAAC0TCEWAAAAAAAAoGUKsQAAAAAAAAAtU4gFAAAAAAAAaJlCLAAAAAAAAEDLFGIBAAAAAAAAWqYQCwAAAAAAANAyhVgAAAAAAACAlinEAgAAAAAAALRMIRYAAAAAAACgZQqxAAAAAAAAAC1TiAUAAAAAAABomUIsAAAAAAAAQMsUYgEAAAAAAABaphALAAAAAAAA0DKFWAAAAAAAAICWKcQCAAAAAAAAtEwhFgAAAAAAAKBlCrEAAAAAAAAALVOIBQAAAAAAAGiZQiwAAAAAAABAyxRiAQAAAAAAAFqmEAsAAAAAAADQMoVYAAAAAAAAgJYpxAIAAAAAAAC0TCEWAAAAAAAAoGUKsQAAAAAAAAAtU4gFAAAAAAAAaJlCLAAAAAAAAEDLFGIBAAAAAAAAWqYQCwAAAAAAANAyhVgAAAAAAACAlinEAgAAAAAAALRMIRYAAAAAAACgZQqxAAAAAAAAAC1TiAUAAAAAAABomUIsAAAAAAAAQMsUYgEAAAAAAABaphALAAAAAAAA0DKFWAAAAAAAAICWKcQCAAAAAAAAtEwhFgAAAAAAAKBlCrEAAAAAAAAALVOIBQAAAAAAAGiZQiwAAAAAAABAyxRiAQAAAAAAAFqmEAsAAAAAAADQMoVYAAAAAAAAgJYpxAIAAAAAAAC0TCEWAAAAAAAAoGUKsQAAAAAAAAAt+//OmQQk3kP46gAAAABJRU5ErkJggg==;" vertex="1" parent="1">
          <mxGeometry x="304.53" y="30" width="222" height="63.43" as="geometry" />
        </mxCell>
      </root>
    </mxGraphModel>
  </diagram>
</mxfile>
